SplineFontDB: 3.2
FontName: KawkabMono-Bold
FullName: Kawkab Mono Bold
FamilyName: Kawkab Mono
Weight: Bold
Copyright: Copyright \\(c\\) 2015, Abdullah Arif \\(abdullah.a@gmail.com\\).  Copyright 2010, 2012, 2014 Adobe Systems Incorporated \\(http://www.adobe.com/\\), with Reserved Font Name 'Source'. All Rights Reserved. Source is a trademark of Adobe Systems Incorporated in the United States and/or other countries.
Version: 000.501
ItalicAngle: 0
UnderlinePosition: -100
UnderlineWidth: 50
Ascent: 800
Descent: 200
InvalidEm: 0
sfntRevision: 0x00010000
LayerCount: 2
Layer: 0 0 "Back" 1
Layer: 1 0 "Fore" 0
XUID: [1021 503 -925390817 15968247]
StyleMap: 0x0020
FSType: 8
OS2Version: 3
OS2_WeightWidthSlopeOnly: 0
OS2_UseTypoMetrics: 0
CreationTime: 1452892837
ModificationTime: 1643340434
PfmFamily: 81
TTFWeight: 700
TTFWidth: 5
LineGap: 0
VLineGap: 0
Panose: 0 0 8 9 0 0 0 0 0 0
OS2TypoAscent: 1300
OS2TypoAOffset: 0
OS2TypoDescent: -650
OS2TypoDOffset: 0
OS2TypoLinegap: 0
OS2WinAscent: 1300
OS2WinAOffset: 0
OS2WinDescent: 650
OS2WinDOffset: 0
HheadAscent: 1300
HheadAOffset: 0
HheadDescent: -650
HheadDOffset: 0
OS2SubXSize: 650
OS2SubYSize: 600
OS2SubXOff: 0
OS2SubYOff: 75
OS2SupXSize: 650
OS2SupYSize: 600
OS2SupXOff: 0
OS2SupYOff: 350
OS2StrikeYSize: 50
OS2StrikeYPos: 258
OS2CapHeight: 890
OS2XHeight: 430
OS2Vendor: 'ADBE'
OS2CodePages: 600001df.00000000
OS2UnicodeRanges: 200022d7.02001802.00000008.00000000
Lookup: 1 0 0 "'aalt' Access All Alternates lookup 0" { "'aalt' Access All Alternates lookup 0 subtable"  } ['aalt' ('DFLT' <'dflt' > 'arab' <'URD ' 'dflt' > 'cyrl' <'SRB ' 'dflt' > 'grek' <'dflt' > 'latn' <'NSM ' 'SKS ' 'dflt' > ) ]
Lookup: 3 0 0 "'aalt' Access All Alternates lookup 1" { "'aalt' Access All Alternates lookup 1 subtable"  } ['aalt' ('DFLT' <'dflt' > 'arab' <'URD ' 'dflt' > 'cyrl' <'SRB ' 'dflt' > 'grek' <'dflt' > 'latn' <'NSM ' 'SKS ' 'dflt' > ) ]
Lookup: 1 0 0 "Single Substitution lookup 2" { "Single Substitution lookup 2 subtable"  } []

StartChar: .notdef
Encoding: 1114112 -1 0
Width: 700
Flags: MW
HStem: 0 95<237 460 237 651> 673 97<247 453 247 247>
VStem: 50 104<165 629 165 770> 545 106<165 629 629 629>
LayerCount: 2
Fore
SplineSet
50 770 m 1
 651 770 l 1
 651 0 l 1
 50 0 l 1
 50 770 l 1
352 473 m 1
 404 584 l 1
 453 673 l 1
 247 673 l 1
 295 584 l 1
 347 473 l 1
 352 473 l 1
275 396 m 1
 154 629 l 1
 154 165 l 1
 275 396 l 1
545 165 m 1
 545 629 l 1
 424 396 l 1
 545 165 l 1
460 95 m 1
 403 204 l 1
 352 319 l 1
 347 319 l 1
 295 204 l 1
 237 95 l 1
 460 95 l 1
EndSplineSet
Validated: 1
EndChar

StartChar: uni0621
Encoding: 1569 1569 1
Width: 700
GlyphClass: 2
Flags: MW
HStem: 338 110<368.5 400>
VStem: 239 88<260 305.5>
AnchorPoint: "Anchor-1" 360 640 basechar 0
AnchorPoint: "Anchor-0" 440 -80 basechar 0
LayerCount: 2
Fore
SplineSet
250 -15 m 0
 226 -23 216 -20 208 -5 c 0
 203 4 199 18 199 26 c 0
 199 54 240 83 342 125 c 1
 264 141 239 188 239 250 c 0
 239 361 319 448 418 448 c 0
 490 448 539 403 539 353 c 0
 539 318 516 300 496 300 c 0
 468 300 431 338 369 338 c 0
 336 338 327 327 327 296 c 0
 327 224 374 170 444 170 c 0
 458 170 506 172 530 172 c 0
 592 172 623 159 623 125 c 0
 623 102 608 93 575 84 c 0
 441 47 416 40 250 -15 c 0
EndSplineSet
Validated: 33
EndChar

StartChar: uni0627
Encoding: 1575 1575 2
Width: 700
GlyphClass: 2
Flags: MW
HStem: 870 20G<400 400>
VStem: 262 139
AnchorPoint: "Anchor-1" 318 944 basechar 0
AnchorPoint: "Anchor-0" 400 -123 basechar 0
LayerCount: 2
Fore
SplineSet
302 -40 m 1
 262 762 l 1
 400 890 l 1
 402 140 l 1
 322 -40 l 1
 302 -40 l 1
EndSplineSet
Validated: 1
Substitution2: "'fina' Terminal Forms lookup 31 subtable" uniFE8E
Substitution2: "'aalt' Access All Alternates lookup 0 subtable" uniFE8E
EndChar

StartChar: uniFE8E
Encoding: 65166 65166 3
Width: 700
GlyphClass: 2
Flags: MW
HStem: 0 140<336.5 700 400 700 400 700>
VStem: 175 125<756 756>
AnchorPoint: "Anchor-1" 252 906 basechar 0
AnchorPoint: "Anchor-0" 385 -150 basechar 0
LayerCount: 2
Fore
SplineSet
383 0 m 2
 290 0 202 52 198 195 c 0
 189 528 190 543 175 756 c 1
 300 851 l 1
 300 253 l 2
 300 174 323 140 400 140 c 2
 700 140 l 1
 700 0 l 1
 383 0 l 2
EndSplineSet
Validated: 1
EndChar

StartChar: uni0627.short
Encoding: 1114203 -1 4
Width: 700
GlyphClass: 2
Flags: MW
HStem: 870 20G<400 400>
VStem: 262 139
AnchorPoint: "Anchor-1" 330 950 basechar 0
AnchorPoint: "Anchor-0" 380 -110 basechar 0
LayerCount: 2
Fore
SplineSet
302 -40 m 1
 262 762 l 1
 400 890 l 1
 402 140 l 1
 322 -40 l 1
 302 -40 l 1
EndSplineSet
Validated: 1
EndChar

StartChar: uniFE8E.short
Encoding: 1114204 -1 5
Width: 700
GlyphClass: 2
Flags: MW
HStem: 0 140<338.5 700 400 700 400 700>
VStem: 208 92<125.5 253>
AnchorPoint: "Anchor-1" 240 800 basechar 0
AnchorPoint: "Anchor-0" 385 -150 basechar 0
LayerCount: 2
Fore
SplineSet
383 0 m 2
 294 0 208 56 208 195 c 1
 201 373 186 510 175 596 c 1
 300 691 l 1
 300 253 l 2
 300 178 323 140 400 140 c 2
 700 140 l 1
 700 0 l 1
 383 0 l 2
EndSplineSet
Validated: 1
EndChar

StartChar: uni0623
Encoding: 1571 1571 6
Width: 700
GlyphClass: 2
Flags: MW
HStem: 870 20G<400 400> 1203 78<300 319>
VStem: 209 53<1154 1158.5> 262 139
AnchorPoint: "Anchor-1" 310 1430 basechar 0
AnchorPoint: "Anchor-0" 380 -110 basechar 0
LayerCount: 2
Fore
SplineSet
214 938 m 0xe0
 205 933 202 947 201 952 c 0
 195 972 193 976 193 982 c 0
 193 992 200 998 212 1005 c 2
 273 1040 l 1
 225 1057 209 1089 209 1125 c 0
 209 1192 264 1281 336 1281 c 0
 379 1281 395 1251 398 1198 c 0
 398 1183 391 1176 384 1176 c 0
 379 1176 335 1203 303 1203 c 0
 272 1203 262 1189 262 1170 c 0
 262 1138 280 1072 348 1072 c 0
 362 1072 390 1074 411 1074 c 0
 437 1074 443 1071 452 1056 c 2
 463 1038 l 2
 470 1024 455 1015 443 1012 c 0
 291 977 282 975 214 938 c 0xe0
302 -40 m 1xd0
 262 762 l 1
 400 890 l 1
 402 140 l 1
 322 -40 l 1
 302 -40 l 1xd0
EndSplineSet
Validated: 33
Substitution2: "'fina' Terminal Forms lookup 31 subtable" uniFE84
Substitution2: "'aalt' Access All Alternates lookup 0 subtable" uniFE84
EndChar

StartChar: uniFE84
Encoding: 65156 65156 7
Width: 700
GlyphClass: 2
Flags: MW
HStem: 0 140<336.5 700 400 700 400 700> 1143 78<200 219>
VStem: 109 53<1094 1098.5> 175 125<756 756>
AnchorPoint: "Anchor-1" 230 1330 basechar 0
AnchorPoint: "Anchor-0" 420 -120 basechar 0
LayerCount: 2
Fore
SplineSet
114 878 m 0
 105 873 102 887 101 892 c 0
 95 912 93 916 93 922 c 0
 93 932 100 938 112 945 c 2
 173 980 l 1
 125 997 109 1029 109 1065 c 0
 109 1132 164 1221 236 1221 c 0
 279 1221 295 1191 298 1138 c 0
 298 1123 291 1116 284 1116 c 0
 279 1116 235 1143 203 1143 c 0
 172 1143 162 1129 162 1110 c 0
 162 1078 180 1012 248 1012 c 0xf0
 262 1012 290 1014 311 1014 c 0
 337 1014 343 1011 352 996 c 2
 363 978 l 2
 370 964 355 955 343 952 c 0
 191 917 182 915 114 878 c 0
383 0 m 2
 290 0 202 52 198 195 c 0
 189 528 190 543 175 756 c 1
 300 851 l 1
 300 253 l 2
 300 174 323 140 400 140 c 2
 700 140 l 1
 700 0 l 1
 383 0 l 2
EndSplineSet
Validated: 33
EndChar

StartChar: uni0625
Encoding: 1573 1573 8
Width: 700
GlyphClass: 2
Flags: MW
HStem: -199 78<331 350> 870 20G<400 400>
VStem: 240 53<-248.5 -244> 262 139
AnchorPoint: "Anchor-1" 304 1045 basechar 0
AnchorPoint: "Anchor-0" 400 -500 basechar 0
LayerCount: 2
Fore
SplineSet
302 -40 m 1xd0
 262 762 l 1
 400 890 l 1
 402 140 l 1
 322 -40 l 1
 302 -40 l 1xd0
245 -465 m 0
 236 -469 233 -456 232 -450 c 0
 226 -431 224 -426 224 -421 c 0
 224 -411 231 -404 243 -397 c 2
 304 -362 l 1
 256 -345 240 -314 240 -278 c 0
 240 -210 295 -121 367 -121 c 0
 410 -121 426 -152 429 -205 c 0
 429 -219 422 -226 415 -226 c 0
 410 -226 366 -199 334 -199 c 0
 303 -199 293 -214 293 -233 c 0
 293 -264 311 -331 379 -331 c 0xe0
 393 -331 421 -329 442 -329 c 0
 468 -329 474 -332 483 -346 c 2
 494 -365 l 2
 501 -378 486 -387 474 -390 c 0
 322 -425 313 -427 245 -465 c 0
EndSplineSet
Validated: 33
Substitution2: "'fina' Terminal Forms lookup 31 subtable" uniFE88
Substitution2: "'aalt' Access All Alternates lookup 0 subtable" uniFE88
EndChar

StartChar: uniFE88
Encoding: 65160 65160 9
Width: 700
GlyphClass: 2
Flags: MW
HStem: -223 78<316 335> 0 140<336.5 700 400 700 400 700>
VStem: 175 125<756 756> 225 53<-272.5 -268>
AnchorPoint: "Anchor-1" 258 1000 basechar 0
AnchorPoint: "Anchor-0" 410 -500 basechar 0
LayerCount: 2
Fore
SplineSet
383 0 m 2x60
 290 0 202 52 198 195 c 0
 189 528 190 543 175 756 c 1
 300 851 l 1
 300 253 l 2
 300 174 323 140 400 140 c 2
 700 140 l 1
 700 0 l 1
 383 0 l 2x60
230 -489 m 0
 221 -493 218 -480 217 -474 c 0
 211 -455 209 -450 209 -445 c 0
 209 -435 216 -428 228 -421 c 2
 289 -386 l 1
 241 -369 225 -338 225 -302 c 0
 225 -234 280 -145 352 -145 c 0
 395 -145 411 -176 414 -229 c 0
 414 -243 407 -250 400 -250 c 0
 395 -250 351 -223 319 -223 c 0
 288 -223 278 -238 278 -257 c 0
 278 -288 296 -355 364 -355 c 0xd0
 378 -355 406 -353 427 -353 c 0
 453 -353 459 -356 468 -370 c 2
 479 -389 l 2
 486 -402 471 -411 459 -414 c 0
 307 -449 298 -451 230 -489 c 0
EndSplineSet
Validated: 33
EndChar

StartChar: uni0622
Encoding: 1570 1570 10
Width: 700
GlyphClass: 2
Flags: MW
HStem: 870 20G<400 400> 966 99<359 403.5 346 418.5>
VStem: 262 139
AnchorPoint: "Anchor-1" 350 1280 basechar 0
AnchorPoint: "Anchor-0" 380 -110 basechar 0
LayerCount: 2
Fore
SplineSet
163 961 m 1
 128 997 l 1
 153 1079 212 1124 251 1124 c 0
 295 1124 306 1065 386 1065 c 0
 421 1065 461 1076 557 1124 c 1
 575 1124 582 1073 554 1043 c 0
 531 1018 448 966 389 966 c 0
 329 966 264 1018 233 1073 c 1
 207 1060 184 1028 163 961 c 1
302 -40 m 1
 262 762 l 1
 400 890 l 1
 402 140 l 1
 322 -40 l 1
 302 -40 l 1
EndSplineSet
Validated: 33
Substitution2: "'fina' Terminal Forms lookup 31 subtable" uniFE82
Substitution2: "'aalt' Access All Alternates lookup 0 subtable" uniFE82
EndChar

StartChar: uniFE82
Encoding: 65154 65154 11
Width: 700
GlyphClass: 2
Flags: MW
HStem: 0 140<336.5 700 400 700 400 700> 916 99<249 293.5 236 308.5>
VStem: 175 125<756 756>
AnchorPoint: "Anchor-1" 290 1220 basechar 0
AnchorPoint: "Anchor-0" 420 -120 basechar 0
LayerCount: 2
Fore
SplineSet
53 911 m 1
 18 947 l 1
 43 1029 102 1074 141 1074 c 0
 185 1074 196 1015 276 1015 c 0
 311 1015 351 1026 447 1074 c 1
 465 1074 472 1023 444 993 c 0
 421 968 338 916 279 916 c 0
 219 916 154 968 123 1023 c 1
 97 1010 74 978 53 911 c 1
383 0 m 2
 290 0 202 52 198 195 c 0
 189 528 190 543 175 756 c 1
 300 851 l 1
 300 253 l 2
 300 174 323 140 400 140 c 2
 700 140 l 1
 700 0 l 1
 383 0 l 2
EndSplineSet
Validated: 33
EndChar

StartChar: uni0671
Encoding: 1649 1649 12
Width: 700
GlyphClass: 2
Flags: MW
HStem: 894 43<128 128> 894 65<386 429.5> 1064 72<429 464.5>
VStem: 232 39<990 1048 1023 1048> 262 139 503 46<993.5 1016.5>
AnchorPoint: "Anchor-1" 350 1250 basechar 0
AnchorPoint: "Anchor-0" 380 -110 basechar 0
LayerCount: 2
Fore
SplineSet
128 894 m 1xb4
 128 937 l 1
 204 953 232 965 232 990 c 2
 232 1023 l 1
 271 1048 l 1
 267 1023 267 998 269 984 c 0
 270 976 272 972 274 972 c 0xb4
 289 972 387 1136 471 1136 c 0
 519 1136 549 1084 549 1014 c 0
 549 905 479 894 380 894 c 0x74
 304 894 267 901 256 925 c 1
 206 895 194 893 128 894 c 1xb4
396 959 m 0x6c
 464 959 503 980 503 1007 c 0
 503 1026 483 1064 446 1064 c 0
 405 1064 359 1013 322 971 c 1
 344 961 376 959 396 959 c 0x6c
302 -37 m 1
 262 701 l 1
 400 819 l 1
 402 129 l 1
 322 -37 l 1
 302 -37 l 1
EndSplineSet
Validated: 33
Substitution2: "'fina' Terminal Forms lookup 31 subtable" uniFB51
Substitution2: "'aalt' Access All Alternates lookup 0 subtable" uniFB51
EndChar

StartChar: uniFB51
Encoding: 64337 64337 13
Width: 700
GlyphClass: 2
Flags: MW
HStem: 0 140<336.5 700 400 700 400 700> 914 43<79 79> 914 65<337 380.5> 1084 72<380 415.5>
VStem: 175 125<756 756> 183 39<1010 1068 1043 1068> 454 46<1013.5 1036.5>
AnchorPoint: "Anchor-1" 300 1250 basechar 0
AnchorPoint: "Anchor-0" 420 -120 basechar 0
LayerCount: 2
Fore
SplineSet
79 914 m 1xda
 79 957 l 1
 155 973 183 985 183 1010 c 2
 183 1043 l 1
 222 1068 l 1
 218 1043 218 1018 220 1004 c 0
 221 996 223 992 225 992 c 0xd6
 240 992 338 1156 422 1156 c 0
 470 1156 500 1104 500 1034 c 0
 500 925 430 914 331 914 c 0xba
 255 914 218 921 207 945 c 1
 157 915 145 913 79 914 c 1xda
347 979 m 0xba
 415 979 454 1000 454 1027 c 0
 454 1046 434 1084 397 1084 c 0
 356 1084 310 1033 273 991 c 1
 295 981 327 979 347 979 c 0xba
383 0 m 2
 290 0 202 52 198 195 c 0
 189 528 190 543 175 756 c 1
 300 851 l 1
 300 253 l 2
 300 174 323 140 400 140 c 2
 700 140 l 1
 700 0 l 1
 383 0 l 2
EndSplineSet
Validated: 33
EndChar

StartChar: uni066E
Encoding: 1646 1646 14
Width: 700
GlyphClass: 2
Flags: MW
HStem: 0 140<203 213 213 482>
VStem: 0 97<119 252.5> 583 117<178 220>
AnchorPoint: "Anchor-1" 350 650 basechar 0
AnchorPoint: "Anchor-0" 420 -110 basechar 0
LayerCount: 2
Fore
SplineSet
213 0 m 2
 85 0 0 68 0 170 c 0
 0 213 27 302 68 393 c 1
 126 379 l 1
 109 335 97 276 97 229 c 0
 97 176 139 140 203 140 c 2
 511 140 l 2
 554 140 583 162 583 194 c 0
 583 246 566 324 541 389 c 1
 642 490 l 1
 677 400 700 294 700 225 c 0
 700 90 613 0 482 0 c 2
 213 0 l 2
EndSplineSet
Validated: 1
Substitution2: "'fina' Terminal Forms lookup 31 subtable" uni066E.fina
Substitution2: "'medi' Medial Forms lookup 30 subtable" uni066E.medi
Substitution2: "'init' Initial Forms lookup 29 subtable" uni066E.init
AlternateSubs2: "'aalt' Access All Alternates lookup 1 subtable" uni066E.init uni066E.medi uni066E.fina
EndChar

StartChar: uni066E.fina
Encoding: 1114205 -1 15
Width: 700
GlyphClass: 2
Flags: MW
HStem: 0 140<173 213 213 388 676 695 695 700>
VStem: 0 98.07 600 36.48
AnchorPoint: "Anchor-1" 350 650 basechar 0
AnchorPoint: "Anchor-0" 380 -110 basechar 0
LayerCount: 2
Fore
SplineSet
213 0 m 2
 85 0 0 66 0 165 c 0
 0 240 33 335 83 403 c 1
 134 396 l 1
 74 242 90 140 173 140 c 2
 448 140 l 2
 501 140 550 178 570 235 c 0
 579 263 588 294 591 312 c 1
 664 357 l 1
 654 321 644 279 639 254 c 0
 628 186 652 140 700 140 c 1
 700 0 l 1
 695 0 l 2
 652 0 617 44 600 168 c 1
 586 44 502 0 388 0 c 2
 213 0 l 2
EndSplineSet
Validated: 33
EndChar

StartChar: uni066E.medi
Encoding: 1114206 -1 16
Width: 700
GlyphClass: 2
Flags: MW
HStem: 0 140<0 230 230 239 0 230 645 700>
VStem: 405 119<201.5 274>
AnchorPoint: "Anchor-1" 350 710 basechar 0
AnchorPoint: "Anchor-0" 400 -110 basechar 0
LayerCount: 2
Fore
SplineSet
700 140 m 1
 700 0 l 1
 555 0 491 33 452 164 c 1
 414 47 364 0 239 0 c 2
 0 0 l 1
 0 140 l 1
 230 140 l 2
 345 140 405 144 405 259 c 0
 405 289 401 325 395 365 c 1
 524 448 l 1
 522 400 522 224 524 193 c 0
 528 142 590 140 700 140 c 1
EndSplineSet
Validated: 33
EndChar

StartChar: uni066E.init
Encoding: 1114207 -1 17
Width: 700
GlyphClass: 2
Flags: MW
HStem: 0 140<0 486 0 457>
VStem: 558 117
AnchorPoint: "Anchor-1" 316 600 basechar 0
AnchorPoint: "Anchor-0" 450 -80 basechar 0
LayerCount: 2
Fore
SplineSet
0 0 m 1
 0 140 l 1
 486 140 l 2
 524 140 560 155 558 196 c 0
 557 230 525 361 506 409 c 1
 607 510 l 1
 626 461 675 296 675 222 c 0
 675 124 589 0 457 0 c 2
 0 0 l 1
EndSplineSet
Validated: 33
EndChar

StartChar: uni0628
Encoding: 1576 1576 18
Width: 700
GlyphClass: 2
Flags: MW
HStem: 0 140<203 213 213 482>
VStem: 0 97<119 252.5> 583 117<178 220>
AnchorPoint: "Anchor-1" 350 700 basechar 0
AnchorPoint: "Anchor-0" 420 -420 basechar 0
LayerCount: 2
Fore
SplineSet
213 0 m 2
 85 0 0 68 0 170 c 0
 0 213 27 302 68 393 c 1
 126 379 l 1
 109 335 97 276 97 229 c 0
 97 176 139 140 203 140 c 2
 511 140 l 2
 554 140 583 162 583 194 c 0
 583 246 566 324 541 389 c 1
 642 490 l 1
 677 400 700 294 700 225 c 0
 700 90 613 0 482 0 c 2
 213 0 l 2
351 -354 m 1
 264 -260 l 1
 351 -167 l 1
 437 -260 l 1
 351 -354 l 1
EndSplineSet
Validated: 1
Substitution2: "'fina' Terminal Forms lookup 31 subtable" uniFE90
Substitution2: "'medi' Medial Forms lookup 30 subtable" uniFE92
Substitution2: "'init' Initial Forms lookup 29 subtable" uniFE91
AlternateSubs2: "'aalt' Access All Alternates lookup 1 subtable" uniFE91 uniFE92 uniFE90
EndChar

StartChar: uniFE90
Encoding: 65168 65168 19
Width: 700
GlyphClass: 2
Flags: MW
HStem: 0 140<173 213 213 388 676 695 695 700>
VStem: 0 98.07 600 36.48
AnchorPoint: "Anchor-1" 350 650 basechar 0
AnchorPoint: "Anchor-0" 380 -420 basechar 0
LayerCount: 2
Fore
SplineSet
213 0 m 2
 85 0 0 66 0 165 c 0
 0 240 33 335 83 403 c 1
 134 396 l 1
 74 242 90 140 173 140 c 2
 448 140 l 2
 501 140 550 178 570 235 c 0
 579 263 588 294 591 312 c 1
 664 357 l 1
 654 321 644 279 639 254 c 0
 628 186 652 140 700 140 c 1
 700 0 l 1
 695 0 l 2
 652 0 617 44 600 168 c 1
 586 44 502 0 388 0 c 2
 213 0 l 2
351 -354 m 1
 264 -260 l 1
 351 -167 l 1
 437 -260 l 1
 351 -354 l 1
EndSplineSet
Validated: 33
EndChar

StartChar: uniFE92
Encoding: 65170 65170 20
Width: 700
GlyphClass: 2
Flags: MW
HStem: 0 140<0 230 230 239 0 230 645 700>
VStem: 405 119<201.5 274>
AnchorPoint: "Anchor-1" 350 710 basechar 0
AnchorPoint: "Anchor-0" 460 -450 basechar 0
LayerCount: 2
Fore
SplineSet
700 140 m 1
 700 0 l 1
 555 0 491 33 452 164 c 1
 414 47 364 0 239 0 c 2
 0 0 l 1
 0 140 l 1
 230 140 l 2
 345 140 405 144 405 259 c 0
 405 289 401 325 395 365 c 1
 524 448 l 1
 522 400 522 224 524 193 c 0
 528 142 590 140 700 140 c 1
436 -354 m 1
 349 -260 l 1
 436 -167 l 1
 522 -260 l 1
 436 -354 l 1
EndSplineSet
Validated: 33
EndChar

StartChar: uniFE91
Encoding: 65169 65169 21
Width: 700
GlyphClass: 2
Flags: MW
HStem: 0 140<0 486 0 457>
VStem: 558 117
AnchorPoint: "Anchor-1" 320 680 basechar 0
AnchorPoint: "Anchor-0" 430 -450 basechar 0
LayerCount: 2
Fore
SplineSet
0 0 m 1
 0 140 l 1
 486 140 l 2
 524 140 560 155 558 196 c 0
 557 230 525 361 506 409 c 1
 607 510 l 1
 626 461 675 296 675 222 c 0
 675 124 589 0 457 0 c 2
 0 0 l 1
351 -354 m 1
 264 -260 l 1
 351 -167 l 1
 437 -260 l 1
 351 -354 l 1
EndSplineSet
Validated: 33
EndChar

StartChar: uni067E
Encoding: 1662 1662 22
Width: 700
GlyphClass: 2
Flags: MW
HStem: 0 140<203 213 213 482>
VStem: 0 97<119 252.5> 583 117<178 220>
AnchorPoint: "Anchor-1" 350 650 basechar 0
AnchorPoint: "Anchor-0" 400 -580 basechar 0
LayerCount: 2
Fore
SplineSet
213 0 m 2
 85 0 0 68 0 170 c 0
 0 213 27 302 68 393 c 1
 126 379 l 1
 109 335 97 276 97 229 c 0
 97 176 139 140 203 140 c 2
 511 140 l 2
 554 140 583 162 583 194 c 0
 583 246 566 324 541 389 c 1
 642 490 l 1
 677 400 700 294 700 225 c 0
 700 90 613 0 482 0 c 2
 213 0 l 2
254 -313 m 1
 171 -223 l 1
 254 -134 l 1
 336 -223 l 1
 254 -313 l 1
438 -313 m 1
 355 -223 l 1
 438 -134 l 1
 520 -223 l 1
 438 -313 l 1
344 -500 m 1
 261 -410 l 1
 344 -321 l 1
 426 -410 l 1
 344 -500 l 1
EndSplineSet
Validated: 1
Substitution2: "'fina' Terminal Forms lookup 31 subtable" uniFB57
Substitution2: "'medi' Medial Forms lookup 30 subtable" uniFB59
Substitution2: "'init' Initial Forms lookup 29 subtable" uniFB58
AlternateSubs2: "'aalt' Access All Alternates lookup 1 subtable" uniFB58 uniFB59 uniFB57
EndChar

StartChar: uniFB57
Encoding: 64343 64343 23
Width: 700
GlyphClass: 2
Flags: MW
HStem: 0 140<173 213 213 388 676 695 695 700>
VStem: 0 98.07 600 36.48
AnchorPoint: "Anchor-1" 350 600 basechar 0
AnchorPoint: "Anchor-0" 380 -580 basechar 0
LayerCount: 2
Fore
SplineSet
213 0 m 2
 85 0 0 66 0 165 c 0
 0 240 33 335 83 403 c 1
 134 396 l 1
 74 242 90 140 173 140 c 2
 448 140 l 2
 501 140 550 178 570 235 c 0
 579 263 588 294 591 312 c 1
 664 357 l 1
 654 321 644 279 639 254 c 0
 628 186 652 140 700 140 c 1
 700 0 l 1
 695 0 l 2
 652 0 617 44 600 168 c 1
 586 44 502 0 388 0 c 2
 213 0 l 2
244 -313 m 1
 161 -223 l 1
 244 -134 l 1
 326 -223 l 1
 244 -313 l 1
428 -313 m 1
 345 -223 l 1
 428 -134 l 1
 510 -223 l 1
 428 -313 l 1
334 -500 m 1
 251 -410 l 1
 334 -321 l 1
 416 -410 l 1
 334 -500 l 1
EndSplineSet
Validated: 33
EndChar

StartChar: uniFB59
Encoding: 64345 64345 24
Width: 700
GlyphClass: 2
Flags: MW
HStem: 0 140<0 230 230 239 0 230 645 700>
VStem: 405 119<201.5 274>
AnchorPoint: "Anchor-1" 350 700 basechar 0
AnchorPoint: "Anchor-0" 350 -580 basechar 0
LayerCount: 2
Fore
SplineSet
700 140 m 1
 700 0 l 1
 555 0 491 33 452 164 c 1
 414 47 364 0 239 0 c 2
 0 0 l 1
 0 140 l 1
 230 140 l 2
 345 140 405 144 405 259 c 0
 405 289 401 325 395 365 c 1
 524 448 l 1
 522 400 522 224 524 193 c 0
 528 142 590 140 700 140 c 1
257 -313 m 1
 174 -223 l 1
 257 -134 l 1
 339 -223 l 1
 257 -313 l 1
441 -313 m 1
 358 -223 l 1
 441 -134 l 1
 523 -223 l 1
 441 -313 l 1
347 -500 m 1
 264 -410 l 1
 347 -321 l 1
 429 -410 l 1
 347 -500 l 1
EndSplineSet
Validated: 33
EndChar

StartChar: uniFB58
Encoding: 64344 64344 25
Width: 700
GlyphClass: 2
Flags: MW
HStem: 0 140<0 486 0 457>
VStem: 558 117
AnchorPoint: "Anchor-1" 380 600 basechar 0
AnchorPoint: "Anchor-0" 430 -580 basechar 0
LayerCount: 2
Fore
SplineSet
0 0 m 1
 0 140 l 1
 486 140 l 2
 524 140 560 155 558 196 c 0
 557 230 525 361 506 409 c 1
 607 510 l 1
 626 461 675 296 675 222 c 0
 675 124 589 0 457 0 c 2
 0 0 l 1
279 -313 m 1
 196 -223 l 1
 279 -134 l 1
 361 -223 l 1
 279 -313 l 1
463 -313 m 1
 380 -223 l 1
 463 -134 l 1
 545 -223 l 1
 463 -313 l 1
369 -500 m 1
 286 -410 l 1
 369 -321 l 1
 451 -410 l 1
 369 -500 l 1
EndSplineSet
Validated: 33
EndChar

StartChar: uni062A
Encoding: 1578 1578 26
Width: 700
GlyphClass: 2
Flags: MW
HStem: 0 140<203 213 213 482>
VStem: 0 97<119 252.5> 583 117<178 220>
AnchorPoint: "Anchor-1" 340 900 basechar 0
AnchorPoint: "Anchor-0" 420 -110 basechar 0
LayerCount: 2
Fore
SplineSet
467 534 m 1
 379 626 l 1
 464 719 l 1
 551 628 l 1
 467 534 l 1
243 531 m 1
 155 623 l 1
 239 716 l 1
 326 626 l 1
 243 531 l 1
213 0 m 2
 85 0 0 68 0 170 c 0
 0 213 27 302 68 393 c 1
 126 379 l 1
 109 335 97 276 97 229 c 0
 97 176 139 140 203 140 c 2
 511 140 l 2
 554 140 583 162 583 194 c 0
 583 246 566 324 541 389 c 1
 642 490 l 1
 677 400 700 294 700 225 c 0
 700 90 613 0 482 0 c 2
 213 0 l 2
EndSplineSet
Validated: 1
Substitution2: "'fina' Terminal Forms lookup 31 subtable" uniFE96
Substitution2: "'medi' Medial Forms lookup 30 subtable" uniFE98
Substitution2: "'init' Initial Forms lookup 29 subtable" uniFE97
AlternateSubs2: "'aalt' Access All Alternates lookup 1 subtable" uniFE97 uniFE98 uniFE96
EndChar

StartChar: uniFE96
Encoding: 65174 65174 27
Width: 700
GlyphClass: 2
Flags: MW
HStem: 0 140<173 213 213 388 676 695 695 700>
VStem: 0 98.07 600 36.48
AnchorPoint: "Anchor-1" 346 900 basechar 0
AnchorPoint: "Anchor-0" 380 -110 basechar 0
LayerCount: 2
Fore
SplineSet
489 534 m 1
 401 626 l 1
 486 719 l 1
 573 628 l 1
 489 534 l 1
265 531 m 1
 177 623 l 1
 261 716 l 1
 348 626 l 1
 265 531 l 1
213 0 m 2
 85 0 0 66 0 165 c 0
 0 240 33 335 83 403 c 1
 134 396 l 1
 74 242 90 140 173 140 c 2
 448 140 l 2
 501 140 550 178 570 235 c 0
 579 263 588 294 591 312 c 1
 664 357 l 1
 654 321 644 279 639 254 c 0
 628 186 652 140 700 140 c 1
 700 0 l 1
 695 0 l 2
 652 0 617 44 600 168 c 1
 586 44 502 0 388 0 c 2
 213 0 l 2
EndSplineSet
Validated: 33
EndChar

StartChar: uniFE98
Encoding: 65176 65176 28
Width: 700
GlyphClass: 2
Flags: MW
HStem: 0 140<0 230 230 239 0 230 645 700>
VStem: 405 119<201.5 274>
AnchorPoint: "Anchor-1" 353 900 basechar 0
AnchorPoint: "Anchor-0" 440 -110 basechar 0
LayerCount: 2
Fore
SplineSet
397 534 m 1
 309 626 l 1
 394 719 l 1
 481 628 l 1
 397 534 l 1
173 531 m 1
 85 623 l 1
 169 716 l 1
 256 626 l 1
 173 531 l 1
700 140 m 1
 700 0 l 1
 555 0 491 33 452 164 c 1
 414 47 364 0 239 0 c 2
 0 0 l 1
 0 140 l 1
 230 140 l 2
 345 140 405 144 405 259 c 0
 405 289 401 325 395 365 c 1
 524 448 l 1
 522 400 522 224 524 193 c 0
 528 142 590 140 700 140 c 1
EndSplineSet
Validated: 33
EndChar

StartChar: uniFE97
Encoding: 65175 65175 29
Width: 700
GlyphClass: 2
Flags: MW
HStem: 0 140<0 486 0 457>
VStem: 558 117
AnchorPoint: "Anchor-1" 290 900 basechar 0
AnchorPoint: "Anchor-0" 450 -110 basechar 0
LayerCount: 2
Fore
SplineSet
398 534 m 1
 310 626 l 1
 395 719 l 1
 482 628 l 1
 398 534 l 1
174 531 m 1
 86 623 l 1
 170 716 l 1
 257 626 l 1
 174 531 l 1
0 0 m 1
 0 140 l 1
 486 140 l 2
 524 140 560 155 558 196 c 0
 557 230 525 361 506 409 c 1
 607 510 l 1
 626 461 675 296 675 222 c 0
 675 124 589 0 457 0 c 2
 0 0 l 1
EndSplineSet
Validated: 33
EndChar

StartChar: uni062B
Encoding: 1579 1579 30
Width: 700
GlyphClass: 2
Flags: MW
HStem: 0 140<203 213 213 482>
VStem: 0 97<119 252.5> 583 117<178 220>
AnchorPoint: "Anchor-1" 350 1030 basechar 0
AnchorPoint: "Anchor-0" 420 -110 basechar 0
LayerCount: 2
Fore
SplineSet
348 693 m 1
 261 787 l 1
 348 880 l 1
 434 787 l 1
 348 693 l 1
263 505 m 1
 176 599 l 1
 263 692 l 1
 349 599 l 1
 263 505 l 1
465 505 m 1
 378 599 l 1
 465 692 l 1
 551 599 l 1
 465 505 l 1
213 0 m 2
 85 0 0 68 0 170 c 0
 0 213 27 302 68 393 c 1
 126 379 l 1
 109 335 97 276 97 229 c 0
 97 176 139 140 203 140 c 2
 511 140 l 2
 554 140 583 162 583 194 c 0
 583 246 566 324 541 389 c 1
 642 490 l 1
 677 400 700 294 700 225 c 0
 700 90 613 0 482 0 c 2
 213 0 l 2
EndSplineSet
Validated: 1
Substitution2: "'fina' Terminal Forms lookup 31 subtable" uniFE9A
Substitution2: "'medi' Medial Forms lookup 30 subtable" uniFE9C
Substitution2: "'init' Initial Forms lookup 29 subtable" uniFE9B
AlternateSubs2: "'aalt' Access All Alternates lookup 1 subtable" uniFE9B uniFE9C uniFE9A
EndChar

StartChar: uniFE9A
Encoding: 65178 65178 31
Width: 700
GlyphClass: 2
Flags: MW
HStem: 0 140<173 213 213 388 676 695 695 700>
VStem: 0 98.07 600 36.48
AnchorPoint: "Anchor-1" 320 1000 basechar 0
AnchorPoint: "Anchor-0" 380 -110 basechar 0
LayerCount: 2
Fore
SplineSet
353 638 m 1
 266 732 l 1
 353 825 l 1
 439 732 l 1
 353 638 l 1
268 450 m 1
 181 544 l 1
 268 637 l 1
 354 544 l 1
 268 450 l 1
470 450 m 1
 383 544 l 1
 470 637 l 1
 556 544 l 1
 470 450 l 1
213 0 m 2
 85 0 0 66 0 165 c 0
 0 240 33 335 83 403 c 1
 134 396 l 1
 74 242 90 140 173 140 c 2
 448 140 l 2
 501 140 550 178 570 235 c 0
 579 263 588 294 591 312 c 1
 664 357 l 1
 654 321 644 279 639 254 c 0
 628 186 652 140 700 140 c 1
 700 0 l 1
 695 0 l 2
 652 0 617 44 600 168 c 1
 586 44 502 0 388 0 c 2
 213 0 l 2
EndSplineSet
Validated: 33
EndChar

StartChar: uniFE9C
Encoding: 65180 65180 32
Width: 700
GlyphClass: 2
Flags: MW
HStem: 0 140<0 230 230 239 0 230 645 700>
VStem: 405 119<201.5 274 193 505>
AnchorPoint: "Anchor-1" 338 1030 basechar 0
AnchorPoint: "Anchor-0" 440 -110 basechar 0
LayerCount: 2
Fore
SplineSet
288 693 m 1
 201 787 l 1
 288 880 l 1
 374 787 l 1
 288 693 l 1
203 505 m 1
 116 599 l 1
 203 692 l 1
 289 599 l 1
 203 505 l 1
405 505 m 1
 318 599 l 1
 405 692 l 1
 491 599 l 1
 405 505 l 1
700 140 m 1
 700 0 l 1
 555 0 491 33 452 164 c 1
 414 47 364 0 239 0 c 2
 0 0 l 1
 0 140 l 1
 230 140 l 2
 345 140 405 144 405 259 c 0
 405 289 401 325 395 365 c 1
 524 448 l 1
 522 400 522 224 524 193 c 0
 528 142 590 140 700 140 c 1
EndSplineSet
Validated: 33
EndChar

StartChar: uniFE9B
Encoding: 65179 65179 33
Width: 700
GlyphClass: 2
Flags: MW
HStem: 0 140<0 486 0 457>
VStem: 558 117
AnchorPoint: "Anchor-1" 290 1030 basechar 0
AnchorPoint: "Anchor-0" 450 -110 basechar 0
LayerCount: 2
Fore
SplineSet
243 693 m 1
 156 787 l 1
 243 880 l 1
 329 787 l 1
 243 693 l 1
158 505 m 1
 71 599 l 1
 158 692 l 1
 244 599 l 1
 158 505 l 1
360 505 m 1
 273 599 l 1
 360 692 l 1
 446 599 l 1
 360 505 l 1
0 0 m 1
 0 140 l 1
 486 140 l 2
 524 140 560 155 558 196 c 0
 557 230 525 361 506 409 c 1
 607 510 l 1
 626 461 675 296 675 222 c 0
 675 124 589 0 457 0 c 2
 0 0 l 1
EndSplineSet
Validated: 33
EndChar

StartChar: uni0679
Encoding: 1657 1657 34
Width: 700
GlyphClass: 2
Flags: MW
HStem: 0 140<203 213 213 482> 551 63<200 207 200 338 178 207> 551 67<267 338> 700 62<375 389>
VStem: 0 97<119 252.5> 234 23 424 40<638 663.5> 583 117<178 220>
AnchorPoint: "Anchor-1" 360 1030 basechar 0
AnchorPoint: "Anchor-0" 420 -80 basechar 0
LayerCount: 2
Fore
SplineSet
464 654 m 0xdf
 464 576 419 551 338 551 c 2
 178 551 l 1
 178 602 195 614 205 614 c 0
 209 614 215 614 221 616 c 0
 232 630 235 649 234 681 c 0
 231 762 228 838 213 864 c 1
 263 908 l 1
 287 845 l 1
 260 816 263 719 257 652 c 1
 301 718 354 762 396 762 c 0
 441 762 464 710 464 654 c 0xdf
376 700 m 0
 345 700 305 660 267 618 c 1
 362 618 l 2xbf
 402 618 424 625 424 651 c 0
 424 676 402 700 376 700 c 0
642 490 m 1
 677 400 700 294 700 225 c 0
 700 90 613 0 482 0 c 2
 213 0 l 2
 85 0 0 68 0 170 c 0
 0 213 27 302 68 393 c 1
 126 379 l 1
 109 335 97 276 97 229 c 0
 97 176 139 140 203 140 c 2
 511 140 l 2
 554 140 583 162 583 194 c 0
 583 246 566 324 541 389 c 1
 642 490 l 1
EndSplineSet
Validated: 33
Substitution2: "'fina' Terminal Forms lookup 31 subtable" uniFB67
Substitution2: "'medi' Medial Forms lookup 30 subtable" uniFB69
Substitution2: "'init' Initial Forms lookup 29 subtable" uniFB68
AlternateSubs2: "'aalt' Access All Alternates lookup 1 subtable" uniFB68 uniFB69 uniFB67
EndChar

StartChar: uniFB67
Encoding: 64359 64359 35
Width: 700
GlyphClass: 2
Flags: MW
HStem: 0 140<173 213 213 388 676 695 695 700> 502 67<297 368> 583 20G 651 62<405 419>
VStem: 0 98.07 264 23 454 40<589 614.5> 600 36.48
AnchorPoint: "Anchor-1" 320 1000 basechar 0
AnchorPoint: "Anchor-0" 380 -110 basechar 0
LayerCount: 2
Fore
SplineSet
494 605 m 0
 494 527 449 502 368 502 c 2
 208 502 l 1
 208 553 225 565 235 565 c 0
 239 565 245 565 251 567 c 0
 262 581 265 600 264 632 c 0
 261 713 258 789 243 815 c 1
 293 859 l 1
 317 796 l 1
 290 767 293 670 287 603 c 1
 331 669 384 713 426 713 c 0
 471 713 494 661 494 605 c 0
406 651 m 0
 375 651 335 611 297 569 c 1
 392 569 l 2
 432 569 454 576 454 602 c 0
 454 627 432 651 406 651 c 0
639 254 m 0
 628 186 652 140 700 140 c 1
 700 0 l 1
 695 0 l 2
 652 0 617 44 600 168 c 1
 586 44 502 0 388 0 c 2
 213 0 l 2
 85 0 0 66 0 165 c 0
 0 240 33 335 83 403 c 1
 134 396 l 1
 74 242 90 140 173 140 c 2
 448 140 l 2
 501 140 550 178 570 235 c 0
 579 263 588 294 591 312 c 1
 664 357 l 1
 654 321 644 279 639 254 c 0
EndSplineSet
Validated: 33
EndChar

StartChar: uniFB69
Encoding: 64361 64361 36
Width: 700
GlyphClass: 2
Flags: MW
HStem: 0 140<0 230 230 239 0 230 645 700> 522 67<207 278> 671 62<315 329>
VStem: 174 23 364 40<609 634.5> 405 119<201.5 274>
AnchorPoint: "Anchor-1" 350 1030 basechar 0
AnchorPoint: "Anchor-0" 440 -110 basechar 0
LayerCount: 2
Fore
SplineSet
404 625 m 0
 404 547 359 522 278 522 c 2
 118 522 l 1
 118 573 135 585 145 585 c 0
 149 585 155 585 161 587 c 0
 172 601 175 620 174 652 c 0
 171 733 168 809 153 835 c 1
 203 879 l 1
 227 816 l 1
 200 787 203 690 197 623 c 1
 241 689 294 733 336 733 c 0
 381 733 404 681 404 625 c 0
316 671 m 0
 285 671 245 631 207 589 c 1
 302 589 l 2
 342 589 364 596 364 622 c 0
 364 647 342 671 316 671 c 0
524 193 m 0xd4
 528 142 590 140 700 140 c 1
 700 0 l 1
 555 0 491 33 452 164 c 1
 414 47 364 0 239 0 c 2
 0 0 l 1
 0 140 l 1
 230 140 l 2
 345 140 405 144 405 259 c 0
 405 289 401 325 395 365 c 1
 524 448 l 1
 522 400 522 224 524 193 c 0xd4
EndSplineSet
Validated: 33
EndChar

StartChar: uniFB68
Encoding: 64360 64360 37
Width: 700
GlyphClass: 2
Flags: MW
HStem: 0 140<0 457 0 486> 552 63<180 187 180 318 158 187> 552 67<247 318> 701 62<355 369>
VStem: 214 23 404 40<639 664.5> 558 117
AnchorPoint: "Anchor-1" 290 1030 basechar 0
AnchorPoint: "Anchor-0" 450 -110 basechar 0
LayerCount: 2
Fore
SplineSet
444 655 m 0xde
 444 577 399 552 318 552 c 2
 158 552 l 1
 158 603 175 615 185 615 c 0
 189 615 195 615 201 617 c 0
 212 631 215 650 214 682 c 0
 211 763 208 839 193 865 c 1
 243 909 l 1
 267 846 l 1
 240 817 243 720 237 653 c 1
 281 719 334 763 376 763 c 0
 421 763 444 711 444 655 c 0xde
356 701 m 0
 325 701 285 661 247 619 c 1
 342 619 l 2xbe
 382 619 404 626 404 652 c 0
 404 677 382 701 356 701 c 0
607 510 m 1
 626 461 675 296 675 222 c 0
 675 124 589 0 457 0 c 2
 0 0 l 1
 0 140 l 1
 486 140 l 2
 524 140 560 155 558 196 c 0
 557 230 525 361 506 409 c 1
 607 510 l 1
EndSplineSet
Validated: 33
EndChar

StartChar: uni062C
Encoding: 1580 1580 38
Width: 700
GlyphClass: 2
Flags: MW
HStem: -486 136<297.5 408.5> 345 140<280.5 340.5>
VStem: 33 110<-218 -63>
AnchorPoint: "Anchor-1" 350 677 basechar 0
AnchorPoint: "Anchor-0" 420 -560 basechar 0
LayerCount: 2
Fore
SplineSet
364 -350 m 0
 461 -350 564 -317 622 -282 c 1
 637 -300 l 1
 582 -400 488 -486 329 -486 c 0
 141 -486 33 -365 33 -181 c 0
 33 55 211 232 525 280 c 1
 445 315 380 345 301 345 c 0
 229 345 151 320 88 283 c 1
 80 289 l 1
 123 425 l 1
 180 468 249 485 312 485 c 0
 462 485 494 390 664 390 c 1
 666 346 633 277 625 256 c 1
 526 263 143 145 143 -148 c 0
 143 -288 231 -350 364 -350 c 0
437 -151 m 1
 350 -57 l 1
 437 36 l 1
 523 -57 l 1
 437 -151 l 1
EndSplineSet
Validated: 33
Substitution2: "'fina' Terminal Forms lookup 31 subtable" uniFE9E
Substitution2: "'medi' Medial Forms lookup 30 subtable" uniFEA0
Substitution2: "'init' Initial Forms lookup 29 subtable" uniFE9F
AlternateSubs2: "'aalt' Access All Alternates lookup 1 subtable" uniFE9F uniFEA0 uniFE9E
EndChar

StartChar: uniFE9E
Encoding: 65182 65182 39
Width: 700
GlyphClass: 2
Flags: MW
HStem: -486 136<297.5 408.5> 0 140<574 616 616 700> 256 134 345 140<280.5 340.5>
VStem: 33 110<-218 -63> 437 263
AnchorPoint: "Anchor-1" 350 780 basechar 0
AnchorPoint: "Anchor-0" 420 -560 basechar 0
LayerCount: 2
Fore
SplineSet
616 0 m 2xdc
 515 0 444 73 437 212 c 1
 298 154 143 39 143 -148 c 0
 143 -288 231 -350 364 -350 c 0
 461 -350 564 -317 622 -282 c 1
 637 -300 l 1
 582 -400 488 -486 329 -486 c 0
 141 -486 33 -365 33 -181 c 0
 33 55 211 232 525 280 c 1
 445 315 380 345 301 345 c 0
 229 345 151 320 88 283 c 1
 80 289 l 1
 123 425 l 1
 180 468 249 485 312 485 c 0xdc
 462 485 494 390 664 390 c 1
 666 346 633 277 625 256 c 1xec
 596 258 544 250 485 230 c 1
 500 164 537 140 574 140 c 2
 700 140 l 1
 700 0 l 1
 616 0 l 2xdc
396 -225 m 1
 309 -131 l 1
 396 -38 l 1
 482 -131 l 1
 396 -225 l 1
EndSplineSet
Validated: 33
EndChar

StartChar: uniFEA0
Encoding: 65184 65184 40
Width: 700
GlyphClass: 2
Flags: MW
HStem: 0 140<0 185 185 194 0 185 678 700> 373 137<294.5 323.5>
VStem: 574 46
AnchorPoint: "Anchor-1" 380 780 basechar 0
AnchorPoint: "Anchor-0" 420 -500 basechar 0
LayerCount: 2
Fore
SplineSet
678 140 m 2
 700 140 l 1
 700 0 l 1
 678 0 l 2
 590 0 575 123 574 191 c 1
 557 167 533 139 494 106 c 0
 376 5 277 0 194 0 c 2
 0 0 l 1
 0 140 l 1
 185 140 l 2
 241 140 404 144 510 223 c 0
 553 255 572 289 574 302 c 1
 435 361 351 373 296 373 c 0
 230 373 173 356 109 311 c 1
 101 317 l 1
 144 450 l 1
 202 490 263 510 326 510 c 0
 458 510 565 421 691 403 c 1
 665 273 l 1
 644 271 631 265 620 254 c 1
 620 249 l 2
 620 186 620 140 678 140 c 2
264 -260 m 1
 351 -167 l 1
 437 -260 l 1
 351 -354 l 1
 264 -260 l 1
EndSplineSet
Validated: 1
EndChar

StartChar: uniFE9F
Encoding: 65183 65183 41
Width: 700
GlyphClass: 2
Flags: MW
HStem: 0 140<0 185 0 185 185 194> 373 137<294.5 323.5>
VStem: 0 691<0 403 140 403>
AnchorPoint: "Anchor-1" 380 780 basechar 0
AnchorPoint: "Anchor-0" 420 -500 basechar 0
LayerCount: 2
Fore
SplineSet
0 0 m 1
 0 140 l 1
 185 140 l 2
 241 140 404 144 510 223 c 0
 553 255 572 289 574 302 c 1
 435 361 351 373 296 373 c 0
 230 373 173 356 109 311 c 1
 101 317 l 1
 144 450 l 1
 202 490 263 510 326 510 c 0
 458 510 565 421 691 403 c 1
 665 273 l 1
 593 267 613 207 494 106 c 0
 376 5 277 0 194 0 c 2
 0 0 l 1
351 -354 m 1
 264 -260 l 1
 351 -167 l 1
 437 -260 l 1
 351 -354 l 1
EndSplineSet
Validated: 1
EndChar

StartChar: uni0686
Encoding: 1670 1670 42
Width: 700
GlyphClass: 2
Flags: MW
HStem: -486 136<297.5 408.5> 345 140<280.5 340.5>
VStem: 33 110<-218 -63>
AnchorPoint: "Anchor-1" 350 677 basechar 0
AnchorPoint: "Anchor-0" 420 -560 basechar 0
LayerCount: 2
Fore
SplineSet
364 -350 m 0
 461 -350 564 -317 622 -282 c 1
 637 -300 l 1
 582 -400 488 -486 329 -486 c 0
 141 -486 33 -365 33 -181 c 0
 33 55 211 232 525 280 c 1
 445 315 380 345 301 345 c 0
 229 345 151 320 88 283 c 1
 80 289 l 1
 123 425 l 1
 180 468 249 485 312 485 c 0
 462 485 494 390 664 390 c 1
 666 346 633 277 625 256 c 1
 526 263 143 145 143 -148 c 0
 143 -288 231 -350 364 -350 c 0
281 4 m 1
 356 84 l 1
 430 4 l 1
 356 -77 l 1
 281 4 l 1
595 4 m 1
 522 -77 l 1
 447 4 l 1
 522 84 l 1
 595 4 l 1
511 -164 m 1
 437 -245 l 1
 362 -164 l 1
 437 -84 l 1
 511 -164 l 1
EndSplineSet
Validated: 33
Substitution2: "'fina' Terminal Forms lookup 31 subtable" uniFB7B
Substitution2: "'medi' Medial Forms lookup 30 subtable" uniFB7D
Substitution2: "'init' Initial Forms lookup 29 subtable" uniFB7C
AlternateSubs2: "'aalt' Access All Alternates lookup 1 subtable" uniFB7C uniFB7D uniFB7B
EndChar

StartChar: uniFB7B
Encoding: 64379 64379 43
Width: 700
GlyphClass: 2
Flags: MW
HStem: -486 136<297.5 408.5> 0 140<574 616 616 700> 256 134 345 140<280.5 340.5>
VStem: 33 110<-218 -63> 437 263
AnchorPoint: "Anchor-1" 350 700 basechar 0
AnchorPoint: "Anchor-0" 420 -530 basechar 0
LayerCount: 2
Fore
SplineSet
700 0 m 1xdc
 616 0 l 2
 515 0 444 73 437 212 c 1
 298 154 143 39 143 -148 c 0
 143 -288 231 -350 364 -350 c 0
 461 -350 564 -317 622 -282 c 1
 637 -300 l 1
 582 -400 488 -486 329 -486 c 0
 141 -486 33 -365 33 -181 c 0
 33 55 211 232 525 280 c 1
 445 315 380 345 301 345 c 0
 229 345 151 320 88 283 c 1
 80 289 l 1
 123 425 l 1
 180 468 249 485 312 485 c 0xdc
 462 485 494 390 664 390 c 1
 666 346 633 277 625 256 c 1xec
 596 258 544 250 485 230 c 1
 500 164 537 140 574 140 c 2
 700 140 l 1
 700 0 l 1xdc
247 -58 m 1
 313 13 l 1
 379 -58 l 1
 313 -130 l 1
 247 -58 l 1
526 -58 m 1
 460 -130 l 1
 394 -58 l 1
 460 13 l 1
 526 -58 l 1
451 -208 m 1
 385 -280 l 1
 319 -208 l 1
 385 -137 l 1
 451 -208 l 1
EndSplineSet
Validated: 33
EndChar

StartChar: uniFB7D
Encoding: 64381 64381 44
Width: 700
GlyphClass: 2
Flags: MW
HStem: 0 140<0 185 185 194 0 185 678 700> 373 137<294.5 323.5>
VStem: 574 46
AnchorPoint: "Anchor-1" 380 780 basechar 0
AnchorPoint: "Anchor-0" 380 -580 basechar 0
LayerCount: 2
Fore
SplineSet
678 140 m 2
 700 140 l 1
 700 0 l 1
 678 0 l 2
 590 0 575 123 574 191 c 1
 557 167 533 139 494 106 c 0
 376 5 277 0 194 0 c 2
 0 0 l 1
 0 140 l 1
 185 140 l 2
 241 140 404 144 510 223 c 0
 553 255 572 289 574 302 c 1
 435 361 351 373 296 373 c 0
 230 373 173 356 109 311 c 1
 101 317 l 1
 144 450 l 1
 202 490 263 510 326 510 c 0
 458 510 565 421 691 403 c 1
 665 273 l 1
 644 271 631 265 620 254 c 1
 620 249 l 2
 620 186 620 140 678 140 c 2
269 -134 m 1
 351 -223 l 1
 269 -313 l 1
 186 -223 l 1
 269 -134 l 1
370 -223 m 1
 453 -134 l 1
 535 -223 l 1
 453 -313 l 1
 370 -223 l 1
276 -410 m 1
 359 -321 l 1
 441 -410 l 1
 359 -500 l 1
 276 -410 l 1
EndSplineSet
Validated: 1
EndChar

StartChar: uniFB7C
Encoding: 64380 64380 45
Width: 700
GlyphClass: 2
Flags: MW
HStem: 0 140<0 185 0 185 185 194> 373 137<294.5 323.5>
VStem: 0 691<0 403 140 403>
AnchorPoint: "Anchor-1" 350 700 basechar 0
AnchorPoint: "Anchor-0" 460 -530 basechar 0
LayerCount: 2
Fore
SplineSet
0 0 m 1
 0 140 l 1
 185 140 l 2
 241 140 404 144 510 223 c 0
 553 255 572 289 574 302 c 1
 435 361 351 373 296 373 c 0
 230 373 173 356 109 311 c 1
 101 317 l 1
 144 450 l 1
 202 490 263 510 326 510 c 0
 458 510 565 421 691 403 c 1
 665 273 l 1
 593 267 613 207 494 106 c 0
 376 5 277 0 194 0 c 2
 0 0 l 1
269 -313 m 1
 186 -223 l 1
 269 -134 l 1
 351 -223 l 1
 269 -313 l 1
453 -313 m 1
 370 -223 l 1
 453 -134 l 1
 535 -223 l 1
 453 -313 l 1
359 -500 m 1
 276 -410 l 1
 359 -321 l 1
 441 -410 l 1
 359 -500 l 1
EndSplineSet
Validated: 1
EndChar

StartChar: uni062D
Encoding: 1581 1581 46
Width: 700
GlyphClass: 2
Flags: MW
HStem: -486 136<297.5 408.5> 345 140<280.5 340.5>
VStem: 33 110<-218 -63>
AnchorPoint: "Anchor-1" 350 700 basechar 0
AnchorPoint: "Anchor-0" 420 -530 basechar 0
LayerCount: 2
Fore
SplineSet
364 -350 m 0
 461 -350 564 -317 622 -282 c 1
 637 -300 l 1
 582 -400 488 -486 329 -486 c 0
 141 -486 33 -365 33 -181 c 0
 33 55 211 232 525 280 c 1
 445 315 380 345 301 345 c 0
 229 345 151 320 88 283 c 1
 80 289 l 1
 123 425 l 1
 180 468 249 485 312 485 c 0
 462 485 494 390 664 390 c 1
 666 346 633 277 625 256 c 1
 526 263 143 145 143 -148 c 0
 143 -288 231 -350 364 -350 c 0
EndSplineSet
Validated: 33
Substitution2: "'fina' Terminal Forms lookup 31 subtable" uniFEA2
Substitution2: "'medi' Medial Forms lookup 30 subtable" uniFEA4
Substitution2: "'init' Initial Forms lookup 29 subtable" uniFEA3
AlternateSubs2: "'aalt' Access All Alternates lookup 1 subtable" uniFEA3 uniFEA4 uniFEA2
EndChar

StartChar: uniFEA2
Encoding: 65186 65186 47
Width: 700
GlyphClass: 2
Flags: MW
HStem: -486 136<297.5 408.5> 0 140<574 616 616 700> 256 134 345 140<280.5 340.5>
VStem: 33 110<-218 -63> 437 263
AnchorPoint: "Anchor-1" 350 700 basechar 0
AnchorPoint: "Anchor-0" 420 -530 basechar 0
LayerCount: 2
Fore
SplineSet
437 212 m 1xdc
 298 154 143 39 143 -148 c 0
 143 -288 231 -350 364 -350 c 0
 461 -350 564 -317 622 -282 c 1
 637 -300 l 1
 582 -400 488 -486 329 -486 c 0
 141 -486 33 -365 33 -181 c 0
 33 55 211 232 525 280 c 1
 445 315 380 345 301 345 c 0
 229 345 151 320 88 283 c 1
 80 289 l 1
 123 425 l 1
 180 468 249 485 312 485 c 0xdc
 462 485 494 390 664 390 c 1
 666 346 633 277 625 256 c 1xec
 596 258 544 250 485 230 c 1
 500 164 537 140 574 140 c 2
 700 140 l 1
 700 0 l 1
 616 0 l 2
 515 0 444 73 437 212 c 1xdc
EndSplineSet
Validated: 33
EndChar

StartChar: uniFEA4
Encoding: 65188 65188 48
Width: 700
GlyphClass: 2
Flags: MW
HStem: 0 140<0 185 185 194 0 185 678 700> 373 137<294.5 323.5>
VStem: 574 46
AnchorPoint: "Anchor-1" 323 659 basechar 0
AnchorPoint: "Anchor-0" 450 -110 basechar 0
LayerCount: 2
Fore
SplineSet
678 140 m 2
 700 140 l 1
 700 0 l 1
 678 0 l 2
 590 0 575 123 574 191 c 1
 557 167 533 139 494 106 c 0
 376 5 277 0 194 0 c 2
 0 0 l 1
 0 140 l 1
 185 140 l 2
 241 140 404 144 510 223 c 0
 553 255 572 289 574 302 c 1
 435 361 351 373 296 373 c 0
 230 373 173 356 109 311 c 1
 101 317 l 1
 144 450 l 1
 202 490 263 510 326 510 c 0
 458 510 565 421 691 403 c 1
 665 273 l 1
 644 271 631 265 620 254 c 1
 620 249 l 2
 620 186 620 140 678 140 c 2
EndSplineSet
Validated: 1
EndChar

StartChar: uniFEA3
Encoding: 65187 65187 49
Width: 700
GlyphClass: 2
Flags: MW
HStem: 0 140<0 185 0 185 185 194> 373 137<294.5 323.5>
VStem: 0 691<0 403 140 403>
AnchorPoint: "Anchor-1" 416 733 basechar 0
AnchorPoint: "Anchor-0" 420 -110 basechar 0
LayerCount: 2
Fore
SplineSet
0 0 m 1
 0 140 l 1
 185 140 l 2
 241 140 404 144 510 223 c 0
 553 255 572 289 574 302 c 1
 435 361 351 373 296 373 c 0
 230 373 173 356 109 311 c 1
 101 317 l 1
 144 450 l 1
 202 490 263 510 326 510 c 0
 458 510 565 421 691 403 c 1
 665 273 l 1
 593 267 613 207 494 106 c 0
 376 5 277 0 194 0 c 2
 0 0 l 1
EndSplineSet
Validated: 1
EndChar

StartChar: uni062E
Encoding: 1582 1582 50
Width: 700
GlyphClass: 2
Flags: MW
HStem: -486 136<297.5 408.5> 345 140<280.5 340.5>
VStem: 33 110<-218 -63>
AnchorPoint: "Anchor-1" 350 910 basechar 0
AnchorPoint: "Anchor-0" 420 -530 basechar 0
LayerCount: 2
Fore
SplineSet
436 700 m 1
 350 606 l 1
 263 700 l 1
 350 793 l 1
 436 700 l 1
364 -350 m 0
 461 -350 564 -317 622 -282 c 1
 637 -300 l 1
 582 -400 488 -486 329 -486 c 0
 141 -486 33 -365 33 -181 c 0
 33 55 211 232 525 280 c 1
 445 315 380 345 301 345 c 0
 229 345 151 320 88 283 c 1
 80 289 l 1
 123 425 l 1
 180 468 249 485 312 485 c 0
 462 485 494 390 664 390 c 1
 666 346 633 277 625 256 c 1
 526 263 143 145 143 -148 c 0
 143 -288 231 -350 364 -350 c 0
EndSplineSet
Validated: 33
Substitution2: "'fina' Terminal Forms lookup 31 subtable" uniFEA6
Substitution2: "'medi' Medial Forms lookup 30 subtable" uniFEA8
Substitution2: "'init' Initial Forms lookup 29 subtable" uniFEA7
AlternateSubs2: "'aalt' Access All Alternates lookup 1 subtable" uniFEA7 uniFEA8 uniFEA6
EndChar

StartChar: uniFEA6
Encoding: 65190 65190 51
Width: 700
GlyphClass: 2
Flags: MW
HStem: -486 136<297.5 408.5> 0 140<574 616 616 700> 256 134 345 140<280.5 340.5>
VStem: 33 110<-218 -63>
AnchorPoint: "Anchor-1" 350 910 basechar 0
AnchorPoint: "Anchor-0" 420 -530 basechar 0
LayerCount: 2
Fore
SplineSet
436 700 m 1xd8
 350 606 l 1
 263 700 l 1
 350 793 l 1
 436 700 l 1xd8
437 212 m 1
 298 154 143 39 143 -148 c 0
 143 -288 231 -350 364 -350 c 0
 461 -350 564 -317 622 -282 c 1
 637 -300 l 1
 582 -400 488 -486 329 -486 c 0
 141 -486 33 -365 33 -181 c 0
 33 55 211 232 525 280 c 1
 445 315 380 345 301 345 c 0
 229 345 151 320 88 283 c 1
 80 289 l 1
 123 425 l 1
 180 468 249 485 312 485 c 0xd8
 462 485 494 390 664 390 c 1
 666 346 633 277 625 256 c 1xe8
 596 258 544 250 485 230 c 1
 500 164 537 140 574 140 c 2
 700 140 l 1
 700 0 l 1
 616 0 l 2
 515 0 444 73 437 212 c 1
EndSplineSet
Validated: 33
EndChar

StartChar: uniFEA8
Encoding: 65192 65192 52
Width: 700
GlyphClass: 2
Flags: MW
HStem: 0 140<0 185 185 194 0 185 678 700> 373 137<294.5 323.5>
VStem: 574 46
AnchorPoint: "Anchor-1" 380 920 basechar 0
AnchorPoint: "Anchor-0" 418 -136 basechar 0
LayerCount: 2
Fore
SplineSet
476 720 m 1
 390 626 l 1
 303 720 l 1
 390 813 l 1
 476 720 l 1
678 140 m 2
 700 140 l 1
 700 0 l 1
 678 0 l 2
 590 0 575 123 574 191 c 1
 557 167 533 139 494 106 c 0
 376 5 277 0 194 0 c 2
 0 0 l 1
 0 140 l 1
 185 140 l 2
 241 140 404 144 510 223 c 0
 553 255 572 289 574 302 c 1
 435 361 351 373 296 373 c 0
 230 373 173 356 109 311 c 1
 101 317 l 1
 144 450 l 1
 202 490 263 510 326 510 c 0
 458 510 565 421 691 403 c 1
 665 273 l 1
 644 271 631 265 620 254 c 1
 620 249 l 2
 620 186 620 140 678 140 c 2
EndSplineSet
Validated: 1
EndChar

StartChar: uniFEA7
Encoding: 65191 65191 53
Width: 700
GlyphClass: 2
Flags: MW
HStem: 0 140<0 185 0 185 185 194> 373 137<294.5 323.5>
VStem: 0 691<0 403 140 403>
AnchorPoint: "Anchor-1" 380 920 basechar 0
AnchorPoint: "Anchor-0" 420 -110 basechar 0
LayerCount: 2
Fore
SplineSet
350 626 m 1
 263 720 l 1
 350 813 l 1
 436 720 l 1
 350 626 l 1
0 0 m 1
 0 140 l 1
 185 140 l 2
 241 140 404 144 510 223 c 0
 553 255 572 289 574 302 c 1
 435 361 351 373 296 373 c 0
 230 373 173 356 109 311 c 1
 101 317 l 1
 144 450 l 1
 202 490 263 510 326 510 c 0
 458 510 565 421 691 403 c 1
 665 273 l 1
 593 267 613 207 494 106 c 0
 376 5 277 0 194 0 c 2
 0 0 l 1
EndSplineSet
Validated: 1
EndChar

StartChar: uni062F
Encoding: 1583 1583 54
Width: 700
GlyphClass: 2
Flags: MW
HStem: 0 140
VStem: 497 95<194 194>
AnchorPoint: "Anchor-1" 340 800 basechar 0
AnchorPoint: "Anchor-0" 450 -110 basechar 0
LayerCount: 2
Fore
SplineSet
256 0 m 2
 165 0 121 19 121 78 c 0
 121 101 128 166 153 166 c 0
 168 166 175 141 229 140 c 0
 281 139 465 136 489 151 c 0
 500 158 498 184 497 194 c 0
 485 306 367 401 288 469 c 1
 356 596 l 1
 539 451 592 323 592 193 c 0
 592 140 583 68 574 49 c 0
 561 22 506 0 430 0 c 2
 256 0 l 2
EndSplineSet
Validated: 33
Substitution2: "'fina' Terminal Forms lookup 31 subtable" uniFEAA
Substitution2: "'aalt' Access All Alternates lookup 0 subtable" uniFEAA
EndChar

StartChar: uniFEAA
Encoding: 65194 65194 55
Width: 700
GlyphClass: 2
Flags: MW
HStem: 0 140<616 700> 595 20G<450 450>
VStem: 92 608<43 95.5>
AnchorPoint: "Anchor-1" 350 800 basechar 0
AnchorPoint: "Anchor-0" 450 -120 basechar 0
LayerCount: 2
Fore
SplineSet
194 0 m 0
 142 2 92 5 92 81 c 0
 92 110 99 176 124 176 c 0
 142 176 163 140 228 140 c 2
 280 140 l 2
 353 140 406 141 406 222 c 0
 406 284 375 363 339 503 c 1
 450 615 l 1
 493 416 520 244 530 205 c 0
 539 168 561 140 616 140 c 2
 700 140 l 1
 700 0 l 1
 616 0 l 2
 578 0 439 0 421 140 c 1
 383 11 324 -4 194 0 c 0
EndSplineSet
Validated: 33
EndChar

StartChar: uni0630
Encoding: 1584 1584 56
Width: 700
GlyphClass: 2
Flags: MW
HStem: 0 140
VStem: 497 95<194 194>
AnchorPoint: "Anchor-1" 340 1000 basechar 0
AnchorPoint: "Anchor-0" 450 -110 basechar 0
LayerCount: 2
Fore
SplineSet
297 665 m 1
 210 759 l 1
 297 852 l 1
 383 759 l 1
 297 665 l 1
256 0 m 2
 165 0 121 19 121 78 c 0
 121 101 128 166 153 166 c 0
 168 166 175 141 229 140 c 0
 281 139 465 136 489 151 c 0
 500 158 498 184 497 194 c 0
 485 306 367 401 288 469 c 1
 356 596 l 1
 539 451 592 323 592 193 c 0
 592 140 583 68 574 49 c 0
 561 22 506 0 430 0 c 2
 256 0 l 2
EndSplineSet
Validated: 33
Substitution2: "'fina' Terminal Forms lookup 31 subtable" uniFEAC
Substitution2: "'aalt' Access All Alternates lookup 0 subtable" uniFEAC
EndChar

StartChar: uniFEAC
Encoding: 65196 65196 57
Width: 700
GlyphClass: 2
Flags: MW
HStem: 0 140<616 700> 595 20G<450 450>
VStem: 92 608<43 95.5>
AnchorPoint: "Anchor-1" 340 960 basechar 0
AnchorPoint: "Anchor-0" 450 -120 basechar 0
LayerCount: 2
Fore
SplineSet
345 660 m 1
 258 754 l 1
 345 847 l 1
 431 754 l 1
 345 660 l 1
194 0 m 0
 142 2 92 5 92 81 c 0
 92 110 99 176 124 176 c 0
 142 176 163 140 228 140 c 2
 280 140 l 2
 353 140 406 141 406 222 c 0
 406 284 375 363 339 503 c 1
 450 615 l 1
 493 416 520 244 530 205 c 0
 539 168 561 140 616 140 c 2
 700 140 l 1
 700 0 l 1
 616 0 l 2
 578 0 439 0 421 140 c 1
 383 11 324 -4 194 0 c 0
EndSplineSet
Validated: 33
EndChar

StartChar: uni0688
Encoding: 1672 1672 58
Width: 700
GlyphClass: 2
Flags: MW
HStem: 0 140 742 67<269 340> 891 62<377 391>
VStem: 236 23 426 40<829 854.5> 497 95<194 194>
AnchorPoint: "Anchor-1" 350 1140 basechar 0
AnchorPoint: "Anchor-0" 450 -110 basechar 0
LayerCount: 2
Fore
SplineSet
466 845 m 0
 466 767 421 742 340 742 c 2
 180 742 l 1
 180 793 197 805 207 805 c 0
 211 805 217 805 223 807 c 0
 234 821 237 840 236 872 c 0
 233 953 230 1029 215 1055 c 1
 265 1099 l 1
 289 1036 l 1
 262 1007 265 910 259 843 c 1
 303 909 356 953 398 953 c 0
 443 953 466 901 466 845 c 0
378 891 m 0
 347 891 307 851 269 809 c 1
 364 809 l 2
 404 809 426 816 426 842 c 0
 426 867 404 891 378 891 c 0
356 596 m 1
 539 451 592 323 592 193 c 0
 592 140 583 68 574 49 c 0
 561 22 506 0 430 0 c 2
 256 0 l 2
 165 0 121 19 121 78 c 0
 121 101 128 166 153 166 c 0
 168 166 175 141 229 140 c 0
 281 139 465 136 489 151 c 0
 500 158 498 184 497 194 c 0
 485 306 367 401 288 469 c 1
 356 596 l 1
EndSplineSet
Validated: 33
Substitution2: "'fina' Terminal Forms lookup 31 subtable" uniFB89
Substitution2: "'aalt' Access All Alternates lookup 0 subtable" uniFB89
EndChar

StartChar: uniFB89
Encoding: 64393 64393 59
Width: 700
GlyphClass: 2
Flags: MW
HStem: 0 140<616 700> 595 20G<450 450> 722 67<290 361> 871 62<398 412>
VStem: 257 23 447 40<809 834.5>
AnchorPoint: "Anchor-1" 350 1120 basechar 0
AnchorPoint: "Anchor-0" 450 -120 basechar 0
LayerCount: 2
Fore
SplineSet
487 825 m 0
 487 747 442 722 361 722 c 2
 201 722 l 1
 201 773 218 785 228 785 c 0
 232 785 238 785 244 787 c 0
 255 801 258 820 257 852 c 0
 254 933 251 1009 236 1035 c 1
 286 1079 l 1
 310 1016 l 1
 283 987 286 890 280 823 c 1
 324 889 377 933 419 933 c 0
 464 933 487 881 487 825 c 0
399 871 m 0
 368 871 328 831 290 789 c 1
 385 789 l 2
 425 789 447 796 447 822 c 0
 447 847 425 871 399 871 c 0
616 140 m 2
 700 140 l 1
 700 0 l 1
 616 0 l 2
 578 0 439 0 421 140 c 1
 383 11 324 -4 194 0 c 0
 142 2 92 5 92 81 c 0
 92 110 99 176 124 176 c 0
 142 176 163 140 228 140 c 2
 280 140 l 2
 353 140 406 141 406 222 c 0
 406 284 375 363 339 503 c 1
 450 615 l 1
 493 416 520 244 530 205 c 0
 539 168 561 140 616 140 c 2
EndSplineSet
Validated: 33
EndChar

StartChar: uni0631
Encoding: 1585 1585 60
Width: 700
GlyphClass: 2
Flags: MW
HStem: -356 90<73 328.5> 417 20G<427 427>
VStem: 477 85<82 107.5>
AnchorPoint: "Anchor-1" 350 600 basechar 0
AnchorPoint: "Anchor-0" 450 -500 basechar 0
LayerCount: 2
Fore
SplineSet
209 -356 m 0
 180 -356 152 -353 73 -317 c 1
 73 -266 l 1
 134 -266 l 2
 172 -266 246 -252 317 -199 c 0
 452 -99 477 71 477 93 c 0
 477 122 432 200 366 307 c 1
 427 437 l 1
 529 282 562 228 562 97 c 0
 562 -147 448 -356 209 -356 c 0
EndSplineSet
Validated: 1
Substitution2: "'fina' Terminal Forms lookup 31 subtable" uniFEAE
Substitution2: "'aalt' Access All Alternates lookup 0 subtable" uniFEAE
EndChar

StartChar: uniFEAE
Encoding: 65198 65198 61
Width: 700
GlyphClass: 2
Flags: MW
HStem: -360 94<55 214.5> 0 140<637 657 657 700>
VStem: 447 55.08
AnchorPoint: "Anchor-1" 350 650 basechar 0
AnchorPoint: "Anchor-0" 480 -450 basechar 0
LayerCount: 2
Fore
SplineSet
185 -360 m 0
 144 -360 99 -353 55 -317 c 1
 55 -266 l 1
 183 -266 232 -232 278 -191 c 0
 346 -130 447 -11 447 73 c 0
 447 151 359 280 345 303 c 1
 446 404 l 1
 478 341 522 140 637 140 c 2
 700 140 l 1
 700 0 l 1
 657 0 l 2
 601 0 553 15 499 61 c 1
 517 -42 455 -233 358 -308 c 0
 310 -345 244 -360 185 -360 c 0
EndSplineSet
Validated: 33
Substitution2: "Single Substitution lookup 54 subtable" uniFEAE.rehAlef
Substitution2: "'aalt' Access All Alternates lookup 0 subtable" uniFEAE.rehAlef
EndChar

StartChar: uniFEAE.rehAlef
Encoding: 1114208 -1 62
Width: 700
GlyphClass: 2
Flags: MW
HStem: -360 94<-145 14.5> 0 140<437 457 457 700>
VStem: 247 55.08
AnchorPoint: "Anchor-1" 230 600 basechar 0
AnchorPoint: "Anchor-0" 370 -450 basechar 0
LayerCount: 2
Fore
SplineSet
700 140 m 1
 700 0 l 1
 457 0 l 2
 401 0 353 15 299 61 c 1
 317 -42 255 -233 158 -308 c 0
 110 -345 44 -360 -15 -360 c 0
 -56 -360 -101 -353 -145 -317 c 1
 -145 -266 l 1
 -17 -266 32 -232 78 -191 c 0
 146 -130 247 -11 247 73 c 0
 247 151 159 280 145 303 c 1
 246 404 l 1
 278 341 322 140 437 140 c 2
 700 140 l 1
EndSplineSet
Validated: 33
EndChar

StartChar: uni0632
Encoding: 1586 1586 63
Width: 700
GlyphClass: 2
Flags: MW
HStem: -356 90<73 328.5> 417 20G<427 427>
VStem: 477 85<82 107.5>
AnchorPoint: "Anchor-1" 350 900 basechar 0
AnchorPoint: "Anchor-0" 450 -500 basechar 0
LayerCount: 2
Fore
SplineSet
316 546 m 1
 229 640 l 1
 316 733 l 1
 402 640 l 1
 316 546 l 1
209 -356 m 0
 180 -356 152 -353 73 -317 c 1
 73 -266 l 1
 134 -266 l 2
 172 -266 246 -252 317 -199 c 0
 452 -99 477 71 477 93 c 0
 477 122 432 200 366 307 c 1
 427 437 l 1
 529 282 562 228 562 97 c 0
 562 -147 448 -356 209 -356 c 0
EndSplineSet
Validated: 1
Substitution2: "'fina' Terminal Forms lookup 31 subtable" uniFEB0
Substitution2: "'aalt' Access All Alternates lookup 0 subtable" uniFEB0
EndChar

StartChar: uniFEB0
Encoding: 65200 65200 64
Width: 700
GlyphClass: 2
Flags: MW
HStem: -360 94<55 214.5> 0 140<637 657 657 700> 590 20G<263 263 436 436>
VStem: 447 55.08
AnchorPoint: "Anchor-1" 350 900 basechar 0
AnchorPoint: "Anchor-0" 480 -450 basechar 0
LayerCount: 2
Fore
SplineSet
350 516 m 1
 263 610 l 1
 350 703 l 1
 436 610 l 1
 350 516 l 1
185 -360 m 0
 144 -360 99 -353 55 -317 c 1
 55 -266 l 1
 183 -266 232 -232 278 -191 c 0
 346 -130 447 -11 447 73 c 0
 447 151 359 280 345 303 c 1
 446 404 l 1
 478 341 522 140 637 140 c 2
 700 140 l 1
 700 0 l 1
 657 0 l 2
 601 0 553 15 499 61 c 1
 517 -42 455 -233 358 -308 c 0
 310 -345 244 -360 185 -360 c 0
EndSplineSet
Validated: 33
Substitution2: "Single Substitution lookup 54 subtable" uniFEB0.zainAlef
Substitution2: "'aalt' Access All Alternates lookup 0 subtable" uniFEB0.zainAlef
EndChar

StartChar: uniFEB0.zainAlef
Encoding: 1114209 -1 65
Width: 700
GlyphClass: 2
Flags: MW
HStem: -360 94<-145 14.5> 0 140<437 457 457 700> 590 20G<34 34 207 207>
VStem: 247 55.08
AnchorPoint: "Anchor-1" 100 900 basechar 0
AnchorPoint: "Anchor-0" 340 -450 basechar 0
LayerCount: 2
Fore
SplineSet
207 610 m 1
 121 516 l 1
 34 610 l 1
 121 703 l 1
 207 610 l 1
700 140 m 1
 700 0 l 1
 457 0 l 2
 401 0 353 15 299 61 c 1
 317 -42 255 -233 158 -308 c 0
 110 -345 44 -360 -15 -360 c 0
 -56 -360 -101 -353 -145 -317 c 1
 -145 -266 l 1
 -17 -266 32 -232 78 -191 c 0
 146 -130 247 -11 247 73 c 0
 247 151 159 280 145 303 c 1
 246 404 l 1
 278 341 322 140 437 140 c 2
 700 140 l 1
EndSplineSet
Validated: 33
EndChar

StartChar: uni0691
Encoding: 1681 1681 66
Width: 700
GlyphClass: 2
Flags: MW
HStem: -356 90<73 328.5> 417 20G<427 427> 605 67<335 406> 754 62<443 457>
VStem: 302 23 477 85<82 107.5> 492 40<692 717.5>
AnchorPoint: "Anchor-1" 370 1050 basechar 0
AnchorPoint: "Anchor-0" 450 -500 basechar 0
LayerCount: 2
Fore
SplineSet
532 708 m 0xfa
 532 630 487 605 406 605 c 2
 246 605 l 1
 246 656 263 668 273 668 c 0
 277 668 283 668 289 670 c 0
 300 684 303 703 302 735 c 0
 299 816 296 892 281 918 c 1
 331 962 l 1
 355 899 l 1
 328 870 331 773 325 706 c 1
 369 772 422 816 464 816 c 0
 509 816 532 764 532 708 c 0xfa
444 754 m 0
 413 754 373 714 335 672 c 1
 430 672 l 2
 470 672 492 679 492 705 c 0
 492 730 470 754 444 754 c 0
427 437 m 1xfc
 529 282 562 228 562 97 c 0
 562 -147 448 -356 209 -356 c 0
 180 -356 152 -353 73 -317 c 1
 73 -266 l 1
 134 -266 l 2
 172 -266 246 -252 317 -199 c 0
 452 -99 477 71 477 93 c 0
 477 122 432 200 366 307 c 1
 427 437 l 1xfc
EndSplineSet
Validated: 33
Substitution2: "'fina' Terminal Forms lookup 31 subtable" uniFB8D
Substitution2: "'aalt' Access All Alternates lookup 0 subtable" uniFB8D
EndChar

StartChar: uniFB8D
Encoding: 64397 64397 67
Width: 700
GlyphClass: 2
Flags: MW
HStem: -360 94<55 214.5> 0 140<637 657 657 700> 604 67<327 398> 753 62<435 449>
VStem: 294 23 447 55.08 484 40<691 716.5>
AnchorPoint: "Anchor-1" 350 1050 basechar 0
AnchorPoint: "Anchor-0" 480 -450 basechar 0
LayerCount: 2
Fore
SplineSet
524 707 m 0x7a
 524 629 479 604 398 604 c 2
 238 604 l 1
 238 655 255 667 265 667 c 0
 269 667 275 667 281 669 c 0
 292 683 295 702 294 734 c 0
 291 815 288 891 273 917 c 1
 323 961 l 1
 347 898 l 1
 320 869 323 772 317 705 c 1
 361 771 414 815 456 815 c 0
 501 815 524 763 524 707 c 0x7a
436 753 m 0
 405 753 365 713 327 671 c 1
 422 671 l 2
 462 671 484 678 484 704 c 0
 484 729 462 753 436 753 c 0
637 140 m 2
 700 140 l 1
 700 0 l 1
 657 0 l 2
 601 0 553 15 499 61 c 1
 517 -42 455 -233 358 -308 c 0
 310 -345 244 -360 185 -360 c 0
 144 -360 99 -353 55 -317 c 1
 55 -266 l 1
 183 -266 232 -232 278 -191 c 0
 346 -130 447 -11 447 73 c 0xec
 447 151 359 280 345 303 c 1
 446 404 l 1
 478 341 522 140 637 140 c 2
EndSplineSet
Validated: 33
EndChar

StartChar: uni0698
Encoding: 1688 1688 68
Width: 700
GlyphClass: 2
Flags: MW
HStem: -356 90<73 328.5> 417 20G<427 427> 586 20G<200 200 373 373 402 402 575 575>
VStem: 477 85<82 107.5>
AnchorPoint: "Anchor-1" 370 1050 basechar 0
AnchorPoint: "Anchor-0" 450 -500 basechar 0
LayerCount: 2
Fore
SplineSet
372 700 m 1
 285 794 l 1
 372 887 l 1
 458 794 l 1
 372 700 l 1
287 512 m 1
 200 606 l 1
 287 699 l 1
 373 606 l 1
 287 512 l 1
489 512 m 1
 402 606 l 1
 489 699 l 1
 575 606 l 1
 489 512 l 1
209 -356 m 0
 180 -356 152 -353 73 -317 c 1
 73 -266 l 1
 134 -266 l 2
 172 -266 246 -252 317 -199 c 0
 452 -99 477 71 477 93 c 0
 477 122 432 200 366 307 c 1
 427 437 l 1
 529 282 562 228 562 97 c 0
 562 -147 448 -356 209 -356 c 0
EndSplineSet
Validated: 1
Substitution2: "'fina' Terminal Forms lookup 31 subtable" uniFB8B
Substitution2: "'aalt' Access All Alternates lookup 0 subtable" uniFB8B
EndChar

StartChar: uniFB8B
Encoding: 64395 64395 69
Width: 700
GlyphClass: 2
Flags: MW
HStem: -360 94<55 214.5> 0 140<637 657 657 700> 591 20G<183 183 356 356 385 385 558 558> 872 20G<355 355>
VStem: 447 55.08
AnchorPoint: "Anchor-1" 350 1050 basechar 0
AnchorPoint: "Anchor-0" 480 -450 basechar 0
LayerCount: 2
Fore
SplineSet
355 705 m 1
 268 799 l 1
 355 892 l 1
 441 799 l 1
 355 705 l 1
270 517 m 1
 183 611 l 1
 270 704 l 1
 356 611 l 1
 270 517 l 1
472 517 m 1
 385 611 l 1
 472 704 l 1
 558 611 l 1
 472 517 l 1
185 -360 m 0
 144 -360 99 -353 55 -317 c 1
 55 -266 l 1
 183 -266 232 -232 278 -191 c 0
 346 -130 447 -11 447 73 c 0
 447 151 359 280 345 303 c 1
 446 404 l 1
 478 341 522 140 637 140 c 2
 700 140 l 1
 700 0 l 1
 657 0 l 2
 601 0 553 15 499 61 c 1
 517 -42 455 -233 358 -308 c 0
 310 -345 244 -360 185 -360 c 0
EndSplineSet
Validated: 33
EndChar

StartChar: uni0633
Encoding: 1587 1587 70
Width: 700
GlyphClass: 2
Flags: MW
HStem: -401 140<45 139.5 45 179.5> 4 136<546 546>
VStem: -146 64<-137.5 -43.5> 252 108 422 87<185 296.5 281 296.5 281 299> 583 97<171 185 185 392 392 392>
AnchorPoint: "Anchor-1" 423 700 basechar 0
AnchorPoint: "Anchor-0" 500 -310 basechar 0
LayerCount: 2
Fore
SplineSet
583 392 m 1
 680 471 l 1
 680 185 l 2
 680 92 634 9 546 4 c 2
 528 3 l 2
 492 1 466 19 449 50 c 1
 426 27 396 11 364 4 c 1
 361 -268 262 -401 97 -401 c 0
 -59 -401 -146 -282 -146 -99 c 0
 -146 12 -114 88 -33 188 c 1
 -1 140 l 1
 -7 131 -82 45 -82 -75 c 0
 -82 -200 1 -261 89 -261 c 0
 190 -261 252 -180 252 -22 c 0
 252 81 226 169 210 223 c 1
 329 266 l 1
 346 222 355 174 360 117 c 1
 389 121 413 133 422 169 c 1
 422 185 l 1
 422 281 l 2
 422 317 437 347 464 347 c 0
 493 347 509 312 509 281 c 2
 510 159 l 2
 510 142 521 140 533 140 c 0
 563 140 583 152 583 171 c 2
 583 392 l 1
EndSplineSet
Validated: 33
Substitution2: "'fina' Terminal Forms lookup 31 subtable" uniFEB2
Substitution2: "'medi' Medial Forms lookup 30 subtable" uniFEB4
Substitution2: "'init' Initial Forms lookup 29 subtable" uniFEB3
AlternateSubs2: "'aalt' Access All Alternates lookup 1 subtable" uniFEB3 uniFEB4 uniFEB2
EndChar

StartChar: uniFEB2
Encoding: 65202 65202 71
Width: 700
GlyphClass: 2
Flags: MW
HStem: -401 140<45 139.5 45 179.5> 0 21G<683.5 700> 3.5 136.5
VStem: -146 64<-137.5 -43.5> 252 108 422 87<185 296.5 281 296.5 281 299> 583 97<177.5 185 185 392 392 392>
AnchorPoint: "Anchor-1" 390 700 basechar 0
AnchorPoint: "Anchor-0" 500 -310 basechar 0
LayerCount: 2
Fore
SplineSet
676 141 m 1xd6
 686 140 694 140 700 140 c 1
 700 0 l 1
 667 0 642 12 623 35 c 1xd6
 603 17 577 6 546 4 c 2
 528 3 l 2
 492 1 466 19 449 50 c 1
 426 27 396 11 364 4 c 1
 361 -268 262 -401 97 -401 c 0
 -59 -401 -146 -282 -146 -99 c 0
 -146 12 -114 88 -33 188 c 1
 -1 140 l 1
 -7 131 -82 45 -82 -75 c 0
 -82 -200 1 -261 89 -261 c 0
 190 -261 252 -180 252 -22 c 0
 252 81 226 169 210 223 c 1
 329 266 l 1
 346 222 355 174 360 117 c 1
 389 121 413 133 422 169 c 1
 422 185 l 1
 422 281 l 2
 422 317 437 347 464 347 c 0
 493 347 509 312 509 281 c 2
 510 159 l 2
 510 142 521 140 533 140 c 0
 563 140 583 152 583 171 c 2xbe
 583 392 l 1
 680 471 l 1
 680 185 l 2
 680 170 679 155 676 141 c 1xd6
EndSplineSet
Validated: 33
EndChar

StartChar: uniFEB4
Encoding: 65204 65204 72
Width: 700
GlyphClass: 2
Flags: MW
HStem: -4 144<219.5 245> 0 140<0 16 0 34 693 700>
VStem: 0 171<0 169.5 140 169.5> 362.25 80.87 568 87
AnchorPoint: "Anchor-1" 420 700 basechar 0
AnchorPoint: "Anchor-0" 420 -110 basechar 0
LayerCount: 2
Fore
SplineSet
640 148 m 1xb8
 656 140 686 140 700 140 c 1xb8
 700 0 l 1
 651 0 621 25 599 77 c 1
 564 32 517 0 462 0 c 0x78
 413 0 379 25 366 50 c 1
 313 -2 253 -4 237 -4 c 0xb8
 169 -4 130 23 123 76 c 1
 99 31 67 0 16 0 c 2
 0 0 l 1x78
 0 140 l 1
 34 140 l 2
 100 140 104 214 119 281 c 0
 126 313 134 329 156 329 c 0
 177 329 180 314 180 294 c 0
 180 260 171 175 171 164 c 0
 171 145 201 140 238 140 c 0
 393 140 365 226 351 348 c 0
 348 370 364 383 393 386 c 0
 430 390 432 373 439 308 c 0
 442 280 452 224 424 146 c 0
 423 144 423 142 422 140 c 1
 457 141 489 143 516 150 c 0
 555 161 574 180 578 202 c 0
 583 231 572 347 568 388 c 0
 564 426 649 447 655 390 c 0
 661 333 665 263 658 216 c 0
 655 194 648 171 640 148 c 1xb8
EndSplineSet
Validated: 33
Substitution2: "Single Substitution lookup 54 subtable" uniFEB4.seenYeh
Substitution2: "'aalt' Access All Alternates lookup 0 subtable" uniFEB4.seenYeh
EndChar

StartChar: uniFEB4.seenYeh
Encoding: 1114210 -1 73
Width: 700
GlyphClass: 2
Flags: MW
HStem: -4 144<130 205> 0 140<679 700> 230 120<0 13 0 24>
VStem: 310.35 91.63 529 101<207.5 216 216 399 399 399>
AnchorPoint: "Anchor-1" 420 700 basechar 0
AnchorPoint: "Anchor-0" 420 -110 basechar 0
LayerCount: 2
Fore
SplineSet
624 164 m 1xb8
 640 140 658 140 700 140 c 1xb8
 700 0 l 1
 647 0 616 30 594 90 c 1
 561 38 509 0 440 0 c 0x78
 378 0 344 33 336 61 c 1
 298 20 242 -4 168 -4 c 0
 91 -4 55 23 36 86 c 1
 28 134 21 182 13 230 c 1
 0 230 l 1
 0 350 l 1
 24 350 l 2
 55 350 84 317 92 215 c 0
 97 151 98 140 162 140 c 0
 338 140 316 222 301 348 c 0
 299 363 306 382 351 387 c 0
 378 390 391 387 399 307 c 0
 406 247 401 189 383 140 c 1
 433 140 473 141 498 152 c 0
 518 161 529 177 529 204 c 2
 529 399 l 1
 630 486 l 1
 630 216 l 2
 630 199 628 181 624 164 c 1xb8
EndSplineSet
Validated: 33
EndChar

StartChar: uniFEB3
Encoding: 65203 65203 74
Width: 700
GlyphClass: 2
Flags: MW
HStem: -4 144<216 261> 0 140<0 26 0 44>
VStem: 0 180<0 314 140 314> 340 92 555 101<204 216 216 399 399 399>
AnchorPoint: "Anchor-1" 420 700 basechar 0
AnchorPoint: "Anchor-0" 420 -110 basechar 0
LayerCount: 2
Fore
SplineSet
555 399 m 1x78
 656 486 l 1
 656 216 l 2
 656 115 585 0 466 0 c 0x78
 409 0 379 33 365 61 c 1
 332 22 288 -4 234 -4 c 0xb8
 168 -4 127 4 113 76 c 1
 89 31 77 0 26 0 c 2
 0 0 l 1
 0 140 l 1
 44 140 l 2
 100 140 104 224 119 291 c 0
 126 323 134 339 156 339 c 0
 177 339 180 324 180 304 c 0
 180 270 174 202 161 155 c 1
 184 141 201 140 231 140 c 0
 350 140 340 218 340 348 c 0
 340 360 353 384 388 387 c 0
 412 389 424 379 432 279 c 0
 436 234 428 185 411 140 c 1
 453 140 488 141 513 148 c 0
 540 156 555 172 555 204 c 2
 555 399 l 1x78
EndSplineSet
Validated: 33
Substitution2: "Single Substitution lookup 54 subtable" uniFEB3.seenYeh
Substitution2: "'aalt' Access All Alternates lookup 0 subtable" uniFEB3.seenYeh
EndChar

StartChar: uniFEB3.seenYeh
Encoding: 1114211 -1 75
Width: 700
GlyphClass: 2
Flags: MW
HStem: -4 144<130 205> 0 140 230 120<0 13 0 24>
VStem: 310.35 91.63 529 101<204 216 216 399 399 399>
AnchorPoint: "Anchor-1" 420 700 basechar 0
AnchorPoint: "Anchor-0" 416 -110 basechar 0
LayerCount: 2
Fore
SplineSet
529 399 m 1xb8
 630 486 l 1
 630 216 l 2
 630 115 559 0 440 0 c 0x78
 378 0 344 33 336 61 c 1
 298 20 242 -4 168 -4 c 0
 91 -4 55 23 36 86 c 1
 28 134 21 182 13 230 c 1
 0 230 l 1
 0 350 l 1
 24 350 l 2
 55 350 84 317 92 215 c 0
 97 151 98 140 162 140 c 0
 338 140 316 222 301 348 c 0
 299 363 306 382 351 387 c 0
 378 390 391 387 399 307 c 0
 406 247 401 189 383 140 c 1
 433 140 473 141 498 152 c 0
 518 161 529 177 529 204 c 2
 529 399 l 1xb8
EndSplineSet
Validated: 33
EndChar

StartChar: uni0634
Encoding: 1588 1588 76
Width: 700
GlyphClass: 2
Flags: MW
HStem: -401 140<45 139.5 45 179.5> 4 136<546 546>
VStem: -146 64<-137.5 -43.5> 252 108 422 87<185 296.5 281 296.5 281 299> 583 97<171 185 185 392 392 392>
AnchorPoint: "Anchor-1" 420 1010 basechar 0
AnchorPoint: "Anchor-0" 500 -310 basechar 0
LayerCount: 2
Fore
SplineSet
489 782 m 1
 403 688 l 1
 316 782 l 1
 403 875 l 1
 489 782 l 1
404 594 m 1
 318 500 l 1
 231 594 l 1
 318 687 l 1
 404 594 l 1
520 500 m 1
 433 594 l 1
 520 687 l 1
 606 594 l 1
 520 500 l 1
583 392 m 1
 680 471 l 1
 680 185 l 2
 680 92 634 9 546 4 c 2
 528 3 l 2
 492 1 466 19 449 50 c 1
 426 27 396 11 364 4 c 1
 361 -268 262 -401 97 -401 c 0
 -59 -401 -146 -282 -146 -99 c 0
 -146 12 -114 88 -33 188 c 1
 -1 140 l 1
 -7 131 -82 45 -82 -75 c 0
 -82 -200 1 -261 89 -261 c 0
 190 -261 252 -180 252 -22 c 0
 252 81 226 169 210 223 c 1
 329 266 l 1
 346 222 355 174 360 117 c 1
 389 121 413 133 422 169 c 1
 422 185 l 1
 422 281 l 2
 422 317 437 347 464 347 c 0
 493 347 509 312 509 281 c 2
 510 159 l 2
 510 142 521 140 533 140 c 0
 563 140 583 152 583 171 c 2
 583 392 l 1
EndSplineSet
Validated: 33
Substitution2: "'fina' Terminal Forms lookup 31 subtable" uniFEB6
Substitution2: "'medi' Medial Forms lookup 30 subtable" uniFEB8
Substitution2: "'init' Initial Forms lookup 29 subtable" uniFEB7
AlternateSubs2: "'aalt' Access All Alternates lookup 1 subtable" uniFEB7 uniFEB8 uniFEB6
EndChar

StartChar: uniFEB6
Encoding: 65206 65206 77
Width: 700
GlyphClass: 2
Flags: MW
HStem: -401 140<45 139.5 45 179.5> 0 21G<683.5 700> 3.5 136.5
VStem: -146 64<-137.5 -43.5> 252 108 422 87<185 296.5 281 296.5 281 299> 583 97<177.5 185 185 392 392 392>
AnchorPoint: "Anchor-1" 400 1010 basechar 0
AnchorPoint: "Anchor-0" 520 -300 basechar 0
LayerCount: 2
Fore
SplineSet
489 782 m 1xd6
 403 688 l 1
 316 782 l 1
 403 875 l 1
 489 782 l 1xd6
404 594 m 1
 318 500 l 1
 231 594 l 1
 318 687 l 1
 404 594 l 1
520 500 m 1
 433 594 l 1
 520 687 l 1
 606 594 l 1
 520 500 l 1
676 141 m 1
 686 140 694 140 700 140 c 1
 700 0 l 1
 667 0 642 12 623 35 c 1xd6
 603 17 577 6 546 4 c 2
 528 3 l 2
 492 1 466 19 449 50 c 1
 426 27 396 11 364 4 c 1
 361 -268 262 -401 97 -401 c 0
 -59 -401 -146 -282 -146 -99 c 0
 -146 12 -114 88 -33 188 c 1
 -1 140 l 1
 -7 131 -82 45 -82 -75 c 0
 -82 -200 1 -261 89 -261 c 0
 190 -261 252 -180 252 -22 c 0
 252 81 226 169 210 223 c 1
 329 266 l 1
 346 222 355 174 360 117 c 1
 389 121 413 133 422 169 c 1
 422 185 l 1
 422 281 l 2
 422 317 437 347 464 347 c 0
 493 347 509 312 509 281 c 2
 510 159 l 2
 510 142 521 140 533 140 c 0
 563 140 583 152 583 171 c 2xbe
 583 392 l 1
 680 471 l 1
 680 185 l 2
 680 170 679 155 676 141 c 1
EndSplineSet
Validated: 33
EndChar

StartChar: uniFEB8
Encoding: 65208 65208 78
Width: 700
GlyphClass: 2
Flags: MW
HStem: -4 144<219.5 245> 0 140<0 16 0 34 693 700> 885 20G<433 433>
VStem: 0 171<0 169.5 140 169.5> 362.25 80.87 568 87
AnchorPoint: "Anchor-1" 420 1010 basechar 0
AnchorPoint: "Anchor-0" 426 -136 basechar 0
LayerCount: 2
Fore
SplineSet
519 812 m 1xbc
 433 718 l 1
 346 812 l 1
 433 905 l 1
 519 812 l 1xbc
434 624 m 1
 348 530 l 1
 261 624 l 1
 348 717 l 1
 434 624 l 1
550 530 m 1
 463 624 l 1
 550 717 l 1
 636 624 l 1
 550 530 l 1
640 148 m 1
 656 140 686 140 700 140 c 1xbc
 700 0 l 1
 651 0 621 25 599 77 c 1
 564 32 517 0 462 0 c 0x7c
 413 0 379 25 366 50 c 1
 313 -2 253 -4 237 -4 c 0xbc
 169 -4 130 23 123 76 c 1
 99 31 67 0 16 0 c 2
 0 0 l 1x7c
 0 140 l 1
 34 140 l 2
 100 140 104 214 119 281 c 0
 126 313 134 329 156 329 c 0
 177 329 180 314 180 294 c 0
 180 260 171 175 171 164 c 0
 171 145 201 140 238 140 c 0
 393 140 365 226 351 348 c 0
 348 370 364 383 393 386 c 0
 430 390 432 373 439 308 c 0
 442 280 452 224 424 146 c 0
 423 144 423 142 422 140 c 1
 457 141 489 143 516 150 c 0
 555 161 574 180 578 202 c 0
 583 231 572 347 568 388 c 0
 564 426 649 447 655 390 c 0
 661 333 665 263 658 216 c 0
 655 194 648 171 640 148 c 1
EndSplineSet
Validated: 33
Substitution2: "Single Substitution lookup 54 subtable" uniFEB8.sheenYeh
Substitution2: "'aalt' Access All Alternates lookup 0 subtable" uniFEB8.sheenYeh
EndChar

StartChar: uniFEB8.sheenYeh
Encoding: 1114212 -1 79
Width: 700
GlyphClass: 2
Flags: MW
HStem: -4 144<130 205> 0 140<679 700> 230 120<0 13 0 24> 885 20G<433 433>
VStem: 310.35 91.63 529 101<207.5 216 216 399 399 399>
AnchorPoint: "Anchor-1" 433 1010 basechar 0
AnchorPoint: "Anchor-0" 460 -82 basechar 0
LayerCount: 2
Fore
SplineSet
519 812 m 1xbc
 433 718 l 1
 346 812 l 1
 433 905 l 1
 519 812 l 1xbc
434 624 m 1
 348 530 l 1
 261 624 l 1
 348 717 l 1
 434 624 l 1
550 530 m 1
 463 624 l 1
 550 717 l 1
 636 624 l 1
 550 530 l 1
624 164 m 1
 640 140 658 140 700 140 c 1xbc
 700 0 l 1
 647 0 616 30 594 90 c 1
 561 38 509 0 440 0 c 0x7c
 378 0 344 33 336 61 c 1
 298 20 242 -4 168 -4 c 0
 91 -4 55 23 36 86 c 1
 28 134 21 182 13 230 c 1
 0 230 l 1
 0 350 l 1
 24 350 l 2
 55 350 84 317 92 215 c 0
 97 151 98 140 162 140 c 0
 338 140 316 222 301 348 c 0
 299 363 306 382 351 387 c 0
 378 390 391 387 399 307 c 0
 406 247 401 189 383 140 c 1
 433 140 473 141 498 152 c 0
 518 161 529 177 529 204 c 2
 529 399 l 1
 630 486 l 1
 630 216 l 2
 630 199 628 181 624 164 c 1
EndSplineSet
Validated: 33
EndChar

StartChar: uniFEB7
Encoding: 65207 65207 80
Width: 700
GlyphClass: 2
Flags: MW
HStem: -4 144<216 261> 0 140<0 26 0 44> 885 20G<393 393>
VStem: 0 180<0 314 140 314> 340 92 555 101<204 216 216 399 399 399>
AnchorPoint: "Anchor-1" 400 1010 basechar 0
AnchorPoint: "Anchor-0" 414 -118 basechar 0
LayerCount: 2
Fore
SplineSet
479 812 m 1x7c
 393 718 l 1
 306 812 l 1
 393 905 l 1
 479 812 l 1x7c
394 624 m 1
 308 530 l 1
 221 624 l 1
 308 717 l 1
 394 624 l 1
510 530 m 1
 423 624 l 1
 510 717 l 1
 596 624 l 1
 510 530 l 1
555 399 m 1
 656 486 l 1
 656 216 l 2
 656 115 585 0 466 0 c 0x7c
 409 0 379 33 365 61 c 1
 332 22 288 -4 234 -4 c 0xbc
 168 -4 127 4 113 76 c 1
 89 31 77 0 26 0 c 2
 0 0 l 1
 0 140 l 1
 44 140 l 2
 100 140 104 224 119 291 c 0
 126 323 134 339 156 339 c 0
 177 339 180 324 180 304 c 0
 180 270 174 202 161 155 c 1
 184 141 201 140 231 140 c 0
 350 140 340 218 340 348 c 0
 340 360 353 384 388 387 c 0
 412 389 424 379 432 279 c 0
 436 234 428 185 411 140 c 1
 453 140 488 141 513 148 c 0
 540 156 555 172 555 204 c 2
 555 399 l 1
EndSplineSet
Validated: 33
Substitution2: "Single Substitution lookup 54 subtable" uniFEB7.sheenYeh
Substitution2: "'aalt' Access All Alternates lookup 0 subtable" uniFEB7.sheenYeh
EndChar

StartChar: uniFEB7.sheenYeh
Encoding: 1114213 -1 81
Width: 700
GlyphClass: 2
Flags: MW
HStem: -4 144<130 205> 0 140 230 120<0 13 0 24> 885 20G<393 393>
VStem: 310.35 91.63 529 101<204 216 216 399 399 399>
AnchorPoint: "Anchor-1" 390 1010 basechar 0
AnchorPoint: "Anchor-0" 408 -94 basechar 0
LayerCount: 2
Fore
SplineSet
479 812 m 1xbc
 393 718 l 1
 306 812 l 1
 393 905 l 1
 479 812 l 1xbc
394 624 m 1
 308 530 l 1
 221 624 l 1
 308 717 l 1
 394 624 l 1
510 530 m 1
 423 624 l 1
 510 717 l 1
 596 624 l 1
 510 530 l 1
529 399 m 1
 630 486 l 1
 630 216 l 2
 630 115 559 0 440 0 c 0x7c
 378 0 344 33 336 61 c 1
 298 20 242 -4 168 -4 c 0
 91 -4 55 23 36 86 c 1
 28 134 21 182 13 230 c 1
 0 230 l 1
 0 350 l 1
 24 350 l 2
 55 350 84 317 92 215 c 0
 97 151 98 140 162 140 c 0
 338 140 316 222 301 348 c 0
 299 363 306 382 351 387 c 0
 378 390 391 387 399 307 c 0
 406 247 401 189 383 140 c 1
 433 140 473 141 498 152 c 0
 518 161 529 177 529 204 c 2
 529 399 l 1
EndSplineSet
Validated: 33
EndChar

StartChar: uni0635
Encoding: 1589 1589 82
Width: 700
GlyphClass: 2
Flags: MW
HStem: -401 140<45 139.5 45 179.5> 0 140 364 128<517.5 567>
VStem: -146 64<-137.5 -43.5> 252 112 614 82<195.5 261.5>
AnchorPoint: "Anchor-1" 440 700 basechar 0
AnchorPoint: "Anchor-0" 420 -420 basechar 0
LayerCount: 2
Fore
SplineSet
574 492 m 0
 672 492 696 375 696 218 c 0
 696 62 544 0 437 0 c 0
 408 0 384 0 364 1 c 1
 360 -269 262 -401 97 -401 c 0
 -59 -401 -146 -282 -146 -99 c 0
 -146 12 -114 88 -33 188 c 1
 -1 140 l 1
 -7 131 -82 45 -82 -75 c 0
 -82 -200 1 -261 89 -261 c 0
 190 -261 252 -180 252 -22 c 0
 252 81 226 169 210 223 c 1
 329 266 l 1
 337 244 344 221 349 196 c 1
 390 308 454 492 574 492 c 0
382 140 m 1
 493 142 614 154 614 237 c 0
 614 286 590 364 544 364 c 0
 491 364 433 259 382 140 c 1
EndSplineSet
Validated: 1
Substitution2: "'fina' Terminal Forms lookup 31 subtable" uniFEBA
Substitution2: "'medi' Medial Forms lookup 30 subtable" uniFEBC
Substitution2: "'init' Initial Forms lookup 29 subtable" uniFEBB
AlternateSubs2: "'aalt' Access All Alternates lookup 1 subtable" uniFEBB uniFEBC uniFEBA
EndChar

StartChar: uniFEBA
Encoding: 65210 65210 83
Width: 700
GlyphClass: 2
Flags: MW
HStem: -401 140<45 139.5 45 179.5> 0 140<681 700> 364 128<517.5 567>
VStem: -146 64<-137.5 -43.5> 252 112 614 82<203.5 261.5>
AnchorPoint: "Anchor-1" 400 700 basechar 0
AnchorPoint: "Anchor-0" 420 -420 basechar 0
LayerCount: 2
Fore
SplineSet
681 140 m 1
 700 140 l 1
 700 0 l 1
 447 0 l 1
 437 0 l 2
 408 0 384 0 364 1 c 1
 360 -269 262 -401 97 -401 c 0
 -59 -401 -146 -282 -146 -99 c 0
 -146 12 -114 88 -33 188 c 1
 -1 140 l 1
 -7 131 -82 45 -82 -75 c 0
 -82 -200 1 -261 89 -261 c 0
 190 -261 252 -180 252 -22 c 0
 252 81 226 169 210 223 c 1
 329 266 l 1
 337 244 344 221 349 196 c 1
 390 308 454 492 574 492 c 0
 672 492 696 375 696 218 c 0
 696 189 691 163 681 140 c 1
382 140 m 1
 493 142 614 154 614 237 c 0
 614 286 590 364 544 364 c 0
 491 364 433 259 382 140 c 1
EndSplineSet
Validated: 1
EndChar

StartChar: uniFEBC
Encoding: 65212 65212 84
Width: 700
GlyphClass: 2
Flags: MW
HStem: 0 140<0 9.5 202 414 414 453.5> 354 138<459 502.5>
VStem: 46 76<168 300> 588 73<217.5 257> 650 50<139 139>
AnchorPoint: "Anchor-1" 350 710 basechar 0
AnchorPoint: "Anchor-0" 460 -110 basechar 0
LayerCount: 2
Fore
SplineSet
0 0 m 1xb0
 0 140 l 1
 19 140 l 2
 34 140 46 153 46 188 c 2
 46 300 l 1
 124 300 l 1
 122 180 l 2
 122 156 124 150 131 150 c 0
 147 150 153 156 159 167 c 0
 280 380 409 492 509 492 c 0
 610 492 661 379 661 235 c 0xf0
 661 200 657 163 650 139 c 1
 700 140 l 1
 700 0 l 1xa8
 176 0 l 2
 149 0 99 44 91 59 c 1
 81 32 19 0 0 0 c 1xb0
202 140 m 1
 414 140 l 2
 493 140 588 145 588 223 c 0
 588 291 534 354 471 354 c 0xf0
 393 354 297 260 202 140 c 1
EndSplineSet
Validated: 1
Substitution2: "Single Substitution lookup 54 subtable" uniFEBC.sadYeh
Substitution2: "'aalt' Access All Alternates lookup 0 subtable" uniFEBC.sadYeh
EndChar

StartChar: uniFEBC.sadYeh
Encoding: 1114214 -1 85
Width: 700
GlyphClass: 2
Flags: MW
HStem: 0 140<218 318 318 362 362 461 665 700> 230 120<0 13 0 24> 344 166<470 517>
VStem: 575 100<211.5 252.5>
AnchorPoint: "Anchor-1" 350 700 basechar 0
AnchorPoint: "Anchor-0" 460 -110 basechar 0
LayerCount: 2
Fore
SplineSet
665 140 m 1xb0
 700 140 l 1
 700 0 l 1
 362 0 l 1
 318 0 l 2
 91 0 54 25 36 86 c 1
 13 230 l 1
 0 230 l 1
 0 350 l 1
 24 350 l 2xd0
 57 350 87 306 92 215 c 0
 95 161 97 140 126 140 c 0
 155 140 170 160 191 194 c 0
 282 338 414 510 526 510 c 0
 631 510 675 356 675 229 c 0
 675 194 672 165 665 140 c 1xb0
218 140 m 1
 461 140 l 2
 525 141 575 152 575 221 c 0
 575 284 548 344 486 344 c 0
 409 344 313 250 218 140 c 1
EndSplineSet
Validated: 1
EndChar

StartChar: uniFEBB
Encoding: 65211 65211 86
Width: 700
GlyphClass: 2
Flags: MW
HStem: 0 140<0 9 9 9.5 218 393> 344 143<465 519>
VStem: 36 76<163 240 163 259.5> 604 82<192.5 253>
AnchorPoint: "Anchor-1" 350 700 basechar 0
AnchorPoint: "Anchor-0" 460 -110 basechar 0
LayerCount: 2
Fore
SplineSet
0 0 m 1
 0 140 l 1
 9 140 l 2
 24 140 36 153 36 188 c 2
 36 240 l 2
 36 279 50 300 75 300 c 0
 100 300 114 279 113 239 c 2
 112 180 l 2
 112 146 114 140 131 140 c 0
 148 140 167 153 175 167 c 0
 248 295 404 487 526 487 c 0
 623 487 686 355 686 234 c 0
 686 58 580 0 393 0 c 2
 176 0 l 2
 149 0 99 44 91 59 c 1
 81 32 19 0 0 0 c 1
218 140 m 1
 453 140 l 2
 554 140 604 158 604 227 c 0
 604 279 547 344 491 344 c 0
 405 344 314 250 218 140 c 1
EndSplineSet
Validated: 33
Substitution2: "Single Substitution lookup 54 subtable" uniFEBB.sadYeh
Substitution2: "'aalt' Access All Alternates lookup 0 subtable" uniFEBB.sadYeh
EndChar

StartChar: uniFEBB.sadYeh
Encoding: 1114215 -1 87
Width: 700
GlyphClass: 2
Flags: MW
HStem: 0 140<218 401 401 442> 230 120<0 13 0 24> 344 166<470 517>
VStem: 575 100<176.5 252.5>
AnchorPoint: "Anchor-1" 400 700 basechar 0
AnchorPoint: "Anchor-0" 480 -110 basechar 0
LayerCount: 2
Fore
SplineSet
318 0 m 0xb0
 91 0 54 25 36 86 c 1
 13 230 l 1
 0 230 l 1
 0 350 l 1
 24 350 l 2xd0
 57 350 87 306 92 215 c 0
 95 161 97 140 126 140 c 0
 155 140 170 160 191 194 c 0
 282 338 414 510 526 510 c 0
 631 510 675 356 675 229 c 0
 675 30 566 0 318 0 c 0xb0
218 140 m 1
 401 140 l 2
 491 140 575 132 575 221 c 0
 575 284 548 344 486 344 c 0
 409 344 313 250 218 140 c 1
EndSplineSet
Validated: 33
EndChar

StartChar: uni0636
Encoding: 1590 1590 88
Width: 700
GlyphClass: 2
Flags: MW
HStem: -401 140<45 139.5 45 179.5> 0 140 364 128<517.5 567>
VStem: -146 64<-137.5 -43.5> 252 112 614 82<195.5 261.5>
AnchorPoint: "Anchor-1" 450 900 basechar 0
AnchorPoint: "Anchor-0" 420 -420 basechar 0
LayerCount: 2
Fore
SplineSet
553 660 m 1
 467 566 l 1
 380 660 l 1
 467 753 l 1
 553 660 l 1
574 492 m 0
 672 492 696 375 696 218 c 0
 696 62 544 0 437 0 c 0
 408 0 384 0 364 1 c 1
 360 -269 262 -401 97 -401 c 0
 -59 -401 -146 -282 -146 -99 c 0
 -146 12 -114 88 -33 188 c 1
 -1 140 l 1
 -7 131 -82 45 -82 -75 c 0
 -82 -200 1 -261 89 -261 c 0
 190 -261 252 -180 252 -22 c 0
 252 81 226 169 210 223 c 1
 329 266 l 1
 337 244 344 221 349 196 c 1
 390 308 454 492 574 492 c 0
382 140 m 1
 493 142 614 154 614 237 c 0
 614 286 590 364 544 364 c 0
 491 364 433 259 382 140 c 1
EndSplineSet
Validated: 1
Substitution2: "'fina' Terminal Forms lookup 31 subtable" uniFEBE
Substitution2: "'medi' Medial Forms lookup 30 subtable" uniFEC0
Substitution2: "'init' Initial Forms lookup 29 subtable" uniFEBF
AlternateSubs2: "'aalt' Access All Alternates lookup 1 subtable" uniFEBF uniFEC0 uniFEBE
EndChar

StartChar: uniFEBE
Encoding: 65214 65214 89
Width: 700
GlyphClass: 2
Flags: MW
HStem: -401 140<45 139.5 45 179.5> 0 140<681 700> 364 128<517.5 567>
VStem: -146 64<-137.5 -43.5> 252 112 614 82<203.5 261.5>
AnchorPoint: "Anchor-1" 350 900 basechar 0
AnchorPoint: "Anchor-0" 420 -420 basechar 0
LayerCount: 2
Fore
SplineSet
549 660 m 1
 463 566 l 1
 376 660 l 1
 463 753 l 1
 549 660 l 1
681 140 m 1
 700 140 l 1
 700 0 l 1
 447 0 l 1
 437 0 l 2
 408 0 384 0 364 1 c 1
 360 -269 262 -401 97 -401 c 0
 -59 -401 -146 -282 -146 -99 c 0
 -146 12 -114 88 -33 188 c 1
 -1 140 l 1
 -7 131 -82 45 -82 -75 c 0
 -82 -200 1 -261 89 -261 c 0
 190 -261 252 -180 252 -22 c 0
 252 81 226 169 210 223 c 1
 329 266 l 1
 337 244 344 221 349 196 c 1
 390 308 454 492 574 492 c 0
 672 492 696 375 696 218 c 0
 696 189 691 163 681 140 c 1
382 140 m 1
 493 142 614 154 614 237 c 0
 614 286 590 364 544 364 c 0
 491 364 433 259 382 140 c 1
EndSplineSet
Validated: 1
EndChar

StartChar: uniFEC0
Encoding: 65216 65216 90
Width: 700
GlyphClass: 2
Flags: MW
HStem: 0 140<0 9.5 202 414 414 453.5> 354 138<459 502.5>
VStem: 46 76<168 300> 588 73<217.5 257> 650 50<139 139>
AnchorPoint: "Anchor-1" 350 900 basechar 0
AnchorPoint: "Anchor-0" 400 -110 basechar 0
LayerCount: 2
Fore
SplineSet
350 586 m 1xb0
 263 680 l 1
 350 773 l 1
 436 680 l 1
 350 586 l 1xb0
0 0 m 1
 0 140 l 1
 19 140 l 2
 34 140 46 153 46 188 c 2
 46 300 l 1
 124 300 l 1
 122 180 l 2
 122 156 124 150 131 150 c 0
 147 150 153 156 159 167 c 0
 280 380 409 492 509 492 c 0
 610 492 661 379 661 235 c 0xf0
 661 200 657 163 650 139 c 1
 700 140 l 1
 700 0 l 1xa8
 176 0 l 2
 149 0 99 44 91 59 c 1
 81 32 19 0 0 0 c 1
202 140 m 1
 414 140 l 2
 493 140 588 145 588 223 c 0
 588 291 534 354 471 354 c 0xf0
 393 354 297 260 202 140 c 1
EndSplineSet
Validated: 1
Substitution2: "Single Substitution lookup 54 subtable" uniFEC0.dadYeh
Substitution2: "'aalt' Access All Alternates lookup 0 subtable" uniFEC0.dadYeh
EndChar

StartChar: uniFEC0.dadYeh
Encoding: 1114216 -1 91
Width: 700
GlyphClass: 2
Flags: MW
HStem: 0 140<218 318 318 362 362 461 665 700> 230 120<0 13 0 24> 344 166<470 517>
VStem: 575 100<211.5 252.5>
AnchorPoint: "Anchor-1" 350 900 basechar 0
AnchorPoint: "Anchor-0" 400 -110 basechar 0
LayerCount: 2
Fore
SplineSet
436 660 m 1xb0
 350 566 l 1
 263 660 l 1
 350 753 l 1
 436 660 l 1xb0
665 140 m 1
 700 140 l 1
 700 0 l 1
 362 0 l 1
 318 0 l 2
 91 0 54 25 36 86 c 1
 13 230 l 1
 0 230 l 1
 0 350 l 1
 24 350 l 2xd0
 57 350 87 306 92 215 c 0
 95 161 97 140 126 140 c 0
 155 140 170 160 191 194 c 0
 282 338 414 510 526 510 c 0
 631 510 675 356 675 229 c 0
 675 194 672 165 665 140 c 1
218 140 m 1
 461 140 l 2
 525 141 575 152 575 221 c 0
 575 284 548 344 486 344 c 0
 409 344 313 250 218 140 c 1
EndSplineSet
Validated: 1
EndChar

StartChar: uniFEBF
Encoding: 65215 65215 92
Width: 700
GlyphClass: 2
Flags: MW
HStem: 0 140<0 9 9 9.5 218 393> 344 143<465 519>
VStem: 36 76<163 240 163 259.5> 604 82<192.5 253>
AnchorPoint: "Anchor-1" 380 900 basechar 0
AnchorPoint: "Anchor-0" 500 -110 basechar 0
LayerCount: 2
Fore
SplineSet
350 566 m 1
 263 660 l 1
 350 753 l 1
 436 660 l 1
 350 566 l 1
0 0 m 1
 0 140 l 1
 9 140 l 2
 24 140 36 153 36 188 c 2
 36 240 l 2
 36 279 50 300 75 300 c 0
 100 300 114 279 113 239 c 2
 112 180 l 2
 112 146 114 140 131 140 c 0
 148 140 167 153 175 167 c 0
 248 295 404 487 526 487 c 0
 623 487 686 355 686 234 c 0
 686 58 580 0 393 0 c 2
 176 0 l 2
 149 0 99 44 91 59 c 1
 81 32 19 0 0 0 c 1
218 140 m 1
 453 140 l 2
 554 140 604 158 604 227 c 0
 604 279 547 344 491 344 c 0
 405 344 314 250 218 140 c 1
EndSplineSet
Validated: 33
Substitution2: "Single Substitution lookup 54 subtable" uniFEBF.dadYeh
Substitution2: "'aalt' Access All Alternates lookup 0 subtable" uniFEBF.dadYeh
EndChar

StartChar: uniFEBF.dadYeh
Encoding: 1114217 -1 93
Width: 700
GlyphClass: 2
Flags: MW
HStem: 0 140<218 401 401 442> 230 120<0 13 0 24> 344 166<470 517>
VStem: 575 100<176.5 252.5>
AnchorPoint: "Anchor-1" 380 900 basechar 0
AnchorPoint: "Anchor-0" 499 -110 basechar 0
LayerCount: 2
Fore
SplineSet
350 566 m 1xb0
 263 660 l 1
 350 753 l 1
 436 660 l 1
 350 566 l 1xb0
318 0 m 0
 91 0 54 25 36 86 c 1
 13 230 l 1
 0 230 l 1
 0 350 l 1
 24 350 l 2xd0
 57 350 87 306 92 215 c 0
 95 161 97 140 126 140 c 0
 155 140 170 160 191 194 c 0
 282 338 414 510 526 510 c 0
 631 510 675 356 675 229 c 0
 675 30 566 0 318 0 c 0
218 140 m 1
 401 140 l 2
 491 140 575 132 575 221 c 0
 575 284 548 344 486 344 c 0
 409 344 313 250 218 140 c 1
EndSplineSet
Validated: 33
EndChar

StartChar: uni0637
Encoding: 1591 1591 94
Width: 700
GlyphClass: 2
Flags: MW
HStem: 0 140<54 66 66 71 182 357 0 66> 344 143<442.5 483> 870 20G<193 193>
VStem: 130 67 568 82<192.5 253>
AnchorPoint: "Anchor-1" 450 900 basechar 0
AnchorPoint: "Anchor-0" 420 -110 basechar 0
LayerCount: 2
Fore
SplineSet
490 487 m 0
 587 487 650 355 650 234 c 0
 650 58 544 0 357 0 c 2
 0 0 l 1
 0 116 37 139 54 140 c 2
 66 140 l 2
 76 140 88 142 100 145 c 1
 125 180 132 221 130 289 c 0
 128 376 124 725 83 790 c 1
 193 890 l 1
 250 749 l 1
 188 684 194 391 197 257 c 1
 278 369 395 487 490 487 c 0
417 140 m 2
 518 140 568 158 568 227 c 0
 568 279 511 344 455 344 c 0
 369 344 278 250 182 140 c 1
 417 140 l 2
EndSplineSet
Validated: 33
Substitution2: "'fina' Terminal Forms lookup 31 subtable" uniFEC2
Substitution2: "'medi' Medial Forms lookup 30 subtable" uniFEC4
Substitution2: "'init' Initial Forms lookup 29 subtable" uniFEC3
AlternateSubs2: "'aalt' Access All Alternates lookup 1 subtable" uniFEC3 uniFEC4 uniFEC2
EndChar

StartChar: uniFEC2
Encoding: 65218 65218 95
Width: 700
GlyphClass: 2
Flags: MW
HStem: 0 140<54 66 66 71 182 417 417 467.5 637 700 0 66> 344 143<442.5 483> 870 20G<193 193>
VStem: 130 67 568 82<216 253>
AnchorPoint: "Anchor-1" 450 900 basechar 0
AnchorPoint: "Anchor-0" 420 -110 basechar 0
LayerCount: 2
Fore
SplineSet
637 140 m 1
 700 140 l 1
 700 0 l 1
 0 0 l 1
 0 116 37 139 54 140 c 2
 66 140 l 2
 76 140 88 142 100 145 c 1
 125 180 132 221 130 289 c 0
 128 376 124 725 83 790 c 1
 193 890 l 1
 250 749 l 1
 188 684 194 391 197 257 c 1
 278 369 395 487 490 487 c 0
 587 487 650 355 650 234 c 0
 650 198 646 167 637 140 c 1
417 140 m 2
 518 140 568 158 568 227 c 0
 568 279 511 344 455 344 c 0
 369 344 278 250 182 140 c 1
 417 140 l 2
EndSplineSet
Validated: 33
EndChar

StartChar: uniFEC4
Encoding: 65220 65220 96
Width: 700
GlyphClass: 2
Flags: MW
HStem: 0 140<1 66 66 71 182 417 417 467.5 637 700 1 66> 344 143<442.5 483> 870 20G<193 193>
VStem: 130 67 568 82<216 253>
AnchorPoint: "Anchor-1" 450 900 basechar 0
AnchorPoint: "Anchor-0" 420 -110 basechar 0
LayerCount: 2
Fore
SplineSet
637 140 m 1
 700 140 l 1
 700 0 l 1
 1 0 l 1
 1 140 l 1
 66 140 l 2
 76 140 88 142 100 145 c 1
 125 180 132 221 130 289 c 0
 128 376 124 725 83 790 c 1
 193 890 l 1
 250 749 l 1
 188 684 194 391 197 257 c 1
 278 369 395 487 490 487 c 0
 587 487 650 355 650 234 c 0
 650 198 646 167 637 140 c 1
417 140 m 2
 518 140 568 158 568 227 c 0
 568 279 511 344 455 344 c 0
 369 344 278 250 182 140 c 1
 417 140 l 2
EndSplineSet
Validated: 33
EndChar

StartChar: uniFEC3
Encoding: 65219 65219 97
Width: 700
GlyphClass: 2
Flags: MW
HStem: 0 140<0 102 102 106 218 393 0 102> 344 143<477 519> 870 20G<223 223>
VStem: 160 67 604 82<192.5 253>
AnchorPoint: "Anchor-1" 550 900 basechar 0
AnchorPoint: "Anchor-0" 420 -110 basechar 0
LayerCount: 2
Fore
SplineSet
526 487 m 0
 623 487 686 355 686 234 c 0
 686 58 580 0 393 0 c 2
 0 0 l 1
 0 140 l 1
 102 140 l 2
 110 140 119 141 129 144 c 1
 155 178 162 220 160 289 c 0
 158 376 154 725 113 790 c 1
 223 890 l 1
 280 749 l 1
 217 682 224 379 227 249 c 1
 309 364 428 487 526 487 c 0
453 140 m 2
 554 140 604 158 604 227 c 0
 604 279 547 344 491 344 c 0
 405 344 314 250 218 140 c 1
 453 140 l 2
EndSplineSet
Validated: 33
EndChar

StartChar: uni0638
Encoding: 1592 1592 98
Width: 700
GlyphClass: 2
Flags: MW
HStem: 0 140<54 66 66 71 182 357 0 66> 344 143<442.5 483> 870 20G<193 193>
VStem: 130 67 568 82<192.5 253>
AnchorPoint: "Anchor-1" 470 935 basechar 0
AnchorPoint: "Anchor-0" 470 -110 basechar 0
LayerCount: 2
Fore
SplineSet
490 487 m 0
 587 487 650 355 650 234 c 0
 650 58 544 0 357 0 c 2
 0 0 l 1
 0 116 37 139 54 140 c 2
 66 140 l 2
 76 140 88 142 100 145 c 1
 125 180 132 221 130 289 c 0
 128 376 124 725 83 790 c 1
 193 890 l 1
 250 749 l 1
 188 684 194 391 197 257 c 1
 278 369 395 487 490 487 c 0
556 675 m 1
 470 581 l 1
 383 675 l 1
 470 768 l 1
 556 675 l 1
417 140 m 2
 518 140 568 158 568 227 c 0
 568 279 511 344 455 344 c 0
 369 344 278 250 182 140 c 1
 417 140 l 2
EndSplineSet
Validated: 33
Substitution2: "'fina' Terminal Forms lookup 31 subtable" uniFEC6
Substitution2: "'medi' Medial Forms lookup 30 subtable" uniFEC8
Substitution2: "'init' Initial Forms lookup 29 subtable" uniFEC7
AlternateSubs2: "'aalt' Access All Alternates lookup 1 subtable" uniFEC7 uniFEC8 uniFEC6
EndChar

StartChar: uniFEC6
Encoding: 65222 65222 99
Width: 700
GlyphClass: 2
Flags: MW
HStem: 0 140<54 66 66 71 182 417 417 467.5 637 700 0 66> 344 143<442.5 483> 870 20G<193 193>
VStem: 130 67 568 82<216 253>
AnchorPoint: "Anchor-1" 470 935 basechar 0
AnchorPoint: "Anchor-0" 420 -110 basechar 0
LayerCount: 2
Fore
SplineSet
637 140 m 1
 700 140 l 1
 700 0 l 1
 0 0 l 1
 0 116 37 139 54 140 c 2
 66 140 l 2
 76 140 88 142 100 145 c 1
 125 180 132 221 130 289 c 0
 128 376 124 725 83 790 c 1
 193 890 l 1
 250 749 l 1
 188 684 194 391 197 257 c 1
 278 369 395 487 490 487 c 0
 587 487 650 355 650 234 c 0
 650 198 646 167 637 140 c 1
536 660 m 1
 450 566 l 1
 363 660 l 1
 450 753 l 1
 536 660 l 1
417 140 m 2
 518 140 568 158 568 227 c 0
 568 279 511 344 455 344 c 0
 369 344 278 250 182 140 c 1
 417 140 l 2
EndSplineSet
Validated: 33
EndChar

StartChar: uniFEC8
Encoding: 65224 65224 100
Width: 700
GlyphClass: 2
Flags: MW
HStem: 0 140<1 66 66 71 182 417 417 467.5 637 700 1 66> 344 143<442.5 483> 870 20G<193 193>
VStem: 130 67 568 82<216 253>
AnchorPoint: "Anchor-1" 470 935 basechar 0
AnchorPoint: "Anchor-0" 420 -110 basechar 0
LayerCount: 2
Fore
SplineSet
637 140 m 1
 700 140 l 1
 700 0 l 1
 1 0 l 1
 1 140 l 1
 66 140 l 2
 76 140 88 142 100 145 c 1
 125 180 132 221 130 289 c 0
 128 376 124 725 83 790 c 1
 193 890 l 1
 250 749 l 1
 188 684 194 391 197 257 c 1
 278 369 395 487 490 487 c 0
 587 487 650 355 650 234 c 0
 650 198 646 167 637 140 c 1
536 675 m 1
 450 581 l 1
 363 675 l 1
 450 768 l 1
 536 675 l 1
417 140 m 2
 518 140 568 158 568 227 c 0
 568 279 511 344 455 344 c 0
 369 344 278 250 182 140 c 1
 417 140 l 2
EndSplineSet
Validated: 33
EndChar

StartChar: uniFEC7
Encoding: 65223 65223 101
Width: 700
GlyphClass: 2
Flags: MW
HStem: 0 140<0 102 102 106 218 393 0 102> 344 143<477 519> 870 20G<223 223>
VStem: 160 67 604 82<192.5 253>
AnchorPoint: "Anchor-1" 520 935 basechar 0
AnchorPoint: "Anchor-0" 420 -110 basechar 0
LayerCount: 2
Fore
SplineSet
526 487 m 0
 623 487 686 355 686 234 c 0
 686 58 580 0 393 0 c 2
 0 0 l 1
 0 140 l 1
 102 140 l 2
 110 140 119 141 129 144 c 1
 155 178 162 220 160 289 c 0
 158 376 154 725 113 790 c 1
 223 890 l 1
 280 749 l 1
 217 682 224 379 227 249 c 1
 309 364 428 487 526 487 c 0
576 675 m 1
 490 581 l 1
 403 675 l 1
 490 768 l 1
 576 675 l 1
453 140 m 2
 554 140 604 158 604 227 c 0
 604 279 547 344 491 344 c 0
 405 344 314 250 218 140 c 1
 453 140 l 2
EndSplineSet
Validated: 33
EndChar

StartChar: uni0639
Encoding: 1593 1593 102
Width: 700
GlyphClass: 2
Flags: MW
HStem: 18888 100
AnchorPoint: "Anchor-1" 370 830 basechar 0
AnchorPoint: "Anchor-0" 420 -530 basechar 0
LayerCount: 2
Fore
SplineSet
622 -282 m 1
 637 -300 l 1
 569 -390 455 -486 303 -486 c 0
 141 -486 33 -378 33 -230 c 0
 33 -71 159 123 301 194 c 1
 231 219 163 293 157 377 c 0
 148 506 256 667 368 677 c 0
 435 683 503 635 530 561 c 1
 519 501 l 1
 465 537 430 541 378 537 c 0
 263 528 195 468 226 420 c 0
 276 343 323 309 458 341 c 0
 509 353 591 378 630 390 c 1
 605 261 l 1
 468 193 143 144 143 -142 c 0
 143 -286 226 -350 363 -350 c 0
 463 -350 566 -316 622 -282 c 1
EndSplineSet
Validated: 33
Substitution2: "'fina' Terminal Forms lookup 31 subtable" uniFECA
Substitution2: "'medi' Medial Forms lookup 30 subtable" uniFECC
Substitution2: "'init' Initial Forms lookup 29 subtable" uniFECB
AlternateSubs2: "'aalt' Access All Alternates lookup 1 subtable" uniFECB uniFECC uniFECA
EndChar

StartChar: uniFECB
Encoding: 65227 65227 103
Width: 700
GlyphClass: 2
Flags: MW
HStem: 0 140<0 71 0 257> 447 140<372.5 436.5>
VStem: 175 78<333.5 369.5>
AnchorPoint: "Anchor-1" 376 770 basechar 0
AnchorPoint: "Anchor-0" 420 -110 basechar 0
LayerCount: 2
Fore
SplineSet
452 161 m 0
 490 161 569 174 628 188 c 1
 592 52 l 1
 399 2 277 0 71 0 c 2
 0 0 l 1
 0 140 l 1
 257 140 l 1
 211 174 175 238 175 307 c 0
 175 432 299 587 412 587 c 0
 479 587 542 533 563 457 c 1
 547 398 l 1
 501 436 464 447 409 447 c 0
 336 447 253 427 253 363 c 0
 253 304 324 161 452 161 c 0
EndSplineSet
Validated: 1
EndChar

StartChar: uni063A
Encoding: 1594 1594 104
Width: 700
GlyphClass: 2
Flags: MW
HStem: 18888 100
AnchorPoint: "Anchor-1" 370 1030 basechar 0
AnchorPoint: "Anchor-0" 420 -530 basechar 0
LayerCount: 2
Fore
SplineSet
461 824 m 1
 375 730 l 1
 288 824 l 1
 375 917 l 1
 461 824 l 1
622 -282 m 1
 637 -300 l 1
 569 -390 455 -486 303 -486 c 0
 141 -486 33 -378 33 -230 c 0
 33 -71 159 123 301 194 c 1
 231 219 163 293 157 377 c 0
 148 506 256 667 368 677 c 0
 435 683 503 635 530 561 c 1
 519 501 l 1
 465 537 430 541 378 537 c 0
 263 528 195 468 226 420 c 0
 276 343 323 309 458 341 c 0
 509 353 591 378 630 390 c 1
 605 261 l 1
 468 193 143 144 143 -142 c 0
 143 -286 226 -350 363 -350 c 0
 463 -350 566 -316 622 -282 c 1
EndSplineSet
Validated: 33
Substitution2: "'fina' Terminal Forms lookup 31 subtable" uniFECE
Substitution2: "'medi' Medial Forms lookup 30 subtable" uniFED0
Substitution2: "'init' Initial Forms lookup 29 subtable" uniFECF
AlternateSubs2: "'aalt' Access All Alternates lookup 1 subtable" uniFECF uniFED0 uniFECE
EndChar

StartChar: uniFECE
Encoding: 65230 65230 105
Width: 700
GlyphClass: 2
Flags: MW
HStem: -486 136<317 400.5> 0 140<524 566 566 700> 320 179<250.5 477>
VStem: 33 110<-230.5 -110>
AnchorPoint: "Anchor-1" 420 950 basechar 0
AnchorPoint: "Anchor-0" 593 -500 basechar 0
LayerCount: 2
Fore
SplineSet
433 709 m 1
 347 615 l 1
 260 709 l 1
 347 802 l 1
 433 709 l 1
393 150 m 1
 307 99 143 23 143 -155 c 0
 143 -306 251 -350 383 -350 c 0
 501 -350 597 -315 652 -282 c 1
 667 -300 l 1
 585 -406 480 -486 321 -486 c 0
 203 -486 33 -442 33 -222 c 0
 33 2 208 125 287 166 c 0
 330 188 369 201 369 239 c 0
 369 278 325 320 285 320 c 0
 216 320 198 320 198 371 c 0
 198 477 274 499 403 499 c 0
 551 499 590 470 604 419 c 0
 616 374 596 334 575 300 c 0
 537 241 486 210 448 186 c 1
 465 157 492 140 524 140 c 2
 700 140 l 1
 700 0 l 1
 566 0 l 2
 477 0 413 58 393 150 c 1
EndSplineSet
Validated: 33
EndChar

StartChar: uniFED0
Encoding: 65232 65232 106
Width: 700
GlyphClass: 2
Flags: MW
HStem: 0 140<0 105 0 127 646 658 658 700> 287 189<303 309>
VStem: 0 700<0 140 0 140>
AnchorPoint: "Anchor-1" 400 950 basechar 0
AnchorPoint: "Anchor-0" 420 -110 basechar 0
LayerCount: 2
Fore
SplineSet
483 701 m 1
 397 607 l 1
 310 701 l 1
 397 794 l 1
 483 701 l 1
646 140 m 2
 700 140 l 1
 700 0 l 1
 658 0 l 2
 594 0 564 0 535 27 c 0
 495 65 461 98 441 126 c 1
 333 42 209 0 105 0 c 2
 0 0 l 1
 0 140 l 1
 127 140 l 2
 235 140 371 151 371 224 c 0
 371 256 328 287 290 287 c 0
 222 287 203 287 203 328 c 0
 203 438 209 476 397 476 c 0
 614 476 591 445 618 355 c 0
 624 335 599 299 577 268 c 0
 552 233 524 201 494 172 c 1
 506 162 515 158 553 148 c 0
 580 140 601 140 646 140 c 2
EndSplineSet
Validated: 33
Substitution2: "Single Substitution lookup 54 subtable" uniFED0.ghainAlef
Substitution2: "'aalt' Access All Alternates lookup 0 subtable" uniFED0.ghainAlef
EndChar

StartChar: uniFED0.ghainAlef
Encoding: 1114218 -1 107
Width: 700
GlyphClass: 2
Flags: MW
HStem: 0 140<0 15 0 15 566 700> 287 189<116 357.5>
VStem: 0 700<0 140 0 140>
AnchorPoint: "Anchor-1" 260 954 basechar 0
AnchorPoint: "Anchor-0" 300 -110 basechar 0
LayerCount: 2
Fore
SplineSet
343 701 m 1
 257 607 l 1
 170 701 l 1
 257 794 l 1
 343 701 l 1
566 140 m 2
 700 140 l 1
 700 0 l 1
 566 0 l 2
 460 0 377 35 307 121 c 1
 218 42 123 0 15 0 c 2
 0 0 l 1
 0 140 l 1
 15 140 l 2
 95 140 231 153 231 221 c 0
 231 259 187 287 150 287 c 0
 82 287 63 287 63 328 c 0
 63 444 69 476 270 476 c 0
 445 476 458 452 478 355 c 0
 482 334 465 307 437 268 c 0
 410 231 382 197 354 167 c 1
 400 140 484 140 566 140 c 2
EndSplineSet
Validated: 33
EndChar

StartChar: uniFECF
Encoding: 65231 65231 108
Width: 700
GlyphClass: 2
Flags: MW
HStem: 0 140<0 71 0 257> 447 140<372.5 436.5>
VStem: 175 78<333.5 369.5>
AnchorPoint: "Anchor-1" 367 990 basechar 0
AnchorPoint: "Anchor-0" 420 -110 basechar 0
LayerCount: 2
Fore
SplineSet
449 776 m 1
 363 682 l 1
 276 776 l 1
 363 869 l 1
 449 776 l 1
452 161 m 0
 490 161 569 174 628 188 c 1
 592 52 l 1
 399 2 277 0 71 0 c 2
 0 0 l 1
 0 140 l 1
 257 140 l 1
 211 174 175 238 175 307 c 0
 175 432 299 587 412 587 c 0
 479 587 542 533 563 457 c 1
 547 398 l 1
 501 436 464 447 409 447 c 0
 336 447 253 427 253 363 c 0
 253 304 324 161 452 161 c 0
EndSplineSet
Validated: 1
EndChar

StartChar: uni0641
Encoding: 1601 1601 109
Width: 700
GlyphClass: 2
Flags: MW
HStem: 0 140<178 218 218 362> 240.35 131.28 571.13 108.87
VStem: 5 52<113 249> 318 79 607 81<209 244 244 244>
AnchorPoint: "Anchor-1" 440 1000 basechar 0
AnchorPoint: "Anchor-0" 420 -110 basechar 0
LayerCount: 2
Fore
SplineSet
566 855 m 1
 480 761 l 1
 393 855 l 1
 480 948 l 1
 566 855 l 1
489 680 m 0
 587 680 688 477 688 265 c 0
 688 33 567 0 362 0 c 2
 218 0 l 2
 70 0 5 61 5 165 c 0
 5 219 23 290 62 324 c 1
 79 306 l 1
 66 288 57 262 57 236 c 0
 57 188 87 140 178 140 c 2
 414 140 l 2
 512 140 607 151 607 209 c 2
 607 244 l 1
 461 229 327 254 318 366 c 0
 310 461 387 680 489 680 c 0
397 429 m 0
 397 366 441 367 585 376 c 1
 557 454 505 551 460 569 c 0
 411 589 397 465 397 429 c 0
EndSplineSet
Validated: 33
Substitution2: "'fina' Terminal Forms lookup 31 subtable" uniFED2
Substitution2: "'medi' Medial Forms lookup 30 subtable" uniFED4
Substitution2: "'init' Initial Forms lookup 29 subtable" uniFED3
AlternateSubs2: "'aalt' Access All Alternates lookup 1 subtable" uniFED3 uniFED4 uniFED2
EndChar

StartChar: uniFED2
Encoding: 65234 65234 110
Width: 700
GlyphClass: 2
Flags: MW
HStem: 0 140<173 213 213 365 693.5 700> 451 106<456.5 502.5>
VStem: 0 49<114 222> 342 69<345 371.5>
AnchorPoint: "Anchor-1" 421 980 basechar 0
AnchorPoint: "Anchor-0" 455 -110 basechar 0
LayerCount: 2
Fore
SplineSet
567 749 m 1
 481 655 l 1
 394 749 l 1
 481 842 l 1
 567 749 l 1
647 173 m 1
 657 163 687 140 700 140 c 1
 700 0 l 1
 659 0 581 86 572 99 c 1
 534 39 475 0 365 0 c 2
 213 0 l 2
 65 0 0 59 0 169 c 0
 0 214 11 278 50 335 c 1
 76 325 l 1
 51 254 49 229 49 215 c 0
 49 169 69 140 173 140 c 2
 397 140 l 2
 445 140 486 140 517 145 c 1
 405 217 342 272 342 334 c 0
 342 409 409 557 483 557 c 0
 577 557 663 388 663 288 c 0
 663 248 659 220 647 173 c 1
411 370 m 0
 411 320 486 267 575 195 c 1
 586 276 531 451 474 451 c 0
 439 451 411 400 411 370 c 0
EndSplineSet
Validated: 33
EndChar

StartChar: uniFED4
Encoding: 65236 65236 111
Width: 700
GlyphClass: 2
Flags: MW
HStem: 0 140<0 192 192 230 0 192 666 700> 473 100<301 336.5>
VStem: 183 76<349.5 356> 433 110<274 336.5 254.5 340>
AnchorPoint: "Anchor-1" 350 1006 basechar 0
AnchorPoint: "Anchor-0" 430 -110 basechar 0
LayerCount: 2
Fore
SplineSet
416 756 m 1
 330 662 l 1
 243 756 l 1
 330 849 l 1
 416 756 l 1
666 140 m 2
 700 140 l 1
 700 0 l 1
 645 0 l 2
 602 0 526 36 459 98 c 1
 428 44 360 0 230 0 c 2
 0 0 l 1
 0 140 l 1
 192 140 l 2
 273 140 321 141 352 147 c 1
 305 172 271 194 240 219 c 0
 196 256 183 289 183 322 c 0
 183 390 237 573 341 573 c 0
 444 573 543 396 543 277 c 0
 543 232 529 202 512 173 c 1
 515 168 539 157 573 148 c 0
 600 141 614 140 666 140 c 2
259 379 m 0
 259 320 316 276 419 204 c 1
 428 229 433 260 433 288 c 0
 433 392 356 473 317 473 c 0
 285 473 259 418 259 379 c 0
EndSplineSet
Validated: 1
EndChar

StartChar: uniFED3
Encoding: 65235 65235 112
Width: 700
GlyphClass: 2
Flags: MW
HStem: 0 140<0 317 0 369> 232 139<406 421.5> 571 109<399.5 444>
VStem: 278 79<298.5 443.5> 568 80<235 242 242 242>
AnchorPoint: "Anchor-1" 390 1140 basechar 0
AnchorPoint: "Anchor-0" 500 -110 basechar 0
LayerCount: 2
Fore
SplineSet
528 865 m 1
 442 771 l 1
 355 865 l 1
 442 958 l 1
 528 865 l 1
450 680 m 0
 547 680 648 473 648 269 c 0
 648 54 536 0 317 0 c 2
 0 0 l 1
 0 140 l 1
 369 140 l 2
 518 140 568 157 568 235 c 2
 568 242 l 1
 494 236 439 232 404 232 c 0
 306 232 278 261 278 336 c 0
 278 455 349 680 450 680 c 0
447 371 m 0
 469 371 500 372 544 374 c 1
 517 470 470 571 418 571 c 0
 364 571 357 463 357 424 c 0
 357 383 365 371 447 371 c 0
EndSplineSet
Validated: 1
EndChar

StartChar: uni06A4
Encoding: 1700 1700 113
Width: 700
GlyphClass: 2
Flags: MW
HStem: 0 140<178 218 218 362> 240.35 131.28 571.13 108.87
VStem: 5 52<113 249> 318 79 607 81<209 244 244 244>
AnchorPoint: "Anchor-1" 440 1220 basechar 0
AnchorPoint: "Anchor-0" 420 -110 basechar 0
LayerCount: 2
Fore
SplineSet
539 1031 m 1
 453 937 l 1
 366 1031 l 1
 453 1124 l 1
 539 1031 l 1
454 843 m 1
 368 749 l 1
 281 843 l 1
 368 936 l 1
 454 843 l 1
570 749 m 1
 483 843 l 1
 570 936 l 1
 656 843 l 1
 570 749 l 1
489 680 m 0
 587 680 688 477 688 265 c 0
 688 33 567 0 362 0 c 2
 218 0 l 2
 70 0 5 61 5 165 c 0
 5 219 23 290 62 324 c 1
 79 306 l 1
 66 288 57 262 57 236 c 0
 57 188 87 140 178 140 c 2
 414 140 l 2
 512 140 607 151 607 209 c 2
 607 244 l 1
 461 229 327 254 318 366 c 0
 310 461 387 680 489 680 c 0
397 429 m 0
 397 366 441 367 585 376 c 1
 557 454 505 551 460 569 c 0
 411 589 397 465 397 429 c 0
EndSplineSet
Validated: 33
Substitution2: "'fina' Terminal Forms lookup 31 subtable" uniFB6B
Substitution2: "'medi' Medial Forms lookup 30 subtable" uniFB6D
Substitution2: "'init' Initial Forms lookup 29 subtable" uniFB6C
AlternateSubs2: "'aalt' Access All Alternates lookup 1 subtable" uniFB6C uniFB6D uniFB6B
EndChar

StartChar: uniFB6B
Encoding: 64363 64363 114
Width: 700
GlyphClass: 2
Flags: MW
HStem: 0 140<173 213 213 365 693.5 700> 451 106<456.5 502.5>
VStem: 0 49<114 222> 342 69<345 371.5>
AnchorPoint: "Anchor-1" 450 1110 basechar 0
AnchorPoint: "Anchor-0" 455 -110 basechar 0
LayerCount: 2
Fore
SplineSet
561 922 m 1
 475 828 l 1
 388 922 l 1
 475 1015 l 1
 561 922 l 1
476 734 m 1
 390 640 l 1
 303 734 l 1
 390 827 l 1
 476 734 l 1
592 640 m 1
 505 734 l 1
 592 827 l 1
 678 734 l 1
 592 640 l 1
647 173 m 1
 657 163 687 140 700 140 c 1
 700 0 l 1
 659 0 581 86 572 99 c 1
 534 39 475 0 365 0 c 2
 213 0 l 2
 65 0 0 59 0 169 c 0
 0 214 11 278 50 335 c 1
 76 325 l 1
 51 254 49 229 49 215 c 0
 49 169 69 140 173 140 c 2
 397 140 l 2
 445 140 486 140 517 145 c 1
 405 217 342 272 342 334 c 0
 342 409 409 557 483 557 c 0
 577 557 663 388 663 288 c 0
 663 248 659 220 647 173 c 1
411 370 m 0
 411 320 486 267 575 195 c 1
 586 276 531 451 474 451 c 0
 439 451 411 400 411 370 c 0
EndSplineSet
Validated: 33
EndChar

StartChar: uniFB6D
Encoding: 64365 64365 115
Width: 700
GlyphClass: 2
Flags: MW
HStem: 0 140<0 192 192 230 0 192 666 700> 473 100<301 336.5>
VStem: 183 76<349.5 356> 433 110<274 336.5 254.5 340>
AnchorPoint: "Anchor-1" 350 1110 basechar 0
AnchorPoint: "Anchor-0" 430 -110 basechar 0
LayerCount: 2
Fore
SplineSet
413 948 m 1
 327 854 l 1
 240 948 l 1
 327 1041 l 1
 413 948 l 1
328 760 m 1
 242 666 l 1
 155 760 l 1
 242 853 l 1
 328 760 l 1
444 666 m 1
 357 760 l 1
 444 853 l 1
 530 760 l 1
 444 666 l 1
666 140 m 2
 700 140 l 1
 700 0 l 1
 645 0 l 2
 602 0 526 36 459 98 c 1
 428 44 360 0 230 0 c 2
 0 0 l 1
 0 140 l 1
 192 140 l 2
 273 140 321 141 352 147 c 1
 305 172 271 194 240 219 c 0
 196 256 183 289 183 322 c 0
 183 390 237 573 341 573 c 0
 444 573 543 396 543 277 c 0
 543 232 529 202 512 173 c 1
 515 168 539 157 573 148 c 0
 600 141 614 140 666 140 c 2
259 379 m 0
 259 320 316 276 419 204 c 1
 428 229 433 260 433 288 c 0
 433 392 356 473 317 473 c 0
 285 473 259 418 259 379 c 0
EndSplineSet
Validated: 1
EndChar

StartChar: uniFB6C
Encoding: 64364 64364 116
Width: 700
GlyphClass: 2
Flags: MW
HStem: 0 140<0 317 0 369> 232 139<406 421.5> 571 109<399.5 444>
VStem: 278 79<298.5 443.5> 568 80<235 242 242 242>
AnchorPoint: "Anchor-1" 400 1250 basechar 0
AnchorPoint: "Anchor-0" 500 -110 basechar 0
LayerCount: 2
Fore
SplineSet
498 1032 m 1
 412 938 l 1
 325 1032 l 1
 412 1125 l 1
 498 1032 l 1
413 844 m 1
 327 750 l 1
 240 844 l 1
 327 937 l 1
 413 844 l 1
529 750 m 1
 442 844 l 1
 529 937 l 1
 615 844 l 1
 529 750 l 1
450 680 m 0
 547 680 648 473 648 269 c 0
 648 54 536 0 317 0 c 2
 0 0 l 1
 0 140 l 1
 369 140 l 2
 518 140 568 157 568 235 c 2
 568 242 l 1
 494 236 439 232 404 232 c 0
 306 232 278 261 278 336 c 0
 278 455 349 680 450 680 c 0
447 371 m 0
 469 371 500 372 544 374 c 1
 517 470 470 571 418 571 c 0
 364 571 357 463 357 424 c 0
 357 383 365 371 447 371 c 0
EndSplineSet
Validated: 1
EndChar

StartChar: uni06A1
Encoding: 1697 1697 117
Width: 700
GlyphClass: 2
Flags: MW
HStem: 0 140<178 218 218 362> 240.35 131.28 571.13 108.87
VStem: 5 52<113 249> 318 79 607 81<209 244 244 244>
AnchorPoint: "Anchor-1" 420 900 basechar 0
AnchorPoint: "Anchor-0" 420 -110 basechar 0
LayerCount: 2
Fore
SplineSet
489 680 m 0
 587 680 688 477 688 265 c 0
 688 33 567 0 362 0 c 2
 218 0 l 2
 70 0 5 61 5 165 c 0
 5 219 23 290 62 324 c 1
 79 306 l 1
 66 288 57 262 57 236 c 0
 57 188 87 140 178 140 c 2
 414 140 l 2
 512 140 607 151 607 209 c 2
 607 244 l 1
 461 229 327 254 318 366 c 0
 310 461 387 680 489 680 c 0
397 429 m 0
 397 366 441 367 585 376 c 1
 557 454 505 551 460 569 c 0
 411 589 397 465 397 429 c 0
EndSplineSet
Validated: 33
Substitution2: "'fina' Terminal Forms lookup 31 subtable" uni06A1.fina
Substitution2: "'medi' Medial Forms lookup 30 subtable" uni06A1.medi
Substitution2: "'init' Initial Forms lookup 29 subtable" uni06A1.init
AlternateSubs2: "'aalt' Access All Alternates lookup 1 subtable" uni06A1.init uni06A1.medi uni06A1.fina
EndChar

StartChar: uni06A1.fina
Encoding: 1114219 -1 118
Width: 700
GlyphClass: 2
Flags: MW
HStem: 0 140<173 213 213 365 693.5 700> 451 106<456.5 502.5>
VStem: 0 49<114 222> 342 69<345 371.5>
AnchorPoint: "Anchor-1" 420 760 basechar 0
AnchorPoint: "Anchor-0" 455 -110 basechar 0
LayerCount: 2
Fore
SplineSet
647 173 m 1
 657 163 687 140 700 140 c 1
 700 0 l 1
 659 0 581 86 572 99 c 1
 534 39 475 0 365 0 c 2
 213 0 l 2
 65 0 0 59 0 169 c 0
 0 214 11 278 50 335 c 1
 76 325 l 1
 51 254 49 229 49 215 c 0
 49 169 69 140 173 140 c 2
 397 140 l 2
 445 140 486 140 517 145 c 1
 405 217 342 272 342 334 c 0
 342 409 409 557 483 557 c 0
 577 557 663 388 663 288 c 0
 663 248 659 220 647 173 c 1
411 370 m 0
 411 320 486 267 575 195 c 1
 586 276 531 451 474 451 c 0
 439 451 411 400 411 370 c 0
EndSplineSet
Validated: 33
EndChar

StartChar: uni06A1.medi
Encoding: 1114220 -1 119
Width: 700
GlyphClass: 2
Flags: MW
HStem: 0 140<0 192 192 230 0 192 666 700> 473 100<301 336.5>
VStem: 183 76<349.5 356> 433 110<274 336.5 254.5 340>
AnchorPoint: "Anchor-1" 360 760 basechar 0
AnchorPoint: "Anchor-0" 430 -110 basechar 0
LayerCount: 2
Fore
SplineSet
666 140 m 2
 700 140 l 1
 700 0 l 1
 645 0 l 2
 602 0 526 36 459 98 c 1
 428 44 360 0 230 0 c 2
 0 0 l 1
 0 140 l 1
 192 140 l 2
 273 140 321 141 352 147 c 1
 305 172 271 194 240 219 c 0
 196 256 183 289 183 322 c 0
 183 390 237 573 341 573 c 0
 444 573 543 396 543 277 c 0
 543 232 529 202 512 173 c 1
 515 168 539 157 573 148 c 0
 600 141 614 140 666 140 c 2
259 379 m 0
 259 320 316 276 419 204 c 1
 428 229 433 260 433 288 c 0
 433 392 356 473 317 473 c 0
 285 473 259 418 259 379 c 0
EndSplineSet
Validated: 1
EndChar

StartChar: uni06A1.init
Encoding: 1114221 -1 120
Width: 700
GlyphClass: 2
Flags: MW
HStem: 0 140<0 317 0 369> 232 139<406 421.5> 571 109<399.5 444>
VStem: 278 79<298.5 443.5> 568 80<235 242 242 242>
AnchorPoint: "Anchor-1" 420 850 basechar 0
AnchorPoint: "Anchor-0" 500 -80 basechar 0
LayerCount: 2
Fore
SplineSet
450 680 m 0
 547 680 648 473 648 269 c 0
 648 54 536 0 317 0 c 2
 0 0 l 1
 0 140 l 1
 369 140 l 2
 518 140 568 157 568 235 c 2
 568 242 l 1
 494 236 439 232 404 232 c 0
 306 232 278 261 278 336 c 0
 278 455 349 680 450 680 c 0
447 371 m 0
 469 371 500 372 544 374 c 1
 517 470 470 571 418 571 c 0
 364 571 357 463 357 424 c 0
 357 383 365 371 447 371 c 0
EndSplineSet
Validated: 1
EndChar

StartChar: uni066F
Encoding: 1647 1647 121
Width: 700
GlyphClass: 2
Flags: MW
HStem: -196 140<243 391.5 243 428.5> 172 138 534 101
VStem: 19 64<81.5 123> 300 79<358.5 390.5 358.5 396.5> 574 94
AnchorPoint: "Anchor-1" 464 850 basechar 0
AnchorPoint: "Anchor-0" 420 -270 basechar 0
LayerCount: 2
Fore
SplineSet
668 239 m 0
 674 -32 542 -196 315 -196 c 0
 137 -196 19 -95 19 79 c 0
 19 167 49 268 95 298 c 1
 110 276 l 1
 94 249 83 191 83 146 c 0
 83 17 173 -56 313 -56 c 0
 470 -56 566 36 574 172 c 1
 325 164 300 273 300 337 c 0
 300 456 385 635 466 635 c 0
 513 635 569 574 615 477 c 0
 639 426 666 353 668 239 c 0
379 378 m 0
 379 339 454 318 557 310 c 1
 526 427 463 536 436 534 c 0
 407 532 379 403 379 378 c 0
EndSplineSet
Validated: 33
Substitution2: "'fina' Terminal Forms lookup 31 subtable" uni066F.fina
Substitution2: "'aalt' Access All Alternates lookup 0 subtable" uni066F.fina
EndChar

StartChar: uni066F.fina
Encoding: 1114222 -1 122
Width: 700
GlyphClass: 2
Flags: MW
HStem: -350 140<227 384.5 227 423.5> 0 140<668 700 668 700 667 700> 371 105
VStem: 0 64<-45 12.5> 300 79<197 235.5> 565 102
AnchorPoint: "Anchor-1" 400 750 basechar 0
AnchorPoint: "Anchor-0" 420 -420 basechar 0
LayerCount: 2
Fore
SplineSet
668 140 m 1
 700 140 l 1
 700 0 l 1
 667 0 l 1
 667 -210 524 -350 323 -350 c 0
 119 -350 0 -205 0 -30 c 0
 0 55 28 112 64 156 c 1
 89 126 l 1
 73 97 64 69 64 23 c 0
 64 -113 142 -210 312 -210 c 0
 457 -210 552 -140 565 2 c 1
 358 12 300 65 300 172 c 0
 300 299 382 476 468 476 c 0
 517 476 563 419 599 349 c 0
 636 277 662 192 668 140 c 1
379 228 m 0
 379 166 417 146 558 141 c 1
 542 253 502 381 443 371 c 0
 395 363 379 268 379 228 c 0
EndSplineSet
Validated: 33
EndChar

StartChar: uni0642
Encoding: 1602 1602 123
Width: 700
GlyphClass: 2
Flags: MW
HStem: -196 140<243 391.5 243 428.5> 172 138 534 101
VStem: 19 64<81.5 123> 300 79<358.5 390.5 358.5 396.5> 574 94
AnchorPoint: "Anchor-1" 430 1050 basechar 0
AnchorPoint: "Anchor-0" 420 -270 basechar 0
LayerCount: 2
Fore
SplineSet
639 823 m 1
 555 729 l 1
 467 821 l 1
 552 914 l 1
 639 823 l 1
414 821 m 1
 331 726 l 1
 243 818 l 1
 327 911 l 1
 414 821 l 1
668 239 m 0
 674 -32 542 -196 315 -196 c 0
 137 -196 19 -95 19 79 c 0
 19 167 49 268 95 298 c 1
 110 276 l 1
 94 249 83 191 83 146 c 0
 83 17 173 -56 313 -56 c 0
 470 -56 566 36 574 172 c 1
 325 164 300 273 300 337 c 0
 300 456 385 635 466 635 c 0
 513 635 569 574 615 477 c 0
 639 426 666 353 668 239 c 0
379 378 m 0
 379 339 454 318 557 310 c 1
 526 427 463 536 436 534 c 0
 407 532 379 403 379 378 c 0
EndSplineSet
Validated: 33
Substitution2: "'fina' Terminal Forms lookup 31 subtable" uniFED6
Substitution2: "'medi' Medial Forms lookup 30 subtable" uniFED8
Substitution2: "'init' Initial Forms lookup 29 subtable" uniFED7
AlternateSubs2: "'aalt' Access All Alternates lookup 1 subtable" uniFED7 uniFED8 uniFED6
EndChar

StartChar: uniFED6
Encoding: 65238 65238 124
Width: 700
GlyphClass: 2
Flags: MW
HStem: -350 140<227 384.5 227 423.5> 0 140<668 700 668 700 667 700> 371 105
VStem: 0 64<-45 12.5> 300 79<197 235.5> 565 102
AnchorPoint: "Anchor-1" 400 900 basechar 0
AnchorPoint: "Anchor-0" 420 -420 basechar 0
LayerCount: 2
Fore
SplineSet
657 664 m 1
 573 570 l 1
 485 662 l 1
 570 755 l 1
 657 664 l 1
432 662 m 1
 349 567 l 1
 261 659 l 1
 345 752 l 1
 432 662 l 1
668 140 m 1
 700 140 l 1
 700 0 l 1
 667 0 l 1
 667 -210 524 -350 323 -350 c 0
 119 -350 0 -205 0 -30 c 0
 0 55 28 112 64 156 c 1
 89 126 l 1
 73 97 64 69 64 23 c 0
 64 -113 142 -210 312 -210 c 0
 457 -210 552 -140 565 2 c 1
 358 12 300 65 300 172 c 0
 300 299 382 476 468 476 c 0
 517 476 563 419 599 349 c 0
 636 277 662 192 668 140 c 1
379 228 m 0
 379 166 417 146 558 141 c 1
 542 253 502 381 443 371 c 0
 395 363 379 268 379 228 c 0
EndSplineSet
Validated: 33
EndChar

StartChar: uniFED8
Encoding: 65240 65240 125
Width: 700
GlyphClass: 2
Flags: MW
HStem: 0 140<0 192 192 230 0 192 666 700> 473 100<301 336.5>
VStem: 183 76<349.5 356> 433 110<274 336.5 254.5 340>
AnchorPoint: "Anchor-1" 350 1040 basechar 0
AnchorPoint: "Anchor-0" 440 -110 basechar 0
LayerCount: 2
Fore
SplineSet
545 760 m 1
 461 666 l 1
 373 758 l 1
 458 851 l 1
 545 760 l 1
320 758 m 1
 237 663 l 1
 149 755 l 1
 233 848 l 1
 320 758 l 1
666 140 m 2
 700 140 l 1
 700 0 l 1
 645 0 l 2
 602 0 526 36 459 98 c 1
 428 44 360 0 230 0 c 2
 0 0 l 1
 0 140 l 1
 192 140 l 2
 273 140 321 141 352 147 c 1
 305 172 271 194 240 219 c 0
 196 256 183 289 183 322 c 0
 183 390 237 573 341 573 c 0
 444 573 543 396 543 277 c 0
 543 232 529 202 512 173 c 1
 515 168 539 157 573 148 c 0
 600 141 614 140 666 140 c 2
259 379 m 0
 259 320 316 276 419 204 c 1
 428 229 433 260 433 288 c 0
 433 392 356 473 317 473 c 0
 285 473 259 418 259 379 c 0
EndSplineSet
Validated: 1
EndChar

StartChar: uniFED7
Encoding: 65239 65239 126
Width: 700
GlyphClass: 2
Flags: MW
HStem: 0 140<0 317 0 369> 232 139<406 421.5> 571 109<399.5 444>
VStem: 278 79<298.5 443.5> 568 80<235 242 242 242>
AnchorPoint: "Anchor-1" 420 1080 basechar 0
AnchorPoint: "Anchor-0" 500 -110 basechar 0
LayerCount: 2
Fore
SplineSet
611 858 m 1
 527 764 l 1
 439 856 l 1
 524 949 l 1
 611 858 l 1
386 856 m 1
 303 761 l 1
 215 853 l 1
 299 946 l 1
 386 856 l 1
450 680 m 0
 547 680 648 473 648 269 c 0
 648 54 536 0 317 0 c 2
 0 0 l 1
 0 140 l 1
 369 140 l 2
 518 140 568 157 568 235 c 2
 568 242 l 1
 494 236 439 232 404 232 c 0
 306 232 278 261 278 336 c 0
 278 455 349 680 450 680 c 0
447 371 m 0
 469 371 500 372 544 374 c 1
 517 470 470 571 418 571 c 0
 364 571 357 463 357 424 c 0
 357 383 365 371 447 371 c 0
EndSplineSet
Validated: 1
EndChar

StartChar: uni0643
Encoding: 1603 1603 127
Width: 700
GlyphClass: 2
Flags: MW
HStem: 0 140<133 213 213 450> 870 20G<690 690>
VStem: 168 62<521.5 523> 269 75<406 425.5> 603 87<228 317>
AnchorPoint: "Anchor-1" 330 830 basechar 0
AnchorPoint: "Anchor-0" 350 -110 basechar 0
LayerCount: 2
Fore
SplineSet
213 0 m 2
 53 0 1 21 1 140 c 1
 513 140 l 2
 578 140 603 178 603 278 c 0
 603 356 588 531 570 795 c 1
 690 890 l 1
 690 195 l 2
 690 56 621 0 450 0 c 2
 213 0 l 2
132 297 m 1
 137 339 l 1
 201 368 269 395 269 416 c 0
 269 435 219 445 183 459 c 0
 174 462 168 466 168 487 c 0
 168 559 237 633 295 633 c 0
 304 633 319 631 331 625 c 1
 293 566 l 1
 263 569 230 549 230 535 c 0
 230 508 344 499 344 441 c 0
 344 371 178 314 132 297 c 1
EndSplineSet
Validated: 33
Substitution2: "'fina' Terminal Forms lookup 31 subtable" uniFEDA
Substitution2: "'medi' Medial Forms lookup 30 subtable" uniFEDC
Substitution2: "'init' Initial Forms lookup 29 subtable" uniFEDB
AlternateSubs2: "'aalt' Access All Alternates lookup 1 subtable" uniFEDB uniFEDC uniFEDA
EndChar

StartChar: uniFEDA
Encoding: 65242 65242 128
Width: 700
GlyphClass: 2
Flags: MW
HStem: 0 140<173 213 213 398 690 700> 870 20G<665 673 673 673>
VStem: 0 57<204.5 225.5> 228 62<541.5 543> 329 75<426 445.5> 575 98 613 87<0 248>
AnchorPoint: "Anchor-1" 320 860 basechar 0
AnchorPoint: "Anchor-0" 400 -110 basechar 0
LayerCount: 2
Fore
SplineSet
213 0 m 2xfc
 53 0 0 51 0 170 c 0
 0 281 46 344 68 393 c 1
 86 379 l 1
 72 344 57 264 57 229 c 0
 57 180 86 140 173 140 c 2
 418 140 l 2
 524 140 568 159 575 293 c 0
 581 417 555 669 542 787 c 1
 665 890 l 1
 673 890 l 1
 673 796 657 353 663 258 c 0xfc
 666 213 680 140 700 140 c 1
 700 0 l 1xfa
 654 0 613 68 613 248 c 1
 598 9 498 0 398 0 c 2
 213 0 l 2xfc
192 317 m 1
 197 359 l 1
 261 388 329 415 329 436 c 0
 329 455 279 465 243 479 c 0
 234 482 228 486 228 507 c 0
 228 579 297 653 355 653 c 0
 364 653 379 651 391 645 c 1
 353 586 l 1
 323 589 290 569 290 555 c 0
 290 528 404 519 404 461 c 0
 404 391 238 334 192 317 c 1
EndSplineSet
Validated: 33
EndChar

StartChar: uniFEDC
Encoding: 65244 65244 129
Width: 700
GlyphClass: 2
Flags: MW
HStem: 0 140<0 70 70 136.5 0 295 0 70 666 700> 870 20G<575 575>
VStem: 0 700<0 140 0 140> 441.78 258.22
AnchorPoint: "Anchor-1" 350 970 basechar 0
AnchorPoint: "Anchor-0" 420 -110 basechar 0
LayerCount: 2
Fore
SplineSet
666 140 m 2xe0
 700 140 l 1
 700 0 l 1
 662 0 l 2
 609 0 550 61 508 155 c 1
 476 78 405 0 295 0 c 2
 0 0 l 1
 0 140 l 1
 70 140 l 2
 203 140 368 131 430 165 c 1xd0
 510 251 161 423 132 417 c 1
 103 417 84 435 121 572 c 1
 206 705 461 848 575 890 c 1
 562 764 l 1
 179 536 l 1
 325 491 473 384 515 298 c 1
 543 250 552 205 583 176 c 0
 607 154 640 140 666 140 c 2xe0
EndSplineSet
Validated: 33
Substitution2: "Single Substitution lookup 54 subtable" uniFEDC.kafAlef
Substitution2: "'aalt' Access All Alternates lookup 0 subtable" uniFEDC.kafAlef
EndChar

StartChar: uniFEDC.kafAlef
Encoding: 1114223 -1 130
Width: 700
GlyphClass: 2
Flags: MW
HStem: 0 140<0 242 242 355 0 242 678 700> 317 124 410 20G<-95 -95>
VStem: 512 94<190.5 347.5> 577 123
AnchorPoint: "Anchor-1" 250 970 basechar 0
AnchorPoint: "Anchor-0" 350 -110 basechar 0
LayerCount: 2
Fore
SplineSet
678 140 m 2xd0
 700 140 l 1
 700 0 l 1
 678 0 l 2
 626 0 588 56 577 146 c 1xc8
 545 71 480 0 355 0 c 2
 0 0 l 1
 0 140 l 1
 242 140 l 2
 481 140 512 162 512 219 c 0
 512 313 430 324 318 321 c 2
 18 313 l 2
 -128 308 -164 329 -168 391 c 0xd0
 -177 542 6 713 264 812 c 1
 233 679 l 1
 89 605 -51 514 -95 430 c 1xa8
 314 441 l 2
 490 446 606 414 606 281 c 0
 606 266 604 246 601 225 c 1
 607 173 634 140 678 140 c 2xd0
EndSplineSet
Validated: 33
EndChar

StartChar: uniFEDB
Encoding: 65243 65243 131
Width: 700
GlyphClass: 2
Flags: MW
HStem: 0 140<0 150 150 216.5 0 375 0 150> 870 20G<655 655>
VStem: 521.78 86.3
AnchorPoint: "Anchor-1" 350 970 basechar 0
AnchorPoint: "Anchor-0" 420 -110 basechar 0
LayerCount: 2
Fore
SplineSet
655 890 m 1
 642 764 l 1
 259 536 l 1
 422 486 587 358 606 269 c 0
 623 190 547 0 375 0 c 2
 0 0 l 1
 0 140 l 1
 150 140 l 2
 283 140 448 131 510 165 c 1
 590 251 241 423 212 417 c 1
 183 417 164 435 201 572 c 1
 286 705 541 848 655 890 c 1
EndSplineSet
Validated: 33
Substitution2: "Single Substitution lookup 54 subtable" uniFEDB.kafAlef
Substitution2: "'aalt' Access All Alternates lookup 0 subtable" uniFEDB.kafAlef
EndChar

StartChar: uniFEDB.kafAlef
Encoding: 1114224 -1 132
Width: 700
GlyphClass: 2
Flags: MW
HStem: 0 140<0 242 242 355 0 242> 317 124 410 20G<-95 -95>
VStem: 512 94<241 266>
AnchorPoint: "Anchor-1" 250 970 basechar 0
AnchorPoint: "Anchor-0" 350 -110 basechar 0
LayerCount: 2
Fore
SplineSet
314 441 m 2xd0
 490 446 606 414 606 281 c 0
 606 201 564 0 355 0 c 2
 0 0 l 1
 0 140 l 1
 242 140 l 2
 481 140 512 162 512 219 c 0
 512 313 430 324 318 321 c 2
 18 313 l 2
 -128 308 -164 329 -168 391 c 0xd0
 -177 542 6 713 264 812 c 1
 233 679 l 1
 89 605 -51 514 -95 430 c 1xb0
 314 441 l 2xd0
EndSplineSet
Validated: 33
EndChar

StartChar: uni06A9
Encoding: 1705 1705 133
Width: 700
GlyphClass: 2
Flags: MW
HStem: 0 140<120.5 150 150 216.5 120.5 375> 870 20G<655 655>
VStem: 521.78 86.3
AnchorPoint: "Anchor-1" 350 970 basechar 0
AnchorPoint: "Anchor-0" 350 -110 basechar 0
LayerCount: 2
Fore
SplineSet
655 890 m 1
 642 764 l 1
 259 536 l 1
 422 486 587 358 606 269 c 0
 623 190 547 0 375 0 c 2
 150 0 l 2
 60 0 0 51 0 128 c 0
 0 200 23 269 57 300 c 1
 66 296 68 271 64 238 c 0
 57 179 91 140 150 140 c 0
 283 140 448 131 510 165 c 1
 590 251 241 423 212 417 c 1
 183 417 164 435 201 572 c 1
 286 705 541 848 655 890 c 1
EndSplineSet
Validated: 33
Substitution2: "'fina' Terminal Forms lookup 31 subtable" uniFB8F
Substitution2: "'medi' Medial Forms lookup 30 subtable" uniFB91
Substitution2: "'init' Initial Forms lookup 29 subtable" uniFB90
AlternateSubs2: "'aalt' Access All Alternates lookup 1 subtable" uniFB90 uniFB91 uniFB8F
EndChar

StartChar: uniFB8F
Encoding: 64399 64399 134
Width: 700
GlyphClass: 2
Flags: MW
HStem: 0 140<120.5 150 150 216.5 120.5 375 688 700> 870 20G<655 655>
VStem: 521.78 178.22
AnchorPoint: "Anchor-1" 350 970 basechar 0
AnchorPoint: "Anchor-0" 400 -110 basechar 0
LayerCount: 2
Fore
SplineSet
688 140 m 2
 700 140 l 1
 700 0 l 1
 688 0 l 2
 658 0 625 61 588 154 c 1
 555 77 485 0 375 0 c 2
 150 0 l 2
 60 0 0 51 0 128 c 0
 0 200 23 269 57 300 c 1
 66 296 68 271 64 238 c 0
 57 179 91 140 150 140 c 0
 283 140 448 131 510 165 c 1
 590 251 241 423 212 417 c 1
 183 417 164 435 201 572 c 1
 286 705 541 848 655 890 c 1
 642 764 l 1
 259 536 l 1
 408 490 558 380 598 293 c 1
 639 224 671 140 688 140 c 2
EndSplineSet
Validated: 33
EndChar

StartChar: uniFB91
Encoding: 64401 64401 135
Width: 700
GlyphClass: 2
Flags: MW
HStem: 0 140<0 70 70 136.5 0 295 0 70 666 700> 870 20G<575 575>
VStem: 0 700<0 140 0 140> 441.78 258.22
AnchorPoint: "Anchor-1" 350 970 basechar 0
AnchorPoint: "Anchor-0" 420 -110 basechar 0
LayerCount: 2
Fore
SplineSet
666 140 m 2xe0
 700 140 l 1
 700 0 l 1
 662 0 l 2
 609 0 550 61 508 155 c 1
 476 78 405 0 295 0 c 2
 0 0 l 1
 0 140 l 1
 70 140 l 2
 203 140 368 131 430 165 c 1xd0
 510 251 161 423 132 417 c 1
 103 417 84 435 121 572 c 1
 206 705 461 848 575 890 c 1
 562 764 l 1
 179 536 l 1
 325 491 473 384 515 298 c 1
 543 250 552 205 583 176 c 0
 607 154 640 140 666 140 c 2xe0
EndSplineSet
Validated: 33
EndChar

StartChar: uniFB90
Encoding: 64400 64400 136
Width: 700
GlyphClass: 2
Flags: MW
HStem: 0 140<0 150 150 216.5 0 375 0 150> 870 20G<655 655>
VStem: 521.78 86.3
AnchorPoint: "Anchor-1" 350 970 basechar 0
AnchorPoint: "Anchor-0" 420 -110 basechar 0
LayerCount: 2
Fore
SplineSet
655 890 m 1
 642 764 l 1
 259 536 l 1
 422 486 587 358 606 269 c 0
 623 190 547 0 375 0 c 2
 0 0 l 1
 0 140 l 1
 150 140 l 2
 283 140 448 131 510 165 c 1
 590 251 241 423 212 417 c 1
 183 417 164 435 201 572 c 1
 286 705 541 848 655 890 c 1
EndSplineSet
Validated: 33
EndChar

StartChar: uni06AF
Encoding: 1711 1711 137
Width: 700
GlyphClass: 2
Flags: MW
HStem: 0 140<120.5 150 150 216.5 120.5 375> 870 20G<655 655>
VStem: 521.78 86.3
AnchorPoint: "Anchor-1" 350 1070 basechar 0
AnchorPoint: "Anchor-0" 350 -110 basechar 0
LayerCount: 2
Fore
SplineSet
584 1014 m 1
 414 930 274 834 192 750 c 1
 178 819 l 1
 277 904 419 1001 570 1084 c 1
 584 1014 l 1
655 890 m 1
 642 764 l 1
 259 536 l 1
 422 486 587 358 606 269 c 0
 623 190 547 0 375 0 c 2
 150 0 l 2
 60 0 0 51 0 128 c 0
 0 200 23 269 57 300 c 1
 66 296 68 271 64 238 c 0
 57 179 91 140 150 140 c 0
 283 140 448 131 510 165 c 1
 590 251 241 423 212 417 c 1
 183 417 164 435 201 572 c 1
 286 705 541 848 655 890 c 1
EndSplineSet
Validated: 33
Substitution2: "'fina' Terminal Forms lookup 31 subtable" uniFB93
Substitution2: "'medi' Medial Forms lookup 30 subtable" uniFB95
Substitution2: "'init' Initial Forms lookup 29 subtable" uniFB94
AlternateSubs2: "'aalt' Access All Alternates lookup 1 subtable" uniFB94 uniFB95 uniFB93
EndChar

StartChar: uniFB93
Encoding: 64403 64403 138
Width: 700
GlyphClass: 2
Flags: MW
HStem: 0 140<120.5 150 150 216.5 120.5 375 688 700> 870 20G<655 655>
VStem: 521.78 178.22
AnchorPoint: "Anchor-1" 350 1080 basechar 0
AnchorPoint: "Anchor-0" 400 -110 basechar 0
LayerCount: 2
Fore
SplineSet
574 1003 m 1
 404 919 264 823 182 739 c 1
 168 808 l 1
 267 893 409 990 560 1073 c 1
 574 1003 l 1
688 140 m 2
 700 140 l 1
 700 0 l 1
 688 0 l 2
 658 0 625 61 588 154 c 1
 555 77 485 0 375 0 c 2
 150 0 l 2
 60 0 0 51 0 128 c 0
 0 200 23 269 57 300 c 1
 66 296 68 271 64 238 c 0
 57 179 91 140 150 140 c 0
 283 140 448 131 510 165 c 1
 590 251 241 423 212 417 c 1
 183 417 164 435 201 572 c 1
 286 705 541 848 655 890 c 1
 642 764 l 1
 259 536 l 1
 408 490 558 380 598 293 c 1
 639 224 671 140 688 140 c 2
EndSplineSet
Validated: 33
EndChar

StartChar: uniFB95
Encoding: 64405 64405 139
Width: 700
GlyphClass: 2
Flags: MW
HStem: 0 140<0 70 70 136.5 0 295 0 70 666 700> 870 20G<575 575>
VStem: 0 700<0 140 0 140> 441.78 258.22
AnchorPoint: "Anchor-1" 350 1100 basechar 0
AnchorPoint: "Anchor-0" 420 -110 basechar 0
LayerCount: 2
Fore
SplineSet
514 1014 m 1xe0
 344 930 204 834 122 750 c 1
 108 819 l 1
 207 904 349 1001 500 1084 c 1
 514 1014 l 1xe0
666 140 m 2
 700 140 l 1
 700 0 l 1
 662 0 l 2
 609 0 550 61 508 155 c 1
 476 78 405 0 295 0 c 2
 0 0 l 1
 0 140 l 1
 70 140 l 2
 203 140 368 131 430 165 c 1xd0
 510 251 161 423 132 417 c 1
 103 417 84 435 121 572 c 1
 206 705 461 848 575 890 c 1
 562 764 l 1
 179 536 l 1
 325 491 473 384 515 298 c 1
 543 250 552 205 583 176 c 0
 607 154 640 140 666 140 c 2
EndSplineSet
Validated: 33
EndChar

StartChar: uniFB94
Encoding: 64404 64404 140
Width: 700
GlyphClass: 2
Flags: MW
HStem: 0 140<0 150 150 216.5 0 375 0 150> 870 20G<655 655>
VStem: 521.78 86.3
AnchorPoint: "Anchor-1" 350 1100 basechar 0
AnchorPoint: "Anchor-0" 420 -110 basechar 0
LayerCount: 2
Fore
SplineSet
584 1014 m 1
 414 930 274 834 192 750 c 1
 178 819 l 1
 277 904 419 1001 570 1084 c 1
 584 1014 l 1
655 890 m 1
 642 764 l 1
 259 536 l 1
 422 486 587 358 606 269 c 0
 623 190 547 0 375 0 c 2
 0 0 l 1
 0 140 l 1
 150 140 l 2
 283 140 448 131 510 165 c 1
 590 251 241 423 212 417 c 1
 183 417 164 435 201 572 c 1
 286 705 541 848 655 890 c 1
EndSplineSet
Validated: 33
EndChar

StartChar: uni0644
Encoding: 1604 1604 141
Width: 700
GlyphClass: 2
Flags: MW
HStem: -263 140 870 20G<611 611>
VStem: 86 63 513 114
AnchorPoint: "Anchor-1" 460 950 basechar 0
AnchorPoint: "Anchor-0" 370 -370 basechar 0
LayerCount: 2
Fore
SplineSet
353 -263 m 0
 203 -268 91 -174 86 -14 c 0
 83 78 116 187 171 239 c 1
 196 217 l 1
 164 186 144 73 149 16 c 0
 157 -78 234 -126 346 -123 c 0
 446 -120 514 -70 513 6 c 0
 508 313 491 562 470 754 c 1
 611 890 l 1
 627 72 l 2
 631 -124 526 -257 353 -263 c 0
EndSplineSet
Validated: 33
Substitution2: "'fina' Terminal Forms lookup 31 subtable" uniFEDE
Substitution2: "'medi' Medial Forms lookup 30 subtable" uniFEE0
Substitution2: "'init' Initial Forms lookup 29 subtable" uniFEDF
AlternateSubs2: "'aalt' Access All Alternates lookup 1 subtable" uniFEDF uniFEE0 uniFEDE
EndChar

StartChar: uniFEDE
Encoding: 65246 65246 142
Width: 700
GlyphClass: 2
Flags: MW
HStem: -350 140<190 298 190 331> 0 140<644.5 700 662 700> 870 20G<524 524>
VStem: 0 64<-106.5 -32> 431 112<-58 54>
AnchorPoint: "Anchor-1" 460 950 basechar 0
AnchorPoint: "Anchor-0" 450 -400 basechar 0
LayerCount: 2
Fore
SplineSet
240 -350 m 0
 96 -350 0 -246 0 -91 c 0
 0 27 36 136 90 182 c 1
 105 160 l 1
 80 121 64 32 64 -62 c 0
 64 -151 136 -210 244 -210 c 0
 352 -210 431 -123 431 7 c 0
 431 101 405 658 393 771 c 1
 524 890 l 1
 533 672 529 190 544 172 c 0
 574 137 624 140 662 140 c 2
 700 140 l 1
 700 0 l 1
 662 0 l 2
 627 0 586 8 543 61 c 1
 543 -186 422 -350 240 -350 c 0
EndSplineSet
Validated: 33
EndChar

StartChar: uniFEE0
Encoding: 65248 65248 143
Width: 700
GlyphClass: 2
Flags: MW
HStem: 0 140<0 105 0 105 105 185 611.5 700> 870 20G<438 448 448 448>
VStem: 341 108<235.5 293 235.5 342.5>
AnchorPoint: "Anchor-1" 360 990 basechar 0
AnchorPoint: "Anchor-0" 424 -110 basechar 0
LayerCount: 2
Fore
SplineSet
0 0 m 1
 0 140 l 1
 105 140 l 2
 328 140 341 181 341 289 c 0
 341 396 328 603 309 771 c 1
 438 890 l 1
 448 890 l 1
 449 293 l 2
 449 178 496 140 700 140 c 1
 700 0 l 1
 523 0 415 28 392 248 c 1
 354 47 310 0 185 0 c 2
 0 0 l 1
EndSplineSet
Validated: 1
Substitution2: "Single Substitution lookup 54 subtable" uniFEE0.LamHeh
Substitution2: "Single Substitution lookup 7 subtable" uniFEE0.LamLamInit
Substitution2: "Single Substitution lookup 6 subtable" uniFEE0.Lellah
Substitution2: "Single Substitution lookup 4 subtable" uniFEE0.FaLellah
Substitution2: "'aalt' Access All Alternates lookup 0 subtable" uniFEE0.LamHeh
EndChar

StartChar: uniFEE0.FaLellah
Encoding: 1114225 -1 144
Width: 700
GlyphClass: 2
Flags: MW
HStem: -20 140<181.5 282> 0 140<655 700>
VStem: 408 92<237 237 237 302>
AnchorPoint: "Anchor-1" 448 1090 basechar 0
AnchorPoint: "Anchor-0" 520 -99 basechar 0
LayerCount: 2
Fore
SplineSet
500 237 m 1x60
 505 165 533 140 700 140 c 1
 700 0 l 1x60
 610 0 530 14 483 99 c 1
 442 2 335 -20 229 -20 c 0
 134 -20 54 -2 0 38 c 1
 0 198 l 1
 35 157 106 120 229 120 c 0xa0
 384 120 408 179 408 257 c 0
 408 347 376 570 351 722 c 1
 472 837 l 1
 562 681 l 1
 516 633 500 590 500 397 c 2
 500 237 l 1x60
EndSplineSet
Validated: 1
EndChar

StartChar: uniFEE0.LamHeh
Encoding: 1114226 -1 145
Width: 700
GlyphClass: 2
Flags: MW
HStem: -273 141<88 172.5 88 182> 0 140<528.5 700 625 700 625 700> 870 20G<345 345>
VStem: 201 144<789 890> 262 71.6
AnchorPoint: "Anchor-1" 230 950 basechar 0
AnchorPoint: "Anchor-0" 330 -350 basechar 0
LayerCount: 2
Fore
SplineSet
113 -273 m 0xe8
 59 -273 41 -255 0 -216 c 1
 0 -71 l 1
 29 -114 58 -132 118 -132 c 0
 227 -132 272 -74 262 75 c 0xe8
 245 330 212 708 201 789 c 1
 345 890 l 1
 349 692 349 346 355 272 c 0xf0
 364 157 435 140 625 140 c 2
 700 140 l 1
 700 0 l 1
 591 0 l 2
 466 0 390 7 325 140 c 1
 367 -156 251 -273 113 -273 c 0xe8
EndSplineSet
Validated: 33
EndChar

StartChar: uniFEE0.LamLamInit
Encoding: 1114227 -1 146
Width: 700
GlyphClass: 2
Flags: MW
HStem: 0 140<0 205 0 205 205 285 661.5 700> 870 20G<538 548 548 548>
VStem: 441 108<235.5 293 235.5 342.5>
AnchorPoint: "Anchor-1" 446 990 basechar 0
AnchorPoint: "Anchor-0" 494 -110 basechar 0
LayerCount: 2
Fore
SplineSet
0 0 m 1
 0 140 l 1
 205 140 l 2
 428 140 441 181 441 289 c 0
 441 396 428 603 409 771 c 1
 538 890 l 1
 548 890 l 1
 549 293 l 2
 549 178 596 140 700 140 c 1
 700 0 l 1
 623 0 515 28 492 248 c 1
 454 47 410 0 285 0 c 2
 0 0 l 1
EndSplineSet
Validated: 1
Substitution2: "Single Substitution lookup 54 subtable" uniFEE0.LamHeh
Substitution2: "'aalt' Access All Alternates lookup 0 subtable" uniFEE0.LamHeh
EndChar

StartChar: uniFEE0.Lellah
Encoding: 1114228 -1 147
Width: 700
GlyphClass: 2
Flags: MW
HStem: -20 140<246 395>
VStem: 0 28<133 679 658 679> 566 106.34 628 72
AnchorPoint: "Anchor-1" 673 982 basechar 0
AnchorPoint: "Anchor-0" 677 -116 basechar 0
LayerCount: 2
Fore
SplineSet
301 -20 m 0xe0
 112 -20 40 54 0 133 c 1
 0 658 l 1
 28 679 l 1
 35 401 41 317 49 277 c 0
 73 152 157 120 335 120 c 0
 492 120 566 145 566 331 c 0
 566 428 546 589 533 702 c 1
 676 807 l 1
 684 805 l 1
 694 730 663 323 675 250 c 0xe0
 678 234 686 216 700 198 c 1
 700 38 l 1
 661 68 636 109 628 164 c 1xd0
 584 53 489 -20 301 -20 c 0xe0
EndSplineSet
Validated: 33
MultipleSubs2: "Multiple Substitution lookup 3 subtable" uniFEE0.Lellah uni0651 uni0670
EndChar

StartChar: uniFEDF
Encoding: 65247 65247 148
Width: 700
GlyphClass: 2
Flags: MW
HStem: 0 140<0 292 0 273> 870 20G<456 456>
VStem: 382 102<219.5 299.5>
AnchorPoint: "Anchor-1" 429 990 basechar 0
AnchorPoint: "Anchor-0" 451 -110 basechar 0
LayerCount: 2
Fore
SplineSet
0 0 m 1
 0 140 l 1
 292 140 l 2
 370 140 382 189 382 250 c 0
 382 349 351 615 325 775 c 1
 456 890 l 1
 546 734 l 1
 481 666 l 1
 481 608 484 549 484 397 c 2
 484 195 l 2
 484 56 430 0 273 0 c 2
 0 0 l 1
EndSplineSet
Validated: 1
Substitution2: "Single Substitution lookup 7 subtable" uniFEDF.LamLamInit
Substitution2: "Single Substitution lookup 5 subtable" uniFEDF.Lellah
EndChar

StartChar: uniFEDF.LamLamInit
Encoding: 1114229 -1 149
Width: 700
GlyphClass: 2
Flags: MW
HStem: 0 140<0 292 0 273> 870 20G<456 456>
VStem: 382 102<219.5 299.5>
AnchorPoint: "Anchor-1" 429 990 basechar 0
AnchorPoint: "Anchor-0" 451 -110 basechar 0
LayerCount: 2
Fore
SplineSet
0 0 m 1
 0 140 l 1
 292 140 l 2
 370 140 382 189 382 250 c 0
 382 349 351 615 325 775 c 1
 456 890 l 1
 546 734 l 1
 481 666 l 1
 481 608 484 549 484 397 c 2
 484 195 l 2
 484 56 430 0 273 0 c 2
 0 0 l 1
EndSplineSet
Validated: 1
EndChar

StartChar: uniFEDF.Lellah
Encoding: 1114230 -1 150
Width: 700
GlyphClass: 2
Flags: MW
HStem: -20 140<181.5 296>
VStem: 398 102<218 302>
AnchorPoint: "Anchor-1" 448 1090 basechar 0
AnchorPoint: "Anchor-0" 520 -99 basechar 0
LayerCount: 2
Fore
SplineSet
0 198 m 1
 35 157 106 120 229 120 c 0
 374 120 398 179 398 257 c 0
 398 347 366 570 351 722 c 1
 472 837 l 1
 562 681 l 1
 516 633 500 590 500 397 c 2
 500 195 l 2
 500 15 363 -20 229 -20 c 0
 134 -20 54 -2 0 38 c 1
 0 198 l 1
EndSplineSet
Validated: 1
EndChar

StartChar: uni0645
Encoding: 1605 1605 151
Width: 700
GlyphClass: 2
Flags: MW
HStem: 0 140<283 326 326 575 255 592> 349 126<403.5 422.5>
VStem: 129 9<-494 -492>
AnchorPoint: "Anchor-1" 400 680 basechar 0
AnchorPoint: "Anchor-0" 380 -500 basechar 0
LayerCount: 2
Fore
SplineSet
431 475 m 0
 560 475 680 146 680 105 c 0
 680 81 638 0 592 0 c 2
 326 0 l 2
 240 0 180 -1 180 -47 c 0
 180 -77 206 -235 232 -392 c 1
 138 -494 l 1
 129 -492 l 1
 121 -407 119 -411 84 -122 c 0
 73 -31 124 121 255 140 c 1
 575 140 l 1
 537 202 440 349 405 349 c 0
 374 349 308 232 270 232 c 0
 258 232 252 244 252 262 c 0
 252 288 265 325 283 357 c 0
 316 416 376 475 431 475 c 0
EndSplineSet
Validated: 33
Substitution2: "'fina' Terminal Forms lookup 31 subtable" uniFEE2
Substitution2: "'medi' Medial Forms lookup 30 subtable" uniFEE4
Substitution2: "'init' Initial Forms lookup 29 subtable" uniFEE3
AlternateSubs2: "'aalt' Access All Alternates lookup 1 subtable" uniFEE3 uniFEE4 uniFEE2
EndChar

StartChar: uniFEE2
Encoding: 65250 65250 152
Width: 700
GlyphClass: 2
Flags: MW
HStem: 0 140<659.5 700 678 700 678 700> 106 13 373 81
VStem: 65.84 634.16
AnchorPoint: "Anchor-1" 370 680 basechar 0
AnchorPoint: "Anchor-0" 400 -500 basechar 0
LayerCount: 2
Fore
SplineSet
678 140 m 2xb0
 700 140 l 1
 700 0 l 1
 670 0 l 2
 649 0 627 7 584 45 c 0xb0
 560 66 542 85 530 106 c 1x70
 537 72 514 5 483 -24 c 1
 407 -10 310 17 216 63 c 1
 189 34 175 17 157 -19 c 1
 202 -396 l 1
 97 -491 l 1
 89 -489 l 1
 89 -397 74 -146 67 -29 c 0
 61 67 76 84 171 139 c 1
 203 152 324 421 373 445 c 0
 394 455 476 459 502 445 c 0
 564 412 580 140 678 140 c 2xb0
283 175 m 1x70
 366 140 427 126 517 119 c 1
 491 162 450 278 405 373 c 1
 343 299 292 201 283 175 c 1x70
EndSplineSet
Validated: 33
EndChar

StartChar: uniFEE4
Encoding: 65252 65252 153
Width: 700
GlyphClass: 2
Flags: MW
HStem: 0 140<0 57 0 91 678 700> 106 13 373 81
VStem: 0 700<0 140 0 140>
AnchorPoint: "Anchor-1" 350 680 basechar 0
AnchorPoint: "Anchor-0" 480 -110 basechar 0
LayerCount: 2
Fore
SplineSet
678 140 m 2xb0
 700 140 l 1
 700 0 l 1
 660 0 l 2
 599 0 577 7 534 45 c 0xb0
 510 66 492 85 480 106 c 1x70
 487 72 464 5 433 -24 c 1
 357 -10 260 17 166 63 c 1
 141 0 101 0 57 0 c 2
 0 0 l 1
 0 140 l 1
 91 140 l 2
 153 140 273 420 323 445 c 0
 343 455 426 459 452 445 c 0
 514 412 530 140 678 140 c 2xb0
234 175 m 1x70
 316 140 377 126 467 119 c 1
 442 161 410 258 355 373 c 1
 292 298 245 204 234 175 c 1x70
EndSplineSet
Validated: 33
EndChar

StartChar: uniFEE3
Encoding: 65251 65251 154
Width: 700
GlyphClass: 2
Flags: MW
HStem: 0 140<0 127 0 161> 373 81
VStem: 0 635
AnchorPoint: "Anchor-1" 400 680 basechar 0
AnchorPoint: "Anchor-0" 510 -110 basechar 0
LayerCount: 2
Fore
SplineSet
635 216 m 1
 642 182 534 5 503 -24 c 1
 427 -10 330 17 236 63 c 1
 211 0 171 0 127 0 c 2
 0 0 l 1
 0 140 l 1
 161 140 l 2
 223 140 343 420 393 445 c 0
 413 455 496 459 522 445 c 0
 563 423 597 312 635 216 c 1
306 174 m 1
 385 141 445 126 530 120 c 1
 506 178 475 277 425 373 c 1
 369 306 321 219 306 174 c 1
EndSplineSet
Validated: 33
Substitution2: "'ss01' Style Set 1 lookup 36 subtable" uniFEE3.ss01
Substitution2: "'salt' Stylistic Alternatives lookup 35 subtable" uniFEE3.ss01
Substitution2: "'aalt' Access All Alternates lookup 0 subtable" uniFEE3.ss01
EndChar

StartChar: uniFEE3.ss01
Encoding: 1114231 -1 155
Width: 700
GlyphClass: 2
Flags: MW
HStem: 0 140<0 222 0 82>
VStem: 0 627
AnchorPoint: "Anchor-1" 400 680 basechar 0
AnchorPoint: "Anchor-0" 510 -110 basechar 0
LayerCount: 2
Fore
SplineSet
0 0 m 1
 0 140 l 1
 222 140 l 2
 304 140 348 142 383 149 c 1
 340 176 293 237 293 289 c 0
 293 326 313 361 340 400 c 0
 372 446 393 464 421 464 c 0
 490 464 582 358 627 289 c 1
 624 201 611 128 568 84 c 0
 488 3 281 0 82 0 c 2
 0 0 l 1
EndSplineSet
Validated: 1
EndChar

StartChar: uni0646
Encoding: 1606 1606 156
Width: 700
GlyphClass: 2
Flags: MW
HStem: -186 140<214.5 358.5 214.5 403>
VStem: 27 74 582 77<67.5 116>
AnchorPoint: "Anchor-1" 302 800 basechar 0
AnchorPoint: "Anchor-0" 410 -320 basechar 0
LayerCount: 2
Fore
SplineSet
269 432 m 1
 182 526 l 1
 269 619 l 1
 355 526 l 1
 269 432 l 1
293 -186 m 0
 119 -186 13 -68 27 109 c 0
 33 185 58 261 89 298 c 1
 119 276 l 1
 108 249 101 199 101 151 c 0
 101 33 166 -46 263 -46 c 0
 454 -46 582 19 582 116 c 1
 577 178 536 282 481 376 c 1
 574 481 l 1
 617 388 651 266 659 176 c 1
 659 -41 513 -186 293 -186 c 0
EndSplineSet
Validated: 33
Substitution2: "'fina' Terminal Forms lookup 31 subtable" uniFEE6
Substitution2: "'medi' Medial Forms lookup 30 subtable" uniFEE8
Substitution2: "'init' Initial Forms lookup 29 subtable" uniFEE7
AlternateSubs2: "'aalt' Access All Alternates lookup 1 subtable" uniFEE7 uniFEE8 uniFEE6
EndChar

StartChar: uniFEE6
Encoding: 65254 65254 157
Width: 700
GlyphClass: 2
Flags: MW
HStem: 0 140<673.5 700 684 700>
VStem: 0.339996 73.66 550.88 65.12
AnchorPoint: "Anchor-1" 300 781 basechar 0
AnchorPoint: "Anchor-0" 410 -500 basechar 0
LayerCount: 2
Fore
SplineSet
230 361 m 1
 143 455 l 1
 230 548 l 1
 316 455 l 1
 230 361 l 1
253 -350 m 0
 15 -328 -12 -140 4 8 c 0
 15 109 28 156 61 206 c 1
 95 184 l 1
 84 159 74 111 74 44 c 0
 74 -113 124 -184 252 -205 c 0
 413 -231 580 -93 547 73 c 0
 532 149 459 280 445 303 c 1
 546 404 l 1
 578 341 622 140 684 140 c 2
 700 140 l 1
 700 0 l 1
 684 0 l 2
 663 0 653 0 616 46 c 1
 616 -273 413 -365 253 -350 c 0
EndSplineSet
Validated: 33
EndChar

StartChar: uniFEE8
Encoding: 65256 65256 158
Width: 700
GlyphClass: 2
Flags: MW
HStem: 0 140<0 230 230 239 0 230 645 700>
VStem: 405 119<201.5 274>
AnchorPoint: "Anchor-1" 300 900 basechar 0
AnchorPoint: "Anchor-0" 400 -110 basechar 0
LayerCount: 2
Fore
SplineSet
257 536 m 1
 170 630 l 1
 257 723 l 1
 343 630 l 1
 257 536 l 1
700 140 m 1
 700 0 l 1
 555 0 491 33 452 164 c 1
 414 47 364 0 239 0 c 2
 0 0 l 1
 0 140 l 1
 230 140 l 2
 345 140 405 144 405 259 c 0
 405 289 401 325 395 365 c 1
 524 448 l 1
 522 400 522 224 524 193 c 0
 528 142 590 140 700 140 c 1
EndSplineSet
Validated: 33
EndChar

StartChar: uniFEE7
Encoding: 65255 65255 159
Width: 700
GlyphClass: 2
Flags: MW
HStem: 0 140<0 486 0 457>
VStem: 558 117
AnchorPoint: "Anchor-1" 320 860 basechar 0
AnchorPoint: "Anchor-0" 450 -110 basechar 0
LayerCount: 2
Fore
SplineSet
316 536 m 1
 229 630 l 1
 316 723 l 1
 402 630 l 1
 316 536 l 1
0 0 m 1
 0 140 l 1
 486 140 l 2
 524 140 560 155 558 196 c 0
 557 230 525 361 506 409 c 1
 607 510 l 1
 626 461 675 296 675 222 c 0
 675 124 589 0 457 0 c 2
 0 0 l 1
EndSplineSet
Validated: 33
EndChar

StartChar: uni06BA
Encoding: 1722 1722 160
Width: 700
GlyphClass: 2
Flags: MW
HStem: -186 140<214.5 358.5 214.5 403>
VStem: 27 74 582 77<67.5 116>
AnchorPoint: "Anchor-1" 350 700 basechar 0
AnchorPoint: "Anchor-0" 410 -320 basechar 0
LayerCount: 2
Fore
SplineSet
293 -186 m 0
 119 -186 13 -68 27 109 c 0
 33 185 58 261 89 298 c 1
 119 276 l 1
 108 249 101 199 101 151 c 0
 101 33 166 -46 263 -46 c 0
 454 -46 582 19 582 116 c 1
 577 178 536 282 481 376 c 1
 574 481 l 1
 617 388 651 266 659 176 c 1
 659 -41 513 -186 293 -186 c 0
EndSplineSet
Validated: 33
Substitution2: "'fina' Terminal Forms lookup 31 subtable" uniFB9F
Substitution2: "'aalt' Access All Alternates lookup 0 subtable" uniFB9F
EndChar

StartChar: uniFB9F
Encoding: 64415 64415 161
Width: 700
GlyphClass: 2
Flags: MW
HStem: -350 142.03 0 140<673.5 700 684 700>
VStem: 0.339996 73.66 550.88 65.12
AnchorPoint: "Anchor-1" 350 600 basechar 0
AnchorPoint: "Anchor-0" 420 -500 basechar 0
LayerCount: 2
Fore
SplineSet
253 -350 m 0
 15 -328 -12 -140 4 8 c 0
 15 109 28 156 61 206 c 1
 95 184 l 1
 84 159 74 111 74 44 c 0
 74 -113 124 -184 252 -205 c 0
 413 -231 580 -93 547 73 c 0
 532 149 459 280 445 303 c 1
 546 404 l 1
 578 341 622 140 684 140 c 2
 700 140 l 1
 700 0 l 1
 684 0 l 2
 663 0 653 0 616 46 c 1
 616 -273 413 -365 253 -350 c 0
EndSplineSet
Validated: 33
EndChar

StartChar: uni0647
Encoding: 1607 1607 162
Width: 700
GlyphClass: 2
Flags: MW
HStem: -34 126<386 450 386 459>
VStem: 210 100<152.5 174.5> 560 79<153 194>
AnchorPoint: "Anchor-1" 374 680 basechar 0
AnchorPoint: "Anchor-0" 438 -120 basechar 0
LayerCount: 2
Fore
SplineSet
575 377 m 0
 631 320 639 267 639 227 c 0
 639 67 515 -34 403 -34 c 0
 286 -34 210 14 210 129 c 0
 210 220 270 306 363 360 c 1
 328 375 287 389 239 409 c 1
 336 506 l 1
 394 488 506 447 575 377 c 0
414 92 m 0
 486 92 560 133 560 173 c 0
 560 215 509 269 487 289 c 0
 462 312 434 329 401 344 c 1
 356 303 310 233 310 183 c 0
 310 122 358 92 414 92 c 0
EndSplineSet
Validated: 1
Substitution2: "'fina' Terminal Forms lookup 31 subtable" uniFEEA
Substitution2: "'medi' Medial Forms lookup 30 subtable" uniFEEC
Substitution2: "'init' Initial Forms lookup 29 subtable" uniFEEB
AlternateSubs2: "'aalt' Access All Alternates lookup 1 subtable" uniFEEB uniFEEC uniFEEA
EndChar

StartChar: uniFEEA
Encoding: 65258 65258 163
Width: 700
GlyphClass: 2
Flags: MW
HStem: 0 140<560 581 581 700> 96.9 140.1
VStem: 69 110.19 371 68
AnchorPoint: "Anchor-1" 330 800 basechar 0
AnchorPoint: "Anchor-0" 400 -110 basechar 0
LayerCount: 2
Fore
SplineSet
560 140 m 2xb0
 700 140 l 1
 700 0 l 1
 581 0 l 2xb0
 467 0 411 81 393 176 c 1
 352 118 l 1
 296 81 173 98 112 126 c 0
 77 142 69 160 69 192 c 0x70
 69 224 77 288 167 385 c 0
 245 469 342 523 362 534 c 1
 342 610 l 1
 439 648 l 1
 449 384 449 371 460 276 c 0
 468 206 483 140 560 140 c 2xb0
250 237 m 0x70
 296 237 328 241 380 253 c 1
 383 313 380 350 371 435 c 1
 327 408 255 361 203 301 c 0
 157 248 180 237 250 237 c 0x70
EndSplineSet
Validated: 33
Substitution2: "Single Substitution lookup 54 subtable" uniFEEA.LamHeh
Substitution2: "Single Substitution lookup 2 subtable" uniFEEA.Lellah
Substitution2: "'aalt' Access All Alternates lookup 0 subtable" uniFEEA.LamHeh
EndChar

StartChar: uniFEEA.LamHeh
Encoding: 1114232 -1 164
Width: 700
GlyphClass: 2
Flags: MW
HStem: -66.1 140.1
VStem: 262 110.3 574 95
AnchorPoint: "Anchor-1" 400 660 basechar 0
AnchorPoint: "Anchor-0" 490 -266 basechar 0
LayerCount: 2
Fore
SplineSet
673 186 m 0
 676 51 679 -34 700 -71 c 1
 700 -216 l 1
 642 -171 604 -82 586 13 c 1
 545 -45 l 1
 489 -82 365 -65 305 -37 c 0
 270 -21 262 -3 262 29 c 0
 262 58 269 125 360 222 c 0
 436 303 521 352 555 371 c 1
 535 447 l 1
 669 492 l 1
 669 425 670 310 673 186 c 0
445 74 m 0
 488 74 531 78 583 90 c 1
 586 149 583 186 574 270 c 1
 530 247 448 199 396 138 c 0
 350 85 373 74 445 74 c 0
EndSplineSet
Validated: 33
EndChar

StartChar: uniFEEA.Lellah
Encoding: 1114233 -1 165
Width: 700
GlyphClass: 2
Flags: MW
HStem: 105.9 140.1
VStem: 353 110.3 655 45
AnchorPoint: "Anchor-1" 700 900 basechar 0
AnchorPoint: "Anchor-0" 687 -72 basechar 0
LayerCount: 2
Fore
SplineSet
646 619 m 1
 700 658 l 1
 700 133 l 1
 691 150 684 168 677 185 c 1
 636 127 l 1
 580 90 457 107 396 135 c 0
 361 151 353 169 353 201 c 0
 353 230 360 297 451 394 c 0
 529 477 617 527 646 543 c 1
 646 619 l 1
536 246 m 0
 581 246 616 250 664 264 c 1
 667 321 664 359 655 440 c 1
 621 426 547 381 487 310 c 0
 441 257 464 246 536 246 c 0
EndSplineSet
Validated: 33
EndChar

StartChar: uniFEEC
Encoding: 65260 65260 166
Width: 700
GlyphClass: 2
Flags: MW
HStem: -387 129<381 405> 0 139 359 124<442.5 443.5>
VStem: 155 59<-122.5 0> 455 63<-226.5 -187> 475 62<313.5 320>
AnchorPoint: "Anchor-1" 370 700 basechar 0
AnchorPoint: "Anchor-0" 390 -500 basechar 0
LayerCount: 2
Fore
SplineSet
700 140 m 1x58
 700 0 l 1
 441 0 l 1
 488 -56 518 -119 518 -183 c 0xd8
 518 -290 434 -387 376 -387 c 0
 341 -387 272 -353 228 -295 c 0
 215 -278 172 -217 160 -101 c 0
 157 -71 155 -38 155 0 c 1
 0 0 l 1
 0 140 l 1
 187 140 l 1
 244 272 253 313 312 382 c 0
 365 444 418 483 467 483 c 0
 518 483 537 442 537 366 c 0xf4
 537 261 501 196 413 138 c 1
 700 140 l 1x58
349 324 m 0x74
 327 301 291 243 253 140 c 1
 293 140 320 141 340 145 c 0
 408 159 475 247 475 306 c 0
 475 334 460 359 427 359 c 0
 409 359 376 352 349 324 c 0x74
455 -211 m 0xd8
 455 -163 391 -89 372 -68 c 0
 319 -9 290 0 269 0 c 0
 247 0 214 -10 214 -80 c 0
 214 -165 350 -258 412 -258 c 0
 430 -258 455 -242 455 -211 c 0xd8
EndSplineSet
Validated: 1
EndChar

StartChar: uniFEEB
Encoding: 65259 65259 167
Width: 700
GlyphClass: 2
Flags: MW
HStem: 0 132<0 491.5> 0 140<0 97 0 422 0 97> 543 135<442.5 483.5>
VStem: 97 84<187.5 228> 358 76<216 216.5> 574 106<201.5 252.5>
AnchorPoint: "Anchor-1" 380 860 basechar 0
AnchorPoint: "Anchor-0" 410 -110 basechar 0
LayerCount: 2
Fore
SplineSet
485 678 m 0x7c
 600 678 680 360 680 265 c 0
 680 138 539 0 422 0 c 2
 0 0 l 1
 0 140 l 1
 97 140 l 1
 97 316 236 373 306 376 c 1
 341 503 400 678 485 678 c 0x7c
459 132 m 0xbc
 524 132 574 152 574 218 c 0
 574 287 518 543 449 543 c 0
 408 543 378 452 335 374 c 1
 394 362 434 307 434 236 c 0
 434 196 421 172 384 139 c 1
 400 134 438 132 459 132 c 0xbc
270 141 m 0x7c
 321 141 358 161 358 196 c 0
 358 237 306 319 261 319 c 0
 225 319 181 264 181 211 c 0
 181 164 216 141 270 141 c 0x7c
EndSplineSet
Validated: 1
EndChar

StartChar: uni06C1
Encoding: 1729 1729 168
Width: 700
GlyphClass: 2
Flags: MW
HStem: -34 126<386 450 386 459>
VStem: 210 100<152.5 174.5> 560 79<153 194>
AnchorPoint: "Anchor-1" 374 680 basechar 0
AnchorPoint: "Anchor-0" 438 -120 basechar 0
LayerCount: 2
Fore
SplineSet
575 377 m 0
 631 320 639 267 639 227 c 0
 639 67 515 -34 403 -34 c 0
 286 -34 210 14 210 129 c 0
 210 220 270 306 363 360 c 1
 328 375 287 389 239 409 c 1
 336 506 l 1
 394 488 506 447 575 377 c 0
414 92 m 0
 486 92 560 133 560 173 c 0
 560 215 509 269 487 289 c 0
 462 312 434 329 401 344 c 1
 356 303 310 233 310 183 c 0
 310 122 358 92 414 92 c 0
EndSplineSet
Validated: 1
Substitution2: "'fina' Terminal Forms lookup 31 subtable" uniFBA7
Substitution2: "'medi' Medial Forms lookup 30 subtable" uniFBA9
Substitution2: "'init' Initial Forms lookup 29 subtable" uniFBA8
AlternateSubs2: "'aalt' Access All Alternates lookup 1 subtable" uniFBA8 uniFBA9 uniFBA7
EndChar

StartChar: uniFBA7
Encoding: 64423 64423 169
Width: 700
GlyphClass: 2
Flags: MW
HStem: 0 140<502 700 648 700 648 700>
VStem: 120.28 579.72
AnchorPoint: "Anchor-1" 350 700 basechar 0
AnchorPoint: "Anchor-0" 440 -110 basechar 0
LayerCount: 2
Fore
SplineSet
144 -41 m 0
 130 -42 123 -26 121 -1 c 0
 111 107 202 394 298 403 c 0
 336 406 378 367 396 337 c 0
 410 314 439 248 467 204 c 0
 506 143 553 140 648 140 c 2
 700 140 l 1
 700 0 l 1
 583 0 l 2
 421 0 361 118 325 185 c 0
 317 200 309 217 285 215 c 0
 266 213 259 201 253 189 c 0
 232 144 191 -36 144 -41 c 0
EndSplineSet
Validated: 33
Substitution2: "Single Substitution lookup 2 subtable" uniFEEA.Lellah
EndChar

StartChar: uniFBA9
Encoding: 64425 64425 170
Width: 700
GlyphClass: 2
Flags: MW
HStem: 0 140<0 38 38 52 0 38 560 641 641 700>
VStem: 0 700<0 140 0 140>
AnchorPoint: "Anchor-1" 350 600 basechar 0
AnchorPoint: "Anchor-0" 500 -380 basechar 0
LayerCount: 2
Fore
SplineSet
222 -387 m 0
 204 -387 190 -379 178 -313 c 0
 167 -253 161 -173 161 -113 c 0
 161 -12 184 51 184 71 c 0
 184 76 182 79 179 79 c 0
 172 79 112 0 52 0 c 2
 0 0 l 1
 0 140 l 1
 38 140 l 2
 160 140 191 276 272 276 c 0
 293 276 306 267 306 232 c 0
 306 185 283 69 248 -162 c 1
 363 79 492 140 550 140 c 2
 700 140 l 1
 700 0 l 1
 641 0 l 2
 479 0 354 -96 311 -238 c 0
 293 -299 282 -387 222 -387 c 0
EndSplineSet
Validated: 1
EndChar

StartChar: uniFBA8
Encoding: 64424 64424 171
Width: 700
GlyphClass: 2
Flags: MW
HStem: 0 140<0 457 0 486>
VStem: 383.97 72.03 558 117
AnchorPoint: "Anchor-1" 350 650 basechar 0
AnchorPoint: "Anchor-0" 500 -440 basechar 0
LayerCount: 2
Fore
SplineSet
675 222 m 0
 675 150 628 63 550 23 c 1
 500 -32 456 -88 456 -127 c 0
 456 -153 475 -164 489 -169 c 0
 535 -185 588 -204 582 -272 c 0
 577 -331 532 -361 482 -356 c 0
 388 -347 378 -228 386 -175 c 0
 394 -118 435 -54 484 2 c 1
 475 1 466 0 457 0 c 2
 0 0 l 1
 0 140 l 1
 486 140 l 2
 524 140 560 155 558 196 c 0
 557 230 525 361 506 409 c 1
 607 510 l 1
 626 461 675 296 675 222 c 0
EndSplineSet
Validated: 33
EndChar

StartChar: uni06C2
Encoding: 1730 1730 172
Width: 700
GlyphClass: 2
Flags: MW
HStem: -34 126<386 450 386 459> 878 70<328 344>
VStem: 210 100<152.5 174.5> 246 47<835 839> 560 79<153 194>
AnchorPoint: "Anchor-1" 369 1060 basechar 0
AnchorPoint: "Anchor-0" 440 -120 basechar 0
LayerCount: 2
Fore
SplineSet
251 642 m 0xe8
 243 638 241 650 240 655 c 0
 234 673 233 677 233 682 c 0
 233 690 239 696 249 702 c 2
 304 734 l 1
 261 749 246 777 246 809 c 0
 246 869 296 948 360 948 c 0
 397 948 412 921 414 874 c 0
 415 861 409 854 402 854 c 0
 397 854 358 878 330 878 c 0
 302 878 293 866 293 849 c 0
 293 821 309 762 370 762 c 0xd8
 382 762 408 763 426 763 c 0
 449 763 455 761 463 748 c 2
 473 731 l 2
 479 719 465 711 455 709 c 0
 320 678 312 676 251 642 c 0xe8
575 377 m 0
 631 320 639 267 639 227 c 0
 639 67 515 -34 403 -34 c 0
 286 -34 210 14 210 129 c 0
 210 220 270 306 363 360 c 1
 328 375 287 389 239 409 c 1
 336 506 l 1
 394 488 506 447 575 377 c 0
414 92 m 0
 486 92 560 133 560 173 c 0
 560 215 509 269 487 289 c 0
 462 312 434 329 401 344 c 1
 356 303 310 233 310 183 c 0
 310 122 358 92 414 92 c 0
EndSplineSet
Validated: 1
Substitution2: "'fina' Terminal Forms lookup 31 subtable" uni06C2.fina
Substitution2: "'aalt' Access All Alternates lookup 0 subtable" uni06C2.fina
EndChar

StartChar: uni06C2.fina
Encoding: 1114234 -1 173
Width: 700
GlyphClass: 2
Flags: MW
HStem: 0 140<502 700 648 700 648 700> 779 70<273 289>
VStem: 191 47<736 740>
AnchorPoint: "Anchor-1" 369 1040 basechar 0
AnchorPoint: "Anchor-0" 440 -110 basechar 0
LayerCount: 2
Fore
SplineSet
196 543 m 0
 188 539 186 551 185 556 c 0
 179 574 178 578 178 583 c 0
 178 591 184 597 194 603 c 2
 249 635 l 1
 206 650 191 678 191 710 c 0
 191 770 241 849 305 849 c 0
 342 849 357 822 359 775 c 0
 360 762 354 755 347 755 c 0
 342 755 303 779 275 779 c 0
 247 779 238 767 238 750 c 0
 238 722 254 663 315 663 c 0
 327 663 353 664 371 664 c 0
 394 664 400 662 408 649 c 2
 418 632 l 2
 424 620 410 612 400 610 c 0
 265 579 257 577 196 543 c 0
144 -41 m 0
 130 -42 123 -26 121 -1 c 0
 111 107 202 394 298 403 c 0
 336 406 378 367 396 337 c 0
 410 314 439 248 467 204 c 0
 506 143 553 140 648 140 c 2
 700 140 l 1
 700 0 l 1
 583 0 l 2
 421 0 361 118 325 185 c 0
 317 200 309 217 285 215 c 0
 266 213 259 201 253 189 c 0
 232 144 191 -36 144 -41 c 0
EndSplineSet
Validated: 33
EndChar

StartChar: uni06BE
Encoding: 1726 1726 174
Width: 700
GlyphClass: 2
Flags: MW
HStem: -3 135<448.5 491.5 448.5 501.5> 543 135<442.5 483.5>
VStem: 97 84<187.5 226.5> 358 76<216 216.5> 574 106<206 252.5>
AnchorPoint: "Anchor-1" 380 860 basechar 0
AnchorPoint: "Anchor-0" 410 -110 basechar 0
LayerCount: 2
Fore
SplineSet
485 678 m 0
 600 678 680 360 680 265 c 0
 680 147 556 -3 447 -3 c 0
 420 -3 328 0 288 39 c 1
 56 -107 l 2
 45 -114 34 -116 29 -116 c 0
 10 -116 0 -83 0 -65 c 0
 0 -38 21 -15 117 42 c 2
 154 64 l 1
 108 78 97 110 97 153 c 0
 97 300 226 373 306 376 c 1
 341 503 400 678 485 678 c 0
459 132 m 0
 524 132 574 152 574 218 c 0
 574 287 518 543 449 543 c 0
 408 543 378 452 335 373 c 1
 394 361 434 306 434 236 c 0
 434 196 421 172 384 139 c 1
 400 134 438 132 459 132 c 0
270 141 m 0
 321 141 358 161 358 196 c 0
 358 237 306 319 261 319 c 0
 225 319 181 264 181 211 c 0
 181 164 216 141 270 141 c 0
EndSplineSet
Validated: 1
Substitution2: "'fina' Terminal Forms lookup 31 subtable" uniFBAB
Substitution2: "'medi' Medial Forms lookup 30 subtable" uniFBAD
Substitution2: "'init' Initial Forms lookup 29 subtable" uniFBAC
AlternateSubs2: "'aalt' Access All Alternates lookup 1 subtable" uniFBAC uniFBAD uniFBAB
EndChar

StartChar: uniFBAB
Encoding: 64427 64427 175
Width: 700
GlyphClass: 2
Flags: MW
HStem: -3 135<448.5 451.5> 0 132<474 491.5 448.5 700 474 474> 0 140<642 700 642 700> 543 135<442.5 483.5>
VStem: 97 84<187.5 226.5> 358 76<216 216.5> 574 126<0 252.5>
AnchorPoint: "Anchor-1" 380 860 basechar 0
AnchorPoint: "Anchor-0" 410 -110 basechar 0
LayerCount: 2
Fore
SplineSet
700 140 m 1x3e
 700 0 l 1
 474 0 l 2x3e
 465 -2 456 -3 447 -3 c 0
 420 -3 328 0 288 39 c 1x9e
 56 -107 l 2
 45 -114 34 -116 29 -116 c 0
 10 -116 0 -83 0 -65 c 0
 0 -38 21 -15 117 42 c 2
 154 64 l 1
 108 78 97 110 97 153 c 0
 97 300 226 373 306 376 c 1
 341 503 400 678 485 678 c 0
 600 678 680 360 680 265 c 0
 680 225 666 181 642 140 c 1
 700 140 l 1x3e
384 139 m 1x5e
 400 134 438 132 459 132 c 0
 524 132 574 152 574 218 c 0
 574 287 518 543 449 543 c 0
 408 543 378 452 335 373 c 1
 394 361 434 306 434 236 c 0
 434 196 421 172 384 139 c 1x5e
270 141 m 0
 321 141 358 161 358 196 c 0
 358 237 306 319 261 319 c 0
 225 319 181 264 181 211 c 0
 181 164 216 141 270 141 c 0
EndSplineSet
Validated: 1
EndChar

StartChar: uniFBAD
Encoding: 64429 64429 176
Width: 700
GlyphClass: 2
Flags: MW
HStem: 0 132<0 491.5 422 491.5 448.5 491.5 448.5 700> 0 140<0 97 0 422 0 97 639 700> 543 135<442.5 483.5>
VStem: 97 84<187.5 228> 358 76<216 216.5> 574 106<244 252.5>
AnchorPoint: "Anchor-1" 380 860 basechar 0
AnchorPoint: "Anchor-0" 410 -110 basechar 0
LayerCount: 2
Fore
SplineSet
639 140 m 1x7c
 700 140 l 1
 700 0 l 1
 424 0 l 1
 422 0 l 1
 0 0 l 1
 0 140 l 1
 97 140 l 1
 97 316 236 373 306 376 c 1
 341 503 400 678 485 678 c 0
 600 678 680 360 680 265 c 0
 680 223 664 179 639 140 c 1x7c
384 139 m 1xbc
 400 134 438 132 459 132 c 0
 524 132 574 152 574 218 c 0
 574 287 518 543 449 543 c 0
 408 543 378 452 335 374 c 1
 394 362 434 307 434 236 c 0
 434 196 421 172 384 139 c 1xbc
270 141 m 0x7c
 321 141 358 161 358 196 c 0
 358 237 306 319 261 319 c 0
 225 319 181 264 181 211 c 0
 181 164 216 141 270 141 c 0x7c
EndSplineSet
Validated: 1
EndChar

StartChar: uniFBAC
Encoding: 64428 64428 177
Width: 700
GlyphClass: 2
Flags: MW
HStem: 0 132<0 491.5> 0 140<0 97 0 422 0 97> 543 135<442.5 483.5>
VStem: 97 84<187.5 228> 358 76<216 216.5> 574 106<201.5 252.5>
AnchorPoint: "Anchor-1" 380 860 basechar 0
AnchorPoint: "Anchor-0" 410 -110 basechar 0
LayerCount: 2
Fore
SplineSet
485 678 m 0x7c
 600 678 680 360 680 265 c 0
 680 138 539 0 422 0 c 2
 0 0 l 1
 0 140 l 1
 97 140 l 1
 97 316 236 373 306 376 c 1
 341 503 400 678 485 678 c 0x7c
459 132 m 0xbc
 524 132 574 152 574 218 c 0
 574 287 518 543 449 543 c 0
 408 543 378 452 335 374 c 1
 394 362 434 307 434 236 c 0
 434 196 421 172 384 139 c 1
 400 134 438 132 459 132 c 0xbc
270 141 m 0x7c
 321 141 358 161 358 196 c 0
 358 237 306 319 261 319 c 0
 225 319 181 264 181 211 c 0
 181 164 216 141 270 141 c 0x7c
EndSplineSet
Validated: 1
EndChar

StartChar: uni0629
Encoding: 1577 1577 178
Width: 700
GlyphClass: 2
Flags: MW
HStem: -34 126<386 450 386 459>
VStem: 210 100<152.5 174.5> 560 79<153 194>
AnchorPoint: "Anchor-1" 369 900 basechar 0
AnchorPoint: "Anchor-0" 440 -120 basechar 0
LayerCount: 2
Fore
SplineSet
581 683 m 1
 497 589 l 1
 409 681 l 1
 494 774 l 1
 581 683 l 1
356 681 m 1
 273 586 l 1
 185 678 l 1
 269 771 l 1
 356 681 l 1
575 377 m 0
 631 320 639 267 639 227 c 0
 639 67 515 -34 403 -34 c 0
 286 -34 210 14 210 129 c 0
 210 220 270 306 363 360 c 1
 328 375 287 389 239 409 c 1
 336 506 l 1
 394 488 506 447 575 377 c 0
414 92 m 0
 486 92 560 133 560 173 c 0
 560 215 509 269 487 289 c 0
 462 312 434 329 401 344 c 1
 356 303 310 233 310 183 c 0
 310 122 358 92 414 92 c 0
EndSplineSet
Validated: 1
Substitution2: "'fina' Terminal Forms lookup 31 subtable" uniFE94
Substitution2: "'aalt' Access All Alternates lookup 0 subtable" uniFE94
EndChar

StartChar: uniFE94
Encoding: 65172 65172 179
Width: 700
GlyphClass: 2
Flags: MW
HStem: 0 140<560 581 581 700> 96.9 140.1 884 20G<223 223>
VStem: 69 110.19 371 68
AnchorPoint: "Anchor-1" 320 1096 basechar 0
AnchorPoint: "Anchor-0" 400 -110 basechar 0
LayerCount: 2
Fore
SplineSet
535 816 m 1xb8
 451 722 l 1
 363 814 l 1
 448 907 l 1
 535 816 l 1xb8
310 814 m 1
 227 719 l 1
 139 811 l 1
 223 904 l 1
 310 814 l 1
560 140 m 2
 700 140 l 1
 700 0 l 1
 581 0 l 2xb8
 467 0 411 81 393 176 c 1
 352 118 l 1
 296 81 173 98 112 126 c 0
 77 142 69 160 69 192 c 0x78
 69 224 77 288 167 385 c 0
 245 469 342 523 362 534 c 1
 342 610 l 1
 439 648 l 1
 449 384 449 371 460 276 c 0
 468 206 483 140 560 140 c 2
250 237 m 0x78
 296 237 328 241 380 253 c 1
 383 313 380 350 371 435 c 1
 327 408 255 361 203 301 c 0
 157 248 180 237 250 237 c 0x78
EndSplineSet
Validated: 33
Substitution2: "Single Substitution lookup 54 subtable" uniFE94.LamHeh
Substitution2: "'aalt' Access All Alternates lookup 0 subtable" uniFE94.LamHeh
EndChar

StartChar: uniFE94.LamHeh
Encoding: 1114235 -1 180
Width: 700
GlyphClass: 2
Flags: MW
HStem: -66.1 140.1
VStem: 262 110.3 574 95
AnchorPoint: "Anchor-1" 452 956 basechar 0
AnchorPoint: "Anchor-0" 490 -270 basechar 0
LayerCount: 2
Fore
SplineSet
717 693 m 1
 633 599 l 1
 545 691 l 1
 630 784 l 1
 717 693 l 1
492 691 m 1
 409 596 l 1
 321 688 l 1
 405 781 l 1
 492 691 l 1
669 492 m 1
 669 425 670 310 673 186 c 0
 676 51 679 -34 700 -71 c 1
 700 -216 l 1
 642 -171 604 -82 586 13 c 1
 545 -45 l 1
 489 -82 365 -65 305 -37 c 0
 270 -21 262 -3 262 29 c 0
 262 58 269 125 360 222 c 0
 436 303 521 352 555 371 c 1
 535 447 l 1
 669 492 l 1
445 74 m 0
 488 74 531 78 583 90 c 1
 586 149 583 186 574 270 c 1
 530 247 448 199 396 138 c 0
 350 85 373 74 445 74 c 0
EndSplineSet
Validated: 33
EndChar

StartChar: uni06C3
Encoding: 1731 1731 181
Width: 700
GlyphClass: 2
Flags: MW
HStem: -34 126<386 450 386 459>
VStem: 210 100<152.5 174.5> 560 79<153 194>
AnchorPoint: "Anchor-1" 369 960 basechar 0
AnchorPoint: "Anchor-0" 438 -120 basechar 0
LayerCount: 2
Fore
SplineSet
572 691 m 1
 488 597 l 1
 400 689 l 1
 485 782 l 1
 572 691 l 1
347 689 m 1
 264 594 l 1
 176 686 l 1
 260 779 l 1
 347 689 l 1
575 377 m 0
 631 320 639 267 639 227 c 0
 639 67 515 -34 403 -34 c 0
 286 -34 210 14 210 129 c 0
 210 220 270 306 363 360 c 1
 328 375 287 389 239 409 c 1
 336 506 l 1
 394 488 506 447 575 377 c 0
414 92 m 0
 486 92 560 133 560 173 c 0
 560 215 509 269 487 289 c 0
 462 312 434 329 401 344 c 1
 356 303 310 233 310 183 c 0
 310 122 358 92 414 92 c 0
EndSplineSet
Validated: 1
Substitution2: "'fina' Terminal Forms lookup 31 subtable" uni06C3.fina
Substitution2: "'aalt' Access All Alternates lookup 0 subtable" uni06C3.fina
EndChar

StartChar: uni06C3.fina
Encoding: 1114236 -1 182
Width: 700
GlyphClass: 2
Flags: MW
HStem: 0 140<502 700 648 700 648 700>
VStem: 114 586<0 656>
AnchorPoint: "Anchor-1" 368 920 basechar 0
AnchorPoint: "Anchor-0" 440 -110 basechar 0
LayerCount: 2
Fore
SplineSet
426 567 m 1
 338 659 l 1
 423 752 l 1
 510 661 l 1
 426 567 l 1
202 564 m 1
 114 656 l 1
 198 749 l 1
 285 659 l 1
 202 564 l 1
144 -41 m 0
 130 -42 123 -26 121 -1 c 0
 111 107 202 394 298 403 c 0
 336 406 378 367 396 337 c 0
 410 314 439 248 467 204 c 0
 506 143 553 140 648 140 c 2
 700 140 l 1
 700 0 l 1
 583 0 l 2
 421 0 361 118 325 185 c 0
 317 200 309 217 285 215 c 0
 266 213 259 201 253 189 c 0
 232 144 191 -36 144 -41 c 0
EndSplineSet
Validated: 33
EndChar

StartChar: uni0648
Encoding: 1608 1608 183
Width: 700
GlyphClass: 2
Flags: MW
HStem: -356 90<106 361> 43 131<358 420 358 425.5> 386 120
VStem: 214 89<232.5 263> 503 91
AnchorPoint: "Anchor-1" 350 710 basechar 0
AnchorPoint: "Anchor-0" 490 -370 basechar 0
LayerCount: 2
Fore
SplineSet
398 506 m 0
 505 506 594 272 594 85 c 0
 594 -127 481 -356 241 -356 c 0
 213 -356 185 -353 106 -317 c 1
 106 -266 l 1
 167 -266 l 2
 202 -266 271 -256 350 -199 c 0
 464 -117 495 -13 503 50 c 1
 457 45 440 43 411 43 c 0
 265 43 214 102 214 199 c 0
 214 327 304 506 398 506 c 0
407 174 m 0
 433 174 459 176 492 179 c 1
 471 272 424 377 365 386 c 0
 314 393 303 320 303 256 c 0
 303 209 309 174 407 174 c 0
EndSplineSet
Validated: 33
Substitution2: "'fina' Terminal Forms lookup 31 subtable" uniFEEE
Substitution2: "'aalt' Access All Alternates lookup 0 subtable" uniFEEE
EndChar

StartChar: uniFEEE
Encoding: 65262 65262 184
Width: 700
GlyphClass: 2
Flags: MW
HStem: -356 90<83 325.5> -2 142<322 464 445 464 445 466> 0 140<687 700>
VStem: 191 82<183 229>
AnchorPoint: "Anchor-1" 370 680 basechar 0
AnchorPoint: "Anchor-0" 470 -430 basechar 0
LayerCount: 2
Fore
SplineSet
700 140 m 1xd0
 700 0 l 1xb0
 674 0 622 0 570 -1 c 1
 547 -205 431 -356 220 -356 c 0
 190 -356 162 -353 83 -317 c 1
 83 -266 l 1
 144 -266 l 2
 168 -266 253 -251 329 -203 c 0
 415 -149 453 -77 466 -2 c 1
 414 -2 l 2
 230 -2 191 64 191 157 c 0
 191 301 283 476 362 476 c 0
 410 476 473 412 518 320 c 0
 550 255 564 192 570 140 c 1
 700 140 l 1xd0
273 226 m 0
 273 140 309 140 445 140 c 2
 464 140 l 1
 442 264 369 337 335 346 c 0
 294 358 273 291 273 226 c 0
EndSplineSet
Validated: 33
Substitution2: "Single Substitution lookup 54 subtable" uniFEEE.wawAlef
Substitution2: "'aalt' Access All Alternates lookup 0 subtable" uniFEEE.wawAlef
EndChar

StartChar: uniFEEE.wawAlef
Encoding: 1114237 -1 185
Width: 700
GlyphClass: 2
Flags: MW
HStem: -356 90<-73 169.5> -2 142<166 308 289 308 289 310> 0 140<531 544 544 700>
VStem: 35 82<183 229>
AnchorPoint: "Anchor-1" 240 680 basechar 0
AnchorPoint: "Anchor-0" 310 -430 basechar 0
LayerCount: 2
Fore
SplineSet
544 140 m 1xb0
 700 140 l 1
 700 0 l 1
 544 0 l 2xb0
 518 0 466 0 414 -1 c 1
 391 -205 275 -356 64 -356 c 0
 34 -356 6 -353 -73 -317 c 1
 -73 -266 l 1
 -12 -266 l 2
 12 -266 97 -251 173 -203 c 0
 259 -149 297 -77 310 -2 c 1
 258 -2 l 2xd0
 74 -2 35 64 35 157 c 0
 35 301 127 476 206 476 c 0
 254 476 317 412 362 320 c 0
 394 255 408 192 414 140 c 1
 544 140 l 1xb0
117 226 m 0
 117 140 153 140 289 140 c 2
 308 140 l 1
 286 264 213 337 179 346 c 0
 138 358 117 291 117 226 c 0
EndSplineSet
Validated: 33
EndChar

StartChar: uni0624
Encoding: 1572 1572 186
Width: 700
GlyphClass: 2
Flags: MW
HStem: -356 90<106 361> 43 131<358 420 358 425.5> 386 120 856 72<313 329.5>
VStem: 214 89<232.5 263> 229 48<811.5 815> 503 91
AnchorPoint: "Anchor-1" 380 1080 basechar 0
AnchorPoint: "Anchor-0" 480 -400 basechar 0
LayerCount: 2
Fore
SplineSet
234 612 m 0xfa
 225 608 223 621 222 626 c 0
 216 644 215 648 215 653 c 0
 215 662 221 668 232 674 c 2
 288 707 l 1
 244 722 229 751 229 784 c 0
 229 846 280 928 346 928 c 0
 385 928 400 900 402 851 c 0
 403 838 396 831 390 831 c 0
 385 831 344 856 315 856 c 0
 287 856 277 843 277 826 c 0
 277 797 294 736 357 736 c 0xf6
 369 736 396 737 415 737 c 0
 439 737 444 735 453 722 c 2
 463 704 l 2
 469 692 455 684 444 681 c 0
 305 649 296 647 234 612 c 0xfa
398 506 m 0
 505 506 594 272 594 85 c 0
 594 -127 481 -356 241 -356 c 0
 213 -356 185 -353 106 -317 c 1
 106 -266 l 1
 167 -266 l 2
 202 -266 271 -256 350 -199 c 0
 464 -117 495 -13 503 50 c 1
 457 45 440 43 411 43 c 0
 265 43 214 102 214 199 c 0
 214 327 304 506 398 506 c 0
407 174 m 0
 433 174 459 176 492 179 c 1
 471 272 424 377 365 386 c 0
 314 393 303 320 303 256 c 0
 303 209 309 174 407 174 c 0
EndSplineSet
Validated: 33
Substitution2: "'fina' Terminal Forms lookup 31 subtable" uniFE86
Substitution2: "'aalt' Access All Alternates lookup 0 subtable" uniFE86
EndChar

StartChar: uniFE86
Encoding: 65158 65158 187
Width: 700
GlyphClass: 2
Flags: MW
HStem: -356 90<83 325.5> -2 142<322 464 445 464 445 466> 0 140<687 700> 836 72<293 309.5>
VStem: 191 82<183 229> 209 48<791.5 795>
AnchorPoint: "Anchor-1" 350 1000 basechar 0
AnchorPoint: "Anchor-0" 470 -430 basechar 0
LayerCount: 2
Fore
SplineSet
214 592 m 0xd8
 205 588 203 601 202 606 c 0
 196 624 195 628 195 633 c 0
 195 642 201 648 212 654 c 2
 268 687 l 1
 224 702 209 731 209 764 c 0
 209 826 260 908 326 908 c 0
 365 908 380 880 382 831 c 0
 383 818 376 811 370 811 c 0
 365 811 324 836 295 836 c 0
 267 836 257 823 257 806 c 0
 257 777 274 716 337 716 c 0xd4
 349 716 376 717 395 717 c 0
 419 717 424 715 433 702 c 2
 443 684 l 2
 449 672 435 664 424 661 c 0
 285 629 276 627 214 592 c 0xd8
700 140 m 1
 700 0 l 1xb8
 674 0 622 0 570 -1 c 1
 547 -205 431 -356 220 -356 c 0
 190 -356 162 -353 83 -317 c 1
 83 -266 l 1
 144 -266 l 2
 168 -266 253 -251 329 -203 c 0
 415 -149 453 -77 466 -2 c 1
 414 -2 l 2
 230 -2 191 64 191 157 c 0
 191 301 283 476 362 476 c 0
 410 476 473 412 518 320 c 0
 550 255 564 192 570 140 c 1
 700 140 l 1
273 226 m 0
 273 140 309 140 445 140 c 2
 464 140 l 1
 442 264 369 337 335 346 c 0
 294 358 273 291 273 226 c 0
EndSplineSet
Validated: 33
Substitution2: "Single Substitution lookup 54 subtable" uniFE86.wawAlef
Substitution2: "'aalt' Access All Alternates lookup 0 subtable" uniFE86.wawAlef
EndChar

StartChar: uniFE86.wawAlef
Encoding: 1114238 -1 188
Width: 700
GlyphClass: 2
Flags: MW
HStem: -356 90<-73 169.5> -2 142<166 308 289 308 289 310> 0 140<531 544 544 700> 818 72<105 121.5>
VStem: 21 48<773.5 777> 35 82<183 229>
AnchorPoint: "Anchor-1" 200 1000 basechar 0
AnchorPoint: "Anchor-0" 310 -430 basechar 0
LayerCount: 2
Fore
SplineSet
26 574 m 0xb4
 17 570 15 583 14 588 c 0
 8 606 7 610 7 615 c 0
 7 624 13 630 24 636 c 2
 80 669 l 1
 36 684 21 713 21 746 c 0
 21 808 72 890 138 890 c 0
 177 890 192 862 194 813 c 0
 195 800 188 793 182 793 c 0
 177 793 136 818 107 818 c 0
 79 818 69 805 69 788 c 0
 69 759 86 698 149 698 c 0xb8
 161 698 188 699 207 699 c 0
 231 699 236 697 245 684 c 2
 255 666 l 2
 261 654 247 646 236 643 c 0
 97 611 88 609 26 574 c 0xb4
544 140 m 1
 700 140 l 1
 700 0 l 1
 544 0 l 2xb4
 518 0 466 0 414 -1 c 1
 391 -205 275 -356 64 -356 c 0
 34 -356 6 -353 -73 -317 c 1
 -73 -266 l 1
 -12 -266 l 2
 12 -266 97 -251 173 -203 c 0
 259 -149 297 -77 310 -2 c 1
 258 -2 l 2xd4
 74 -2 35 64 35 157 c 0
 35 301 127 476 206 476 c 0
 254 476 317 412 362 320 c 0
 394 255 408 192 414 140 c 1
 544 140 l 1
117 226 m 0
 117 140 153 140 289 140 c 2
 308 140 l 1
 286 264 213 337 179 346 c 0
 138 358 117 291 117 226 c 0
EndSplineSet
Validated: 33
EndChar

StartChar: uni0649
Encoding: 1609 1609 189
Width: 700
GlyphClass: 2
Flags: MW
HStem: -201 140<210.5 323.5 209.5 381> 455 127
VStem: 20 63<41.5 65.5> 322 82<302.5 338.5> 580 90<-4 70>
AnchorPoint: "Anchor-1" 395 800 basechar 0
AnchorPoint: "Anchor-0" 433 -270 basechar 0
LayerCount: 2
Fore
SplineSet
280 -201 m 0
 141 -201 20 -148 20 18 c 0
 20 113 59 236 110 307 c 1
 125 287 l 1
 109 229 83 170 83 97 c 0
 83 -14 142 -61 277 -61 c 0
 370 -61 580 -39 580 31 c 0
 580 109 322 113 322 287 c 0
 322 390 412 582 551 582 c 0
 608 582 650 550 685 497 c 1
 650 375 l 1
 603 434 555 462 493 455 c 0
 434 448 404 412 404 368 c 0
 404 237 670 234 670 58 c 0
 670 -90 482 -201 280 -201 c 0
EndSplineSet
Validated: 33
Substitution2: "'fina' Terminal Forms lookup 31 subtable" uniFEF0
Substitution2: "'aalt' Access All Alternates lookup 0 subtable" uniFEF0
EndChar

StartChar: uniFEF0
Encoding: 65264 65264 190
Width: 700
GlyphClass: 2
Flags: MW
HStem: -350 146<190 301.5> 0 140<645 700>
VStem: 0 64<-100 -28> 545 94<-153.5 -132 -202 -102>
AnchorPoint: "Anchor-1" 404 437 basechar 0
AnchorPoint: "Anchor-0" 480 -410 basechar 0
LayerCount: 2
Fore
SplineSet
248 -350 m 0
 73 -350 0 -261 0 -81 c 0
 0 25 25 115 130 231 c 1
 145 209 l 1
 81 104 64 39 64 -33 c 0
 64 -167 121 -204 259 -204 c 0
 352 -204 545 -187 545 -120 c 0
 545 -84 486 -35 458 -9 c 0
 414 31 400 45 360 78 c 1
 398 176 l 1
 493 152 590 140 700 140 c 1
 700 0 l 1
 644 -1 603 0 560 20 c 1
 621 -40 639 -105 639 -159 c 0
 639 -245 594 -278 521 -302 c 0
 475 -317 355 -350 248 -350 c 0
EndSplineSet
Validated: 33
Substitution2: "Single Substitution lookup 54 subtable" uniFEF0.seenYeh
Substitution2: "'aalt' Access All Alternates lookup 0 subtable" uniFEF0.seenYeh
EndChar

StartChar: uniFEF0.seenYeh
Encoding: 1114239 -1 191
Width: 700
GlyphClass: 2
Flags: MW
HStem: -350 146<191.5 298 191.5 304> 230 120<565.5 700 621.5 700 621.5 700>
VStem: 0 64<-100.5 -27> 404.64 295.36 545 94<-152.5 -100.5>
AnchorPoint: "Anchor-1" 388 600 basechar 0
AnchorPoint: "Anchor-0" 480 -400 basechar 0
LayerCount: 2
Fore
SplineSet
251 -350 m 0xe8
 73 -350 0 -262 0 -80 c 0
 0 26 25 115 130 231 c 1
 145 209 l 1
 81 104 64 39 64 -34 c 0
 64 -167 121 -204 262 -204 c 0
 334 -204 545 -188 545 -117 c 0xe8
 545 -84 498 -37 460 0 c 0
 404 55 363 166 477 299 c 0
 519 348 543 350 700 350 c 1
 700 230 l 1xf0
 591 230 l 2
 540 230 514 227 506 202 c 0
 496 170 526 123 558 79 c 0
 604 16 639 -32 639 -140 c 0
 639 -241 608 -277 521 -305 c 0
 477 -319 357 -350 251 -350 c 0xe8
EndSplineSet
Validated: 33
EndChar

StartChar: uni064A
Encoding: 1610 1610 192
Width: 700
GlyphClass: 2
Flags: MW
HStem: -201 140<210.5 323.5 209.5 381> 455 127
VStem: 20 63<41.5 65.5> 322 82<302.5 338.5> 580 90<-4 70>
AnchorPoint: "Anchor-1" 413 800 basechar 0
AnchorPoint: "Anchor-0" 420 -540 basechar 0
LayerCount: 2
Fore
SplineSet
280 -201 m 0
 141 -201 20 -148 20 18 c 0
 20 113 59 236 110 307 c 1
 125 287 l 1
 109 229 83 170 83 97 c 0
 83 -14 142 -61 277 -61 c 0
 370 -61 580 -39 580 31 c 0
 580 109 322 113 322 287 c 0
 322 390 412 582 551 582 c 0
 608 582 650 550 685 497 c 1
 650 375 l 1
 603 434 555 462 493 455 c 0
 434 448 404 412 404 368 c 0
 404 237 670 234 670 58 c 0
 670 -90 482 -201 280 -201 c 0
449 -487 m 1
 361 -395 l 1
 446 -302 l 1
 533 -393 l 1
 449 -487 l 1
225 -490 m 1
 137 -398 l 1
 221 -305 l 1
 308 -395 l 1
 225 -490 l 1
EndSplineSet
Validated: 33
Substitution2: "'fina' Terminal Forms lookup 31 subtable" uniFEF2
Substitution2: "'medi' Medial Forms lookup 30 subtable" uniFEF4
Substitution2: "'init' Initial Forms lookup 29 subtable" uniFEF3
AlternateSubs2: "'aalt' Access All Alternates lookup 1 subtable" uniFEF3 uniFEF4 uniFEF2
EndChar

StartChar: uniFEF2
Encoding: 65266 65266 193
Width: 700
GlyphClass: 2
Flags: MW
HStem: -350 146<190 301.5> 0 140<645 700>
VStem: 0 64<-100 -28> 545 94<-153.5 -132 -202 -102>
AnchorPoint: "Anchor-1" 388 437 basechar 0
AnchorPoint: "Anchor-0" 390 -650 basechar 0
LayerCount: 2
Fore
SplineSet
248 -350 m 0
 73 -350 0 -261 0 -81 c 0
 0 25 25 115 130 231 c 1
 145 209 l 1
 81 104 64 39 64 -33 c 0
 64 -167 121 -204 259 -204 c 0
 352 -204 545 -187 545 -120 c 0
 545 -84 486 -35 458 -9 c 0
 414 31 400 45 360 78 c 1
 398 176 l 1
 493 152 590 140 700 140 c 1
 700 0 l 1
 644 -1 603 0 560 20 c 1
 621 -40 639 -105 639 -159 c 0
 639 -245 594 -278 521 -302 c 0
 475 -317 355 -350 248 -350 c 0
503 -632 m 1
 415 -540 l 1
 500 -447 l 1
 587 -538 l 1
 503 -632 l 1
279 -635 m 1
 191 -543 l 1
 275 -450 l 1
 362 -540 l 1
 279 -635 l 1
EndSplineSet
Validated: 33
Substitution2: "Single Substitution lookup 54 subtable" uniFEF2.seenYeh
Substitution2: "'aalt' Access All Alternates lookup 0 subtable" uniFEF2.seenYeh
EndChar

StartChar: uniFEF2.seenYeh
Encoding: 1114240 -1 194
Width: 700
GlyphClass: 2
Flags: MW
HStem: -350 146<191.5 298 191.5 304> 230 120<565.5 700 621.5 700 621.5 700>
VStem: 0 64<-100.5 -27> 404.64 295.36 545 94<-152.5 -100.5>
AnchorPoint: "Anchor-1" 380 600 basechar 0
AnchorPoint: "Anchor-0" 420 -650 basechar 0
LayerCount: 2
Fore
SplineSet
251 -350 m 0xe8
 73 -350 0 -262 0 -80 c 0
 0 26 25 115 130 231 c 1
 145 209 l 1
 81 104 64 39 64 -34 c 0
 64 -167 121 -204 262 -204 c 0
 334 -204 545 -188 545 -117 c 0xe8
 545 -84 498 -37 460 0 c 0
 404 55 363 166 477 299 c 0
 519 348 543 350 700 350 c 1
 700 230 l 1xf0
 591 230 l 2
 540 230 514 227 506 202 c 0
 496 170 526 123 558 79 c 0
 604 16 639 -32 639 -140 c 0
 639 -241 608 -277 521 -305 c 0
 477 -319 357 -350 251 -350 c 0xe8
533 -632 m 1
 445 -540 l 1
 530 -447 l 1
 617 -538 l 1
 533 -632 l 1
309 -635 m 1
 221 -543 l 1
 305 -450 l 1
 392 -540 l 1
 309 -635 l 1
EndSplineSet
Validated: 33
EndChar

StartChar: uniFEF4
Encoding: 65268 65268 195
Width: 700
GlyphClass: 2
Flags: MW
HStem: 0 140<0 230 230 239 0 230 645 700>
VStem: 405 119<201.5 274>
AnchorPoint: "Anchor-1" 350 650 basechar 0
AnchorPoint: "Anchor-0" 420 -500 basechar 0
LayerCount: 2
Fore
SplineSet
700 140 m 1
 700 0 l 1
 555 0 491 33 452 164 c 1
 414 47 364 0 239 0 c 2
 0 0 l 1
 0 140 l 1
 230 140 l 2
 345 140 405 144 405 259 c 0
 405 289 401 325 395 365 c 1
 524 448 l 1
 522 400 522 224 524 193 c 0
 528 142 590 140 700 140 c 1
449 -347 m 1
 361 -255 l 1
 446 -162 l 1
 533 -253 l 1
 449 -347 l 1
225 -350 m 1
 137 -258 l 1
 221 -165 l 1
 308 -255 l 1
 225 -350 l 1
EndSplineSet
Validated: 33
EndChar

StartChar: uniFEF3
Encoding: 65267 65267 196
Width: 700
GlyphClass: 2
Flags: MW
HStem: 0 140<0 486 0 457>
VStem: 558 117
AnchorPoint: "Anchor-1" 350 700 basechar 0
AnchorPoint: "Anchor-0" 380 -500 basechar 0
LayerCount: 2
Fore
SplineSet
0 0 m 1
 0 140 l 1
 486 140 l 2
 524 140 560 155 558 196 c 0
 557 230 525 361 506 409 c 1
 607 510 l 1
 626 461 675 296 675 222 c 0
 675 124 589 0 457 0 c 2
 0 0 l 1
449 -347 m 1
 361 -255 l 1
 446 -162 l 1
 533 -253 l 1
 449 -347 l 1
225 -350 m 1
 137 -258 l 1
 221 -165 l 1
 308 -255 l 1
 225 -350 l 1
EndSplineSet
Validated: 33
EndChar

StartChar: uni0626
Encoding: 1574 1574 197
Width: 700
GlyphClass: 2
Flags: MW
HStem: -201 140<210.5 323.5 209.5 381> 455 127 904 70<389 405>
VStem: 20 63<41.5 65.5> 307 47<861 865> 322 82<302.5 338.5> 580 90<-4 70>
AnchorPoint: "Anchor-1" 408 1100 basechar 0
AnchorPoint: "Anchor-0" 420 -300 basechar 0
LayerCount: 2
Fore
SplineSet
312 668 m 0xf6
 304 664 302 676 301 681 c 0
 295 699 294 703 294 708 c 0
 294 716 300 722 310 728 c 2
 365 760 l 1
 322 775 307 803 307 835 c 0
 307 895 357 974 421 974 c 0
 458 974 473 947 475 900 c 0
 476 887 470 880 463 880 c 0
 458 880 419 904 391 904 c 0
 363 904 354 892 354 875 c 0
 354 847 370 788 431 788 c 0xfa
 443 788 469 789 487 789 c 0
 510 789 516 787 524 774 c 2
 534 757 l 2
 540 745 526 737 516 735 c 0
 381 704 373 702 312 668 c 0xf6
280 -201 m 0
 141 -201 20 -148 20 18 c 0
 20 113 59 236 110 307 c 1
 125 287 l 1
 109 229 83 170 83 97 c 0
 83 -14 142 -61 277 -61 c 0
 370 -61 580 -39 580 31 c 0
 580 109 322 113 322 287 c 0
 322 390 412 582 551 582 c 0
 608 582 650 550 685 497 c 1
 650 375 l 1
 603 434 555 462 493 455 c 0
 434 448 404 412 404 368 c 0
 404 237 670 234 670 58 c 0
 670 -90 482 -201 280 -201 c 0
EndSplineSet
Validated: 33
Substitution2: "'fina' Terminal Forms lookup 31 subtable" uniFE8A
Substitution2: "'medi' Medial Forms lookup 30 subtable" uniFE8C
Substitution2: "'init' Initial Forms lookup 29 subtable" uniFE8B
AlternateSubs2: "'aalt' Access All Alternates lookup 1 subtable" uniFE8B uniFE8C uniFE8A
EndChar

StartChar: uniFE8A
Encoding: 65162 65162 198
Width: 700
GlyphClass: 2
Flags: MW
HStem: -350 146<190 301.5> 0 140<645 700> 635 70<358 374>
VStem: 0 64<-100 -28> 276 47<592 596> 545 94<-153.5 -132 -202 -102>
AnchorPoint: "Anchor-1" 350 880 basechar 0
AnchorPoint: "Anchor-0" 420 -440 basechar 0
LayerCount: 2
Fore
SplineSet
281 399 m 0
 273 395 271 407 270 412 c 0
 264 430 263 434 263 439 c 0
 263 447 269 453 279 459 c 2
 334 491 l 1
 291 506 276 534 276 566 c 0
 276 626 326 705 390 705 c 0
 427 705 442 678 444 631 c 0
 445 618 439 611 432 611 c 0
 427 611 388 635 360 635 c 0
 332 635 323 623 323 606 c 0
 323 578 339 519 400 519 c 0
 412 519 438 520 456 520 c 0
 479 520 485 518 493 505 c 2
 503 488 l 2
 509 476 495 468 485 466 c 0
 350 435 342 433 281 399 c 0
248 -350 m 0
 73 -350 0 -261 0 -81 c 0
 0 25 25 115 130 231 c 1
 145 209 l 1
 81 104 64 39 64 -33 c 0
 64 -167 121 -204 259 -204 c 0
 352 -204 545 -187 545 -120 c 0
 545 -84 486 -35 458 -9 c 0
 414 31 400 45 360 78 c 1
 398 176 l 1
 493 152 590 140 700 140 c 1
 700 0 l 1
 644 -1 603 0 560 20 c 1
 621 -40 639 -105 639 -159 c 0
 639 -245 594 -278 521 -302 c 0
 475 -317 355 -350 248 -350 c 0
EndSplineSet
Validated: 33
Substitution2: "Single Substitution lookup 54 subtable" uniFE8A.seenYeh
Substitution2: "'aalt' Access All Alternates lookup 0 subtable" uniFE8A.seenYeh
EndChar

StartChar: uniFE8A.seenYeh
Encoding: 1114241 -1 199
Width: 700
GlyphClass: 2
Flags: MW
HStem: -350 146<191.5 298 191.5 304> 230 120<565.5 700 621.5 700 621.5 700> 709 70<358 374>
VStem: 0 64<-100.5 -27> 276 47<666 670> 404.64 295.36 545 94<-152.5 -100.5>
AnchorPoint: "Anchor-1" 350 940 basechar 0
AnchorPoint: "Anchor-0" 420 -440 basechar 0
LayerCount: 2
Fore
SplineSet
281 473 m 0xfa
 273 469 271 481 270 486 c 0
 264 504 263 508 263 513 c 0
 263 521 269 527 279 533 c 2
 334 565 l 1
 291 580 276 608 276 640 c 0
 276 700 326 779 390 779 c 0
 427 779 442 752 444 705 c 0
 445 692 439 685 432 685 c 0
 427 685 388 709 360 709 c 0
 332 709 323 697 323 680 c 0
 323 652 339 593 400 593 c 0
 412 593 438 594 456 594 c 0
 479 594 485 592 493 579 c 2
 503 562 l 2
 509 550 495 542 485 540 c 0
 350 509 342 507 281 473 c 0xfa
251 -350 m 0
 73 -350 0 -262 0 -80 c 0
 0 26 25 115 130 231 c 1
 145 209 l 1
 81 104 64 39 64 -34 c 0
 64 -167 121 -204 262 -204 c 0
 334 -204 545 -188 545 -117 c 0xfa
 545 -84 498 -37 460 0 c 0
 404 55 363 166 477 299 c 0
 519 348 543 350 700 350 c 1
 700 230 l 1xfc
 591 230 l 2
 540 230 514 227 506 202 c 0
 496 170 526 123 558 79 c 0
 604 16 639 -32 639 -140 c 0
 639 -241 608 -277 521 -305 c 0
 477 -319 357 -350 251 -350 c 0
EndSplineSet
Validated: 33
EndChar

StartChar: uniFE8C
Encoding: 65164 65164 200
Width: 700
GlyphClass: 2
Flags: MW
HStem: 0 140<0 230 230 239 0 230 645 700> 798 70<313 329>
VStem: 231 47<755 759> 405 119<201.5 274>
AnchorPoint: "Anchor-1" 350 980 basechar 0
AnchorPoint: "Anchor-0" 420 -110 basechar 0
LayerCount: 2
Fore
SplineSet
236 562 m 0
 228 558 226 570 225 575 c 0
 219 593 218 597 218 602 c 0
 218 610 224 616 234 622 c 2
 289 654 l 1
 246 669 231 697 231 729 c 0
 231 789 281 868 345 868 c 0
 382 868 397 841 399 794 c 0
 400 781 394 774 387 774 c 0
 382 774 343 798 315 798 c 0
 287 798 278 786 278 769 c 0
 278 741 294 682 355 682 c 0
 367 682 393 683 411 683 c 0
 434 683 440 681 448 668 c 2
 458 651 l 2
 464 639 450 631 440 629 c 0
 305 598 297 596 236 562 c 0
700 140 m 1
 700 0 l 1
 555 0 491 33 452 164 c 1
 414 47 364 0 239 0 c 2
 0 0 l 1
 0 140 l 1
 230 140 l 2
 345 140 405 144 405 259 c 0
 405 289 401 325 395 365 c 1
 524 448 l 1
 522 400 522 224 524 193 c 0
 528 142 590 140 700 140 c 1
EndSplineSet
Validated: 33
Substitution2: "Single Substitution lookup 54 subtable" yehHamzaaboveSeenLamAr.medi
Substitution2: "'aalt' Access All Alternates lookup 0 subtable" yehHamzaaboveSeenLamAr.medi
EndChar

StartChar: uniFE8B
Encoding: 65163 65163 201
Width: 700
GlyphClass: 2
Flags: MW
HStem: 0 140<0 486 0 457> 787 70<300 316>
VStem: 218 47<744 748> 558 117
AnchorPoint: "Anchor-1" 350 980 basechar 0
AnchorPoint: "Anchor-0" 420 -110 basechar 0
LayerCount: 2
Fore
SplineSet
223 551 m 0
 215 547 213 559 212 564 c 0
 206 582 205 586 205 591 c 0
 205 599 211 605 221 611 c 2
 276 643 l 1
 233 658 218 686 218 718 c 0
 218 778 268 857 332 857 c 0
 369 857 384 830 386 783 c 0
 387 770 381 763 374 763 c 0
 369 763 330 787 302 787 c 0
 274 787 265 775 265 758 c 0
 265 730 281 671 342 671 c 0
 354 671 380 672 398 672 c 0
 421 672 427 670 435 657 c 2
 445 640 l 2
 451 628 437 620 427 618 c 0
 292 587 284 585 223 551 c 0
0 0 m 1
 0 140 l 1
 486 140 l 2
 524 140 560 155 558 196 c 0
 557 230 525 361 506 409 c 1
 607 510 l 1
 626 461 675 296 675 222 c 0
 675 124 589 0 457 0 c 2
 0 0 l 1
EndSplineSet
Validated: 33
EndChar

StartChar: uni06CC
Encoding: 1740 1740 202
Width: 700
GlyphClass: 2
Flags: MW
HStem: -201 140<210.5 323.5 209.5 381> 455 127
VStem: 20 63<41.5 65.5> 322 82<302.5 338.5> 580 90<-4 70>
AnchorPoint: "Anchor-1" 429 800 basechar 0
AnchorPoint: "Anchor-0" 420 -270 basechar 0
LayerCount: 2
Fore
SplineSet
280 -201 m 0
 141 -201 20 -148 20 18 c 0
 20 113 59 236 110 307 c 1
 125 287 l 1
 109 229 83 170 83 97 c 0
 83 -14 142 -61 277 -61 c 0
 370 -61 580 -39 580 31 c 0
 580 109 322 113 322 287 c 0
 322 390 412 582 551 582 c 0
 608 582 650 550 685 497 c 1
 650 375 l 1
 603 434 555 462 493 455 c 0
 434 448 404 412 404 368 c 0
 404 237 670 234 670 58 c 0
 670 -90 482 -201 280 -201 c 0
EndSplineSet
Validated: 33
Substitution2: "'fina' Terminal Forms lookup 31 subtable" uniFBFD
Substitution2: "'medi' Medial Forms lookup 30 subtable" uniFBFF
Substitution2: "'init' Initial Forms lookup 29 subtable" uniFBFE
AlternateSubs2: "'aalt' Access All Alternates lookup 1 subtable" uniFBFE uniFBFF uniFBFD
EndChar

StartChar: uniFBFD
Encoding: 64509 64509 203
Width: 700
GlyphClass: 2
Flags: MW
HStem: -350 146<190 301.5> 0 140<645 700>
VStem: 0 64<-100 -28> 545 94<-153.5 -132 -202 -102>
AnchorPoint: "Anchor-1" 391 437 basechar 0
AnchorPoint: "Anchor-0" 480 -410 basechar 0
LayerCount: 2
Fore
SplineSet
248 -350 m 0
 73 -350 0 -261 0 -81 c 0
 0 25 25 115 130 231 c 1
 145 209 l 1
 81 104 64 39 64 -33 c 0
 64 -167 121 -204 259 -204 c 0
 352 -204 545 -187 545 -120 c 0
 545 -84 486 -35 458 -9 c 0
 414 31 400 45 360 78 c 1
 398 176 l 1
 493 152 590 140 700 140 c 1
 700 0 l 1
 644 -1 603 0 560 20 c 1
 621 -40 639 -105 639 -159 c 0
 639 -245 594 -278 521 -302 c 0
 475 -317 355 -350 248 -350 c 0
EndSplineSet
Validated: 33
Substitution2: "Single Substitution lookup 54 subtable" uniFBFD.seenYeh
Substitution2: "'aalt' Access All Alternates lookup 0 subtable" uniFBFD.seenYeh
EndChar

StartChar: uniFBFD.seenYeh
Encoding: 1114242 -1 204
Width: 700
GlyphClass: 2
Flags: MW
HStem: -350 146<191.5 298 191.5 304> 230 120<565.5 700 621.5 700 621.5 700>
VStem: 0 64<-100.5 -27> 404.64 295.36 545 94<-152.5 -100.5>
AnchorPoint: "Anchor-1" 388 600 basechar 0
AnchorPoint: "Anchor-0" 480 -400 basechar 0
LayerCount: 2
Fore
SplineSet
251 -350 m 0xe8
 73 -350 0 -262 0 -80 c 0
 0 26 25 115 130 231 c 1
 145 209 l 1
 81 104 64 39 64 -34 c 0
 64 -167 121 -204 262 -204 c 0
 334 -204 545 -188 545 -117 c 0xe8
 545 -84 498 -37 460 0 c 0
 404 55 363 166 477 299 c 0
 519 348 543 350 700 350 c 1
 700 230 l 1xf0
 591 230 l 2
 540 230 514 227 506 202 c 0
 496 170 526 123 558 79 c 0
 604 16 639 -32 639 -140 c 0
 639 -241 608 -277 521 -305 c 0
 477 -319 357 -350 251 -350 c 0xe8
EndSplineSet
Validated: 33
EndChar

StartChar: uniFBFF
Encoding: 64511 64511 205
Width: 700
GlyphClass: 2
Flags: MW
HStem: 0 140<0 230 230 239 0 230 645 700>
VStem: 405 119<201.5 274>
AnchorPoint: "Anchor-1" 350 700 basechar 0
AnchorPoint: "Anchor-0" 430 -430 basechar 0
LayerCount: 2
Fore
SplineSet
700 140 m 1
 700 0 l 1
 555 0 491 33 452 164 c 1
 414 47 364 0 239 0 c 2
 0 0 l 1
 0 140 l 1
 230 140 l 2
 345 140 405 144 405 259 c 0
 405 289 401 325 395 365 c 1
 524 448 l 1
 522 400 522 224 524 193 c 0
 528 142 590 140 700 140 c 1
449 -347 m 1
 361 -255 l 1
 446 -162 l 1
 533 -253 l 1
 449 -347 l 1
225 -350 m 1
 137 -258 l 1
 221 -165 l 1
 308 -255 l 1
 225 -350 l 1
EndSplineSet
Validated: 33
EndChar

StartChar: uniFBFE
Encoding: 64510 64510 206
Width: 700
GlyphClass: 2
Flags: MW
HStem: 0 140<0 486 0 457>
VStem: 558 117
AnchorPoint: "Anchor-1" 350 700 basechar 0
AnchorPoint: "Anchor-0" 430 -430 basechar 0
LayerCount: 2
Fore
SplineSet
0 0 m 1
 0 140 l 1
 486 140 l 2
 524 140 560 155 558 196 c 0
 557 230 525 361 506 409 c 1
 607 510 l 1
 626 461 675 296 675 222 c 0
 675 124 589 0 457 0 c 2
 0 0 l 1
449 -347 m 1
 361 -255 l 1
 446 -162 l 1
 533 -253 l 1
 449 -347 l 1
225 -350 m 1
 137 -258 l 1
 221 -165 l 1
 308 -255 l 1
 225 -350 l 1
EndSplineSet
Validated: 33
EndChar

StartChar: uni06D2
Encoding: 1746 1746 207
Width: 700
GlyphClass: 2
Flags: MW
HStem: -177 140<293 398> 375 134<451 489>
VStem: 33 90<1.5 65.5 1.5 75> 361.04 238.96
AnchorPoint: "Anchor-1" 380 650 basechar 0
AnchorPoint: "Anchor-0" 420 -300 basechar 0
LayerCount: 2
Fore
SplineSet
354 -177 m 0
 188 -177 33 -156 33 -6 c 0
 33 156 214 220 313 254 c 0
 376 276 359 334 359 380 c 0
 359 451 399 509 463 509 c 0
 549 509 600 403 600 298 c 0
 600 266 595 251 581 251 c 0
 539 251 516 375 462 375 c 0
 440 375 438 354 437 327 c 0
 433 240 408 178 308 148 c 0
 259 134 123 101 123 30 c 0
 123 -27 213 -37 373 -37 c 0
 497 -37 607 -31 682 -30 c 1
 679 -119 l 1
 526 -171 442 -177 354 -177 c 0
EndSplineSet
Validated: 33
Substitution2: "'fina' Terminal Forms lookup 31 subtable" uniFBAF
Substitution2: "'aalt' Access All Alternates lookup 0 subtable" uniFBAF
EndChar

StartChar: uniFBAF
Encoding: 64431 64431 208
Width: 700
GlyphClass: 2
Flags: MW
HStem: -329 140<311.5 398.5> 0 140<349 700 455 700 455 700>
VStem: 28 95<-157.5 -138>
AnchorPoint: "Anchor-1" 380 350 basechar 0
AnchorPoint: "Anchor-0" 420 -450 basechar 0
LayerCount: 2
Fore
SplineSet
356 -329 m 0
 197 -329 28 -308 28 -173 c 0
 28 -103 74 -1 152 58 c 0
 242 126 372 140 455 140 c 2
 700 140 l 1
 700 0 l 1
 397 0 l 2
 301 0 252 -13 202 -45 c 0
 178 -60 123 -100 123 -133 c 0
 123 -182 247 -189 376 -189 c 0
 495 -189 609 -183 682 -182 c 1
 679 -271 l 1
 526 -323 441 -329 356 -329 c 0
EndSplineSet
Validated: 1
EndChar

StartChar: uni06D3
Encoding: 1747 1747 209
Width: 700
GlyphClass: 2
Flags: MW
HStem: -177 140<293 398> 375 134<451 489> 808 70<323 339>
VStem: 33 90<1.5 65.5 1.5 75> 241 47<765 769> 361.04 238.96
AnchorPoint: "Anchor-1" 360 1020 basechar 0
AnchorPoint: "Anchor-0" 420 -300 basechar 0
LayerCount: 2
Fore
SplineSet
246 572 m 0
 238 568 236 580 235 585 c 0
 229 603 228 607 228 612 c 0
 228 620 234 626 244 632 c 2
 299 664 l 1
 256 679 241 707 241 739 c 0
 241 799 291 878 355 878 c 0
 392 878 407 851 409 804 c 0
 410 791 404 784 397 784 c 0
 392 784 353 808 325 808 c 0
 297 808 288 796 288 779 c 0
 288 751 304 692 365 692 c 0
 377 692 403 693 421 693 c 0
 444 693 450 691 458 678 c 2
 468 661 l 2
 474 649 460 641 450 639 c 0
 315 608 307 606 246 572 c 0
354 -177 m 0
 188 -177 33 -156 33 -6 c 0
 33 156 214 220 313 254 c 0
 376 276 359 334 359 380 c 0
 359 451 399 509 463 509 c 0
 549 509 600 403 600 298 c 0
 600 266 595 251 581 251 c 0
 539 251 516 375 462 375 c 0
 440 375 438 354 437 327 c 0
 433 240 408 178 308 148 c 0
 259 134 123 101 123 30 c 0
 123 -27 213 -37 373 -37 c 0
 497 -37 607 -31 682 -30 c 1
 679 -119 l 1
 526 -171 442 -177 354 -177 c 0
EndSplineSet
Validated: 33
Substitution2: "'fina' Terminal Forms lookup 31 subtable" uniFBB1
Substitution2: "'aalt' Access All Alternates lookup 0 subtable" uniFBB1
EndChar

StartChar: uniFBB1
Encoding: 64433 64433 210
Width: 700
GlyphClass: 2
Flags: MW
HStem: -329 140<311.5 398.5> 0 140<349 700 455 700 455 700> 413 20G<418 438.5> 548 70<329 345>
VStem: 28 95<-157.5 -138> 247 47<505 509>
AnchorPoint: "Anchor-1" 350 800 basechar 0
AnchorPoint: "Anchor-0" 420 -450 basechar 0
LayerCount: 2
Fore
SplineSet
252 312 m 0
 244 308 242 320 241 325 c 0
 235 343 234 347 234 352 c 0
 234 360 240 366 250 372 c 2
 305 404 l 1
 262 419 247 447 247 479 c 0
 247 539 297 618 361 618 c 0
 398 618 413 591 415 544 c 0
 416 531 410 524 403 524 c 0
 398 524 359 548 331 548 c 0
 303 548 294 536 294 519 c 0
 294 491 310 432 371 432 c 0
 383 432 409 433 427 433 c 0
 450 433 456 431 464 418 c 2
 474 401 l 2
 480 389 466 381 456 379 c 0
 321 348 313 346 252 312 c 0
356 -329 m 0
 197 -329 28 -308 28 -173 c 0
 28 -103 74 -1 152 58 c 0
 242 126 372 140 455 140 c 2
 700 140 l 1
 700 0 l 1
 397 0 l 2
 301 0 252 -13 202 -45 c 0
 178 -60 123 -100 123 -133 c 0
 123 -182 247 -189 376 -189 c 0
 495 -189 609 -183 682 -182 c 1
 679 -271 l 1
 526 -323 441 -329 356 -329 c 0
EndSplineSet
Validated: 1
EndChar

StartChar: uni0640
Encoding: 1600 1600 211
Width: 700
GlyphClass: 2
Flags: MW
HStem: 0 140<0 700 0 700>
VStem: 0 700<0 140 0 140>
AnchorPoint: "Anchor-1" 350 530 basechar 0
AnchorPoint: "Anchor-0" 350 -110 basechar 0
LayerCount: 2
Fore
SplineSet
0 0 m 1
 0 140 l 1
 700 140 l 1
 700 0 l 1
 0 0 l 1
EndSplineSet
Validated: 1
EndChar

StartChar: uniFECA
Encoding: 65226 65226 212
Width: 700
GlyphClass: 2
Flags: MW
HStem: -486 136<317 400.5> 0 140<524 566 566 700> 320 179<250.5 477>
VStem: 33 110<-230.5 -110>
AnchorPoint: "Anchor-1" 420 781 basechar 0
AnchorPoint: "Anchor-0" 420 -530 basechar 0
LayerCount: 2
Fore
SplineSet
393 150 m 1
 307 99 143 23 143 -155 c 0
 143 -306 251 -350 383 -350 c 0
 501 -350 597 -315 652 -282 c 1
 667 -300 l 1
 585 -406 480 -486 321 -486 c 0
 203 -486 33 -442 33 -222 c 0
 33 2 208 125 287 166 c 0
 330 188 369 201 369 239 c 0
 369 278 325 320 285 320 c 0
 216 320 198 320 198 371 c 0
 198 477 274 499 403 499 c 0
 551 499 590 470 604 419 c 0
 616 374 596 334 575 300 c 0
 537 241 486 210 448 186 c 1
 465 157 492 140 524 140 c 2
 700 140 l 1
 700 0 l 1
 566 0 l 2
 477 0 413 58 393 150 c 1
EndSplineSet
Validated: 33
EndChar

StartChar: uniFECC.ainAlef
Encoding: 1114243 -1 213
Width: 700
GlyphClass: 2
Flags: MW
HStem: 0 140<0 15 0 15 566 700> 287 189<116 357.5>
VStem: 0 700<0 140 0 140>
AnchorPoint: "Anchor-1" 410 710 basechar 0
AnchorPoint: "Anchor-0" 433 -110 basechar 0
LayerCount: 2
Fore
SplineSet
566 140 m 2
 700 140 l 1
 700 0 l 1
 566 0 l 2
 460 0 377 35 307 121 c 1
 218 42 123 0 15 0 c 2
 0 0 l 1
 0 140 l 1
 15 140 l 2
 95 140 231 153 231 221 c 0
 231 259 187 287 150 287 c 0
 82 287 63 287 63 328 c 0
 63 444 69 476 270 476 c 0
 445 476 458 452 478 355 c 0
 482 334 465 307 437 268 c 0
 410 231 382 197 354 167 c 1
 400 140 484 140 566 140 c 2
EndSplineSet
Validated: 33
EndChar

StartChar: uniFECC
Encoding: 65228 65228 214
Width: 700
GlyphClass: 2
Flags: MW
HStem: 0 140<0 105 0 127 646 658 658 700> 287 189<303 309>
VStem: 0 700<0 140 0 140>
AnchorPoint: "Anchor-1" 410 710 basechar 0
AnchorPoint: "Anchor-0" 433 -110 basechar 0
LayerCount: 2
Fore
SplineSet
646 140 m 2
 700 140 l 1
 700 0 l 1
 658 0 l 2
 594 0 564 0 535 27 c 0
 495 65 461 98 441 126 c 1
 333 42 209 0 105 0 c 2
 0 0 l 1
 0 140 l 1
 127 140 l 2
 235 140 371 151 371 224 c 0
 371 256 328 287 290 287 c 0
 222 287 203 287 203 328 c 0
 203 438 209 476 397 476 c 0
 614 476 591 445 618 355 c 0
 624 335 599 299 577 268 c 0
 552 233 524 201 494 172 c 1
 506 162 515 158 553 148 c 0
 580 140 601 140 646 140 c 2
EndSplineSet
Validated: 33
Substitution2: "Single Substitution lookup 54 subtable" uniFECC.ainAlef
Substitution2: "'aalt' Access All Alternates lookup 0 subtable" uniFECC.ainAlef
EndChar

StartChar: uniFEFB
Encoding: 65275 65275 215
Width: 700
GlyphClass: 3
LigCaretCntFixed: 1
Flags: MW
HStem: 0 140<195.5 249 240 249 367 534> 565.25 205.79
VStem: 500 101
AnchorPoint: "Anchor-3" 612 -110 baselig 0
AnchorPoint: "Anchor-2" 580 1070 baselig 0
AnchorPoint: "Anchor-3" 175 -100 baselig 1
AnchorPoint: "Anchor-2" 170 1000 baselig 1
LayerCount: 2
Fore
SplineSet
623 139 m 1
 634 115 665 0 581 0 c 2
 211 0 l 2
 180 0 177 16 180 28 c 2
 203 110 l 2
 209 130 221 140 240 140 c 2
 249 140 l 1
 334 174 396 253 436 362 c 1
 383 454 318 532 242 582 c 1
 228 571 l 1
 210 562 198 565 192 570 c 2
 136 612 l 2
 116 627 109 662 118 679 c 2
 155 754 l 2
 163 771 189 777 203 764 c 2
 314 668 l 2
 351 635 411 568 470 478 c 1
 487 560 497 651 500 749 c 0
 501 787 502 804 523 849 c 0
 534 872 541 885 559 885 c 2
 578 885 l 2
 600 885 601 869 601 826 c 0
 601 630 580 504 525 385 c 1
 564 312 599 229 623 139 c 1
474 291 m 1
 444 244 409 195 367 140 c 1
 534 140 l 1
 517 192 497 243 474 291 c 1
EndSplineSet
Validated: 33
Ligature2: "'rlig' Required Ligatures lookup 32 subtable" uniFEDF uniFE8E
Substitution2: "'fina' Terminal Forms lookup 31 subtable" uniFEFC
Substitution2: "'aalt' Access All Alternates lookup 0 subtable" uniFEFC
LCarets2: 1 350
EndChar

StartChar: uniFEFC
Encoding: 65276 65276 216
Width: 700
GlyphClass: 3
LigCaretCntFixed: 1
Flags: MW
HStem: 0 140<682.5 700> 870 20G<627 627>
VStem: 516 111
AnchorPoint: "Anchor-3" 612 -110 baselig 0
AnchorPoint: "Anchor-2" 580 1010 baselig 0
AnchorPoint: "Anchor-3" 246 -200 baselig 1
AnchorPoint: "Anchor-2" 175 860 baselig 1
LayerCount: 2
Fore
SplineSet
627 323 m 2
 627 175 665 140 700 140 c 1
 700 0 l 1
 665 0 583 0 568 329 c 1
 545 80 475 16 383 -23 c 2
 341 -41 l 2
 285 -65 179 -95 108 -91 c 1
 108 -28 l 1
 198 14 288 56 378 97 c 1
 346 274 264 413 181 560 c 1
 280 679 l 1
 332 517 400 323 424 126 c 1
 466 160 505 210 511 253 c 1
 521 785 l 1
 627 890 l 1
 627 323 l 2
EndSplineSet
Validated: 33
Ligature2: "'rlig' Required Ligatures lookup 32 subtable" uniFEE0 uniFE8E
LCarets2: 1 350
EndChar

StartChar: uniFEF7
Encoding: 65271 65271 217
Width: 700
GlyphClass: 3
LigCaretCntFixed: 1
Flags: MW
HStem: 0 140<195.5 249 240 249 367 534> 565.25 205.79 1175 79<187.5 206>
VStem: 95 53<1126 1130> 500 101
AnchorPoint: "Anchor-3" 612 -110 baselig 0
AnchorPoint: "Anchor-2" 600 1070 baselig 0
AnchorPoint: "Anchor-3" 224 -138 baselig 1
AnchorPoint: "Anchor-2" 200 1420 baselig 1
LayerCount: 2
Fore
SplineSet
352 1008 m 2
 359 994 344 985 332 983 c 0
 178 947 169 945 100 907 c 0
 91 903 88 916 87 922 c 0
 81 942 79 946 79 952 c 0
 79 962 86 968 98 975 c 2
 160 1011 l 1
 111 1028 95 1060 95 1096 c 0
 95 1164 151 1254 224 1254 c 0
 266 1254 283 1224 285 1170 c 0
 286 1155 279 1148 272 1148 c 0
 266 1148 222 1175 190 1175 c 0
 158 1175 148 1161 148 1142 c 0
 148 1110 166 1043 235 1043 c 0
 249 1043 278 1044 299 1044 c 0
 325 1044 332 1042 341 1027 c 2
 352 1008 l 2
623 139 m 1
 634 115 665 0 581 0 c 2
 211 0 l 2
 180 0 177 16 180 28 c 2
 203 110 l 2
 209 130 221 140 240 140 c 2
 249 140 l 1
 334 174 396 253 436 362 c 1
 383 454 318 532 242 582 c 1
 228 571 l 1
 210 562 198 565 192 570 c 2
 136 612 l 2
 116 627 109 662 118 679 c 2
 155 754 l 2
 163 771 189 777 203 764 c 2
 314 668 l 2
 351 635 411 568 470 478 c 1
 487 560 497 651 500 749 c 0
 501 787 502 804 523 849 c 0
 534 872 541 885 559 885 c 2
 578 885 l 2
 600 885 601 869 601 826 c 0
 601 630 580 504 525 385 c 1
 564 312 599 229 623 139 c 1
474 291 m 1
 444 244 409 195 367 140 c 1
 534 140 l 1
 517 192 497 243 474 291 c 1
EndSplineSet
Validated: 33
Ligature2: "'rlig' Required Ligatures lookup 32 subtable" uniFEDF uniFE84
Substitution2: "'fina' Terminal Forms lookup 31 subtable" uniFEF8
Substitution2: "'aalt' Access All Alternates lookup 0 subtable" uniFEF8
LCarets2: 1 350
EndChar

StartChar: uniFEF8
Encoding: 65272 65272 218
Width: 700
GlyphClass: 3
LigCaretCntFixed: 1
Flags: MW
HStem: 0 140<682.5 700> 870 20G<627 627> 1085 79<207.5 226>
VStem: 115 53<1036 1040> 516 111
AnchorPoint: "Anchor-3" 612 -110 baselig 0
AnchorPoint: "Anchor-2" 620 1033 baselig 0
AnchorPoint: "Anchor-3" 246 -200 baselig 1
AnchorPoint: "Anchor-2" 250 1340 baselig 1
LayerCount: 2
Fore
SplineSet
120 817 m 0
 111 813 108 826 107 832 c 0
 101 852 99 856 99 862 c 0
 99 872 106 878 118 885 c 2
 180 921 l 1
 131 938 115 970 115 1006 c 0
 115 1074 171 1164 244 1164 c 0
 286 1164 303 1134 305 1080 c 0
 306 1065 299 1058 292 1058 c 0
 286 1058 242 1085 210 1085 c 0
 178 1085 168 1071 168 1052 c 0
 168 1020 186 953 255 953 c 0
 269 953 298 954 319 954 c 0
 345 954 352 952 361 937 c 2
 372 918 l 2
 379 904 364 895 352 893 c 0
 198 857 189 855 120 817 c 0
627 323 m 2
 627 175 665 140 700 140 c 1
 700 0 l 1
 665 0 583 0 568 329 c 1
 545 80 475 16 383 -23 c 2
 341 -41 l 2
 285 -65 179 -95 108 -91 c 1
 108 -28 l 1
 198 14 288 56 378 97 c 1
 346 274 264 413 181 560 c 1
 280 679 l 1
 332 517 400 323 424 126 c 1
 466 160 505 210 511 253 c 1
 521 785 l 1
 627 890 l 1
 627 323 l 2
EndSplineSet
Validated: 33
Ligature2: "'rlig' Required Ligatures lookup 32 subtable" uniFEE0 uniFE84
LCarets2: 1 350
EndChar

StartChar: uniFEF9
Encoding: 65273 65273 219
Width: 700
GlyphClass: 3
LigCaretCntFixed: 1
Flags: MW
HStem: -238 87<427 447.5> 0 140<195.5 249 240 249 367 534> 565.25 205.79
VStem: 325 59<-292.5 -287.5> 500 101
AnchorPoint: "Anchor-3" 614 -621 baselig 0
AnchorPoint: "Anchor-2" 590 1070 baselig 0
AnchorPoint: "Anchor-3" 489 -630 baselig 1
AnchorPoint: "Anchor-2" 170 1000 baselig 1
LayerCount: 2
Fore
SplineSet
623 139 m 1
 634 115 665 0 581 0 c 2
 211 0 l 2
 180 0 177 16 180 28 c 2
 203 110 l 2
 209 130 221 140 240 140 c 2
 249 140 l 1
 334 174 396 253 436 362 c 1
 383 454 318 532 242 582 c 1
 228 571 l 1
 210 562 198 565 192 570 c 2
 136 612 l 2
 116 627 109 662 118 679 c 2
 155 754 l 2
 163 771 189 777 203 764 c 2
 314 668 l 2
 351 635 411 568 470 478 c 1
 487 560 497 651 500 749 c 0
 501 787 502 804 523 849 c 0
 534 872 541 885 559 885 c 2
 578 885 l 2
 600 885 601 869 601 826 c 0
 601 630 580 504 525 385 c 1
 564 312 599 229 623 139 c 1
474 291 m 1
 444 244 409 195 367 140 c 1
 534 140 l 1
 517 192 497 243 474 291 c 1
596 -401 m 2
 608 -422 l 2
 616 -437 599 -447 586 -450 c 0
 417 -489 407 -491 331 -533 c 0
 321 -538 318 -523 317 -517 c 0
 310 -495 308 -490 308 -484 c 0
 308 -473 316 -466 329 -458 c 2
 397 -419 l 1
 343 -400 325 -365 325 -325 c 0
 325 -250 387 -151 467 -151 c 0
 514 -151 532 -185 535 -244 c 0
 536 -260 528 -268 520 -268 c 0
 514 -268 465 -238 430 -238 c 0
 395 -238 384 -254 384 -275 c 0
 384 -310 404 -384 480 -384 c 0
 495 -384 527 -382 550 -382 c 0
 579 -382 586 -385 596 -401 c 2
EndSplineSet
Validated: 33
Ligature2: "'rlig' Required Ligatures lookup 32 subtable" uniFEDF uniFE88
Substitution2: "'fina' Terminal Forms lookup 31 subtable" uniFEFA
Substitution2: "'aalt' Access All Alternates lookup 0 subtable" uniFEFA
LCarets2: 1 350
EndChar

StartChar: uniFEFA
Encoding: 65274 65274 220
Width: 700
GlyphClass: 3
LigCaretCntFixed: 1
Flags: MW
HStem: -260 87<430 450.5> 0 140<682.5 700> 870 20G<627 627>
VStem: 328 59<-314.5 -309.5> 516 111
AnchorPoint: "Anchor-3" 669 -528 baselig 0
AnchorPoint: "Anchor-2" 620 1033 baselig 0
AnchorPoint: "Anchor-3" 491 -630 baselig 1
AnchorPoint: "Anchor-2" 175 860 baselig 1
LayerCount: 2
Fore
SplineSet
627 323 m 2
 627 175 665 140 700 140 c 1
 700 0 l 1
 665 0 583 0 568 329 c 1
 545 80 475 16 383 -23 c 2
 341 -41 l 2
 285 -65 179 -95 108 -91 c 1
 108 -28 l 1
 198 14 288 56 378 97 c 1
 346 274 264 413 181 560 c 1
 280 679 l 1
 332 517 400 323 424 126 c 1
 466 160 505 210 511 253 c 1
 521 785 l 1
 627 890 l 1
 627 323 l 2
599 -423 m 2
 611 -444 l 2
 619 -459 602 -469 589 -472 c 0
 420 -511 410 -513 334 -555 c 0
 324 -560 321 -545 320 -539 c 0
 313 -517 311 -512 311 -506 c 0
 311 -495 319 -488 332 -480 c 2
 400 -441 l 1
 346 -422 328 -387 328 -347 c 0
 328 -272 390 -173 470 -173 c 0
 517 -173 535 -207 538 -266 c 0
 539 -282 531 -290 523 -290 c 0
 517 -290 468 -260 433 -260 c 0
 398 -260 387 -276 387 -297 c 0
 387 -332 407 -406 483 -406 c 0
 498 -406 530 -404 553 -404 c 0
 582 -404 589 -407 599 -423 c 2
EndSplineSet
Validated: 33
Ligature2: "'rlig' Required Ligatures lookup 32 subtable" uniFEE0 uniFE88
LCarets2: 1 350
EndChar

StartChar: uniFEF5
Encoding: 65269 65269 221
Width: 700
GlyphClass: 3
LigCaretCntFixed: 1
Flags: MW
HStem: 0 140<195.5 249 240 249 367 534> 565.25 205.79 906 99<264 308.5 251 323.5>
VStem: 500 101
AnchorPoint: "Anchor-3" 612 -110 baselig 0
AnchorPoint: "Anchor-2" 630 1070 baselig 0
AnchorPoint: "Anchor-3" 224 -138 baselig 1
AnchorPoint: "Anchor-2" 220 1220 baselig 1
LayerCount: 2
Fore
SplineSet
138 1013 m 1
 112 1000 89 968 68 901 c 1
 33 937 l 1
 58 1019 117 1064 156 1064 c 0
 200 1064 211 1005 291 1005 c 0
 326 1005 366 1016 462 1064 c 1
 480 1064 487 1013 459 983 c 0
 436 958 353 906 294 906 c 0
 234 906 169 958 138 1013 c 1
623 139 m 1
 634 115 665 0 581 0 c 2
 211 0 l 2
 180 0 177 16 180 28 c 2
 203 110 l 2
 209 130 221 140 240 140 c 2
 249 140 l 1
 334 174 396 253 436 362 c 1
 383 454 318 532 242 582 c 1
 228 571 l 1
 210 562 198 565 192 570 c 2
 136 612 l 2
 116 627 109 662 118 679 c 2
 155 754 l 2
 163 771 189 777 203 764 c 2
 314 668 l 2
 351 635 411 568 470 478 c 1
 487 560 497 651 500 749 c 0
 501 787 502 804 523 849 c 0
 534 872 541 885 559 885 c 2
 578 885 l 2
 600 885 601 869 601 826 c 0
 601 630 580 504 525 385 c 1
 564 312 599 229 623 139 c 1
474 291 m 1
 444 244 409 195 367 140 c 1
 534 140 l 1
 517 192 497 243 474 291 c 1
EndSplineSet
Validated: 33
Ligature2: "'rlig' Required Ligatures lookup 32 subtable" uniFEDF uniFE82
Substitution2: "'fina' Terminal Forms lookup 31 subtable" uniFEF6
Substitution2: "'aalt' Access All Alternates lookup 0 subtable" uniFEF6
LCarets2: 1 350
EndChar

StartChar: uniFEF6
Encoding: 65270 65270 222
Width: 700
GlyphClass: 3
LigCaretCntFixed: 1
Flags: MW
HStem: 0 140<682.5 700> 776 99<270 314.5 257 329.5> 870 20G<627 627>
VStem: 516 111
AnchorPoint: "Anchor-3" 612 -110 baselig 0
AnchorPoint: "Anchor-2" 620 1033 baselig 0
AnchorPoint: "Anchor-3" 246 -200 baselig 1
AnchorPoint: "Anchor-2" 210 1094 baselig 1
LayerCount: 2
Fore
SplineSet
144 883 m 1xb0
 118 870 95 838 74 771 c 1
 39 807 l 1
 64 889 123 934 162 934 c 0
 206 934 217 875 297 875 c 0
 332 875 372 886 468 934 c 1
 486 934 493 883 465 853 c 0
 442 828 359 776 300 776 c 0xd0
 240 776 175 828 144 883 c 1xb0
627 323 m 2
 627 175 665 140 700 140 c 1
 700 0 l 1
 665 0 583 0 568 329 c 1
 545 80 475 16 383 -23 c 2
 341 -41 l 2
 285 -65 179 -95 108 -91 c 1
 108 -28 l 1
 198 14 288 56 378 97 c 1
 346 274 264 413 181 560 c 1
 280 679 l 1
 332 517 400 323 424 126 c 1
 466 160 505 210 511 253 c 1
 521 785 l 1
 627 890 l 1
 627 323 l 2
EndSplineSet
Validated: 33
Ligature2: "'rlig' Required Ligatures lookup 32 subtable" uniFEE0 uniFE82
LCarets2: 1 350
EndChar

